<svg width="304" height="104" viewBox="0 0 304 104" fill="none" xmlns="http://www.w3.org/2000/svg">
<g clip-path="url(#clip0_2420_23783)">
<path d="M47.2305 40.8427C48.5613 38.8805 50.1793 38.4957 52.0843 39.6883C62.1231 45.9907 72.351 52.5045 82.7681 59.2299C83.1531 59.4795 83.5213 59.4587 83.8726 59.1675C83.9468 59.1046 84.0084 59.0274 84.0537 58.9405C84.099 58.8535 84.1272 58.7585 84.1366 58.6609C84.146 58.5632 84.1365 58.4649 84.1086 58.3716C84.0807 58.2782 84.0349 58.1918 83.9739 58.1171C75.9551 48.0568 67.6694 37.6152 59.1169 26.7923C57.4753 24.7227 58.8129 22.6531 61.1233 22.5283C62.0961 22.4797 62.981 22.2336 63.7782 21.7899C63.964 21.6876 64.1158 21.5314 64.2149 21.3406C64.3139 21.1499 64.3558 20.933 64.3352 20.7169C64.3147 20.5008 64.2327 20.2951 64.0995 20.1253C63.9662 19.9555 63.7875 19.8291 63.5857 19.7619L35.8203 10.8075C35.3268 10.648 34.8036 10.6108 34.2934 10.699C33.7832 10.7872 33.3007 10.9983 32.8853 11.315C32.47 11.6316 32.1338 12.0448 31.9041 12.5206C31.6745 12.9964 31.5581 13.5213 31.5643 14.0523C31.7737 30.7685 32.0271 46.9509 32.3243 62.5995C32.3378 63.2373 32.6216 63.6915 33.1755 63.9619C33.4106 64.0745 33.6685 64.1277 33.9277 64.1168C34.1869 64.106 34.4398 64.0314 34.6651 63.8995L46.2678 56.9627C46.815 56.6368 47.092 56.1515 47.0987 55.5067C47.1595 51.1387 47.0818 46.7083 46.8657 42.2155C46.8386 41.6955 46.9602 41.2379 47.2305 40.8427Z" stroke="#B3DCA2" stroke-width="3"/>
<path d="M20.115 45.3564L15.778 59.8124C15.6676 60.182 15.4591 60.5127 15.1759 60.7675C14.8926 61.0222 14.5458 61.1909 14.1743 61.2546C13.8029 61.3183 13.4215 61.2746 13.0729 61.1282C12.7243 60.9818 12.4224 60.7387 12.2009 60.426C11.728 59.7604 11.1943 59.2127 10.5998 58.7828C8.57318 57.2991 7.8706 57.7948 8.49211 60.27L10.6708 68.9644" stroke="#F7AB9E" stroke-width="3"/>
<path d="M10.6722 68.9639L15.364 88.1623C15.4856 88.6407 15.7896 88.8799 16.276 88.8799C17.2555 88.8799 18.2858 88.9111 19.3666 88.9735C20.3732 89.0289 21.4913 88.6927 22.7208 87.9647C33.1243 81.8079 43.5583 75.5956 54.0226 69.3279" stroke="#F8B59E" stroke-width="3"/>
<path d="M54.022 69.3288C55.2786 68.5662 56.5824 67.7758 57.9335 66.9576C58.8387 66.4099 58.9198 65.6576 58.1767 64.7008C58.0628 64.5563 57.9289 64.4365 57.7815 64.3472L50.0802 59.5528C49.5874 59.2445 49.0221 59.0788 48.4442 59.0733C47.8663 59.0679 47.2971 59.2227 46.797 59.5216L34.8396 66.656C34.3444 66.952 33.7823 67.1098 33.2093 67.1137C32.6362 67.1175 32.0722 66.9674 31.5732 66.6782C31.0741 66.389 30.6576 65.9708 30.3649 65.4652C30.0722 64.9596 29.9135 64.3841 29.9047 63.796L29.6412 46.1992" stroke="#F7AB9E" stroke-width="3"/>
<path d="M29.6397 46.2C29.5519 37.6165 29.3188 28.7211 28.9405 19.5136C28.927 19.1461 28.7176 18.9624 28.3122 18.9624C28.1912 18.9632 28.0739 19.0029 27.9772 19.0759C27.8806 19.1489 27.8098 19.2512 27.7752 19.368L20.1144 45.3576" stroke="#F49C9D" stroke-width="3"/>
<path d="M29.6397 46.1988L20.1144 45.3564" stroke="#EC473C" stroke-width="3"/>
<path d="M54.0226 69.3279C48.1994 68.898 44.1258 68.8911 41.8018 69.3071C38.7754 69.8479 36.1137 70.1737 33.8168 70.2847C33.0399 70.3263 32.1617 70.1044 31.1821 69.6191C30.4052 69.2308 29.5338 69.0332 28.5677 69.0263C22.6431 68.9985 16.6779 68.9777 10.6722 68.9639" stroke="#EF603D" stroke-width="3"/>
<path d="M232.126 60.313L232.258 61.3426C232.318 61.821 232.582 62.0602 233.048 62.0602L238.885 62.1122C239.189 62.1122 239.439 61.9943 239.635 61.7586C239.864 61.4743 239.966 61.1346 239.939 60.7394C239.927 60.5123 239.835 60.2974 239.681 60.1347C239.526 59.972 239.319 59.8727 239.098 59.8554L237.497 59.7514C237.223 59.7303 236.968 59.6039 236.782 59.3974C236.596 59.191 236.493 58.9198 236.493 58.6386L236.504 23.4866C236.503 23.3096 236.464 23.1349 236.387 22.9764C236.311 22.8178 236.2 22.6797 236.064 22.5728C235.927 22.4659 235.769 22.3933 235.6 22.3606C235.432 22.3278 235.259 22.3359 235.095 22.3842L228.954 24.1626C228.394 24.322 228.13 24.6999 228.164 25.2962L228.184 25.5874C228.211 26.0242 228.437 26.2426 228.863 26.2426L231.518 26.253C232.018 26.253 232.264 26.506 232.258 27.0122L232.248 35.3322C232.248 35.7135 232.065 35.8903 231.7 35.8626C230.802 35.814 229.9 35.7586 228.995 35.6962C221.888 35.2524 217.22 38.1124 214.991 44.2762C213.572 48.2282 213.68 52.2634 215.315 56.3818C217.595 62.1434 223.888 64.0674 229.218 61.197C229.941 60.8087 230.657 60.3892 231.366 59.9386C231.805 59.6612 232.058 59.786 232.126 60.313Z" stroke="#828384" stroke-width="3"/>
<path d="M148.982 39.5005L154.991 39.5109C155.64 39.5109 156.025 39.185 156.147 38.5333L156.258 37.9093C156.38 37.2714 156.123 36.9525 155.488 36.9525L148.992 36.9213C148.506 36.9213 148.263 36.6717 148.263 36.1725V31.9709C148.256 31.5757 148.067 31.333 147.695 31.2429C146.743 31.0072 146.084 31.3504 145.719 32.2725C145.274 33.4096 144.774 34.5501 144.22 35.6941C144.058 36.0408 143.808 36.3077 143.47 36.4949C142.916 36.8 142.318 37.0288 141.676 37.1813C141.237 37.2853 140.913 37.5314 140.703 37.9197C140.514 38.2664 140.507 38.6096 140.683 38.9493C140.866 39.3098 141.153 39.4936 141.544 39.5005L143.196 39.5317C143.404 39.5371 143.601 39.6264 143.746 39.7802C143.89 39.934 143.969 40.1399 143.966 40.3533C143.906 46.0664 143.885 51.769 143.906 57.4613C143.936 64.0445 151.668 62.4221 155.528 61.2157C156.163 61.0146 156.39 60.5848 156.207 59.9261L156.126 59.6661C156.098 59.5657 156.051 59.4721 155.988 59.3908C155.924 59.3094 155.846 59.242 155.757 59.1926C155.668 59.1431 155.57 59.1126 155.47 59.1028C155.37 59.093 155.269 59.1042 155.174 59.1357C152.691 59.9365 149.124 59.6765 148.425 56.6605C148.384 56.508 148.334 55.1386 148.273 52.5525C148.178 48.656 148.222 44.496 148.405 40.0725C148.418 39.6912 148.611 39.5005 148.982 39.5005Z" stroke="#828384" stroke-width="3"/>
<path d="M106.37 47.8409L121.823 47.8201C121.994 47.8203 122.158 47.7525 122.282 47.6308C122.407 47.509 122.482 47.3423 122.492 47.1649C122.729 43.1852 121.671 40.0895 119.32 37.8777C115.206 33.9985 108.113 35.4129 104.546 39.3649C98.7497 45.7817 99.8137 57.9185 108.417 61.6937C112.612 63.5345 117.821 62.1721 121.702 59.9153C122.553 59.4161 122.816 58.6951 122.492 57.7521L122.37 57.3881C122.335 57.2856 122.277 57.1926 122.202 57.1161C122.127 57.0396 122.036 56.9817 121.936 56.9466C121.837 56.9115 121.731 56.9003 121.627 56.9137C121.523 56.9271 121.424 56.9649 121.337 57.0241C116.392 60.3209 110.2 60.8825 106.927 54.8609C105.887 52.9473 105.448 50.85 105.61 48.5689C105.644 48.0836 105.897 47.8409 106.37 47.8409Z" stroke="#828384" stroke-width="3"/>
<path d="M163.968 47.8511L179.35 47.8199C179.611 47.8172 179.86 47.7093 180.042 47.5201C180.225 47.3309 180.325 47.0759 180.323 46.8111C180.292 40.7479 177.293 35.5895 170.747 35.6519C160.188 35.7455 155.395 48.6935 160.684 57.0551C165.133 64.0855 172.834 63.5239 179.289 59.9775C180.019 59.5823 180.367 58.9618 180.333 58.1159C180.319 57.9079 180.276 57.7069 180.201 57.5127C179.917 56.8333 179.472 56.6911 178.864 57.0863C173.452 60.6015 166.744 60.6951 164.109 53.7375C163.501 52.1429 163.208 50.4303 163.228 48.5999C163.231 48.4004 163.31 48.2099 163.448 48.0698C163.587 47.9297 163.773 47.8511 163.968 47.8511Z" stroke="#828384" stroke-width="3"/>
<path d="M192.159 37.6392C192.355 36.7725 192.119 36.2144 191.45 35.9648C190.815 35.729 190.129 35.7672 189.393 36.0792C187.954 36.6962 186.552 37.1018 185.187 37.296C184.346 37.4208 183.809 38.2944 184.154 39.1264C184.309 39.4869 184.576 39.6602 184.954 39.6464L187.234 39.584C187.297 39.5812 187.36 39.5915 187.419 39.6142C187.478 39.637 187.532 39.6718 187.577 39.7165C187.623 39.7612 187.659 39.8149 187.683 39.8744C187.708 39.9338 187.721 39.9978 187.721 40.0624V58.772C187.72 58.9877 187.642 59.1956 187.502 59.3565C187.362 59.5174 187.169 59.6202 186.961 59.6456L184.833 59.8952C184.231 59.9714 183.944 60.3216 183.971 60.9456L183.992 61.268C184.019 61.8296 184.306 62.1104 184.853 62.1104L194.571 62.0688C195.138 62.0618 195.459 61.7741 195.533 61.2056C195.594 60.7826 195.473 60.3978 195.169 60.0512C195.052 59.9155 194.902 59.8141 194.735 59.7575C194.568 59.7008 194.389 59.6909 194.216 59.7288C192.743 60.0338 192.017 59.441 192.037 57.9504C192.112 52.896 192.125 47.5954 192.078 42.0488C192.071 41.1682 192.47 40.572 193.274 40.26C196.749 38.8872 202.981 37.9928 203.103 43.6192C203.204 48.1813 203.218 53.253 203.144 58.8344C203.137 59.3682 202.873 59.6594 202.353 59.708L200.59 59.8744C200.137 59.916 199.891 60.169 199.85 60.6336L199.81 61.0912C199.756 61.7498 200.05 62.0792 200.691 62.0792L210.298 62.0896C210.967 62.0896 211.294 61.7464 211.281 61.06L211.271 60.5088C211.264 60.3453 211.201 60.1898 211.093 60.0713C210.985 59.9527 210.839 59.879 210.683 59.864L208.443 59.6768C208.221 59.659 208.012 59.5571 207.857 59.3903C207.702 59.2236 207.611 59.0035 207.602 58.772C207.481 54.8338 207.481 50.7189 207.602 46.4272C207.775 40.3224 206.417 34.6024 198.948 35.84C196.82 36.1832 194.875 37.4416 192.909 38.2944C192.814 38.3336 192.709 38.3455 192.608 38.3287C192.506 38.312 192.411 38.2672 192.334 38.1993C192.256 38.1315 192.199 38.0432 192.168 37.9443C192.137 37.8455 192.134 37.7398 192.159 37.6392Z" stroke="#828384" stroke-width="3"/>
<path d="M248.198 47.844L263.6 47.8128C263.689 47.8132 263.775 47.7791 263.841 47.7175C263.907 47.6558 263.947 47.5711 263.955 47.48C264.381 42.9734 263.111 39.5864 260.145 37.3192C256.568 34.5736 250.924 35.3744 247.59 37.9848C242.655 41.8328 241.337 49.4352 243.486 54.8224C247.083 63.8704 255.97 64.0472 263.307 59.8768C263.82 59.5856 264.063 59.1384 264.036 58.5352L263.996 57.5264C263.962 56.7915 263.638 56.6112 263.023 56.9856C255.301 61.6864 248.157 59.7312 246.921 49.3312C246.799 48.3398 247.225 47.844 248.198 47.844Z" stroke="#828384" stroke-width="3"/>
<path d="M270.632 59.7173L268.666 59.8525C268.221 59.8872 267.927 60.1229 267.785 60.5597C267.744 60.7053 267.721 60.8544 267.714 61.0069C267.714 61.2938 267.826 61.5689 268.025 61.7717C268.225 61.9746 268.496 62.0885 268.778 62.0885L279.448 62.0781C280.077 62.0781 280.431 61.7592 280.512 61.1213L280.573 60.6429C280.582 60.5667 280.576 60.4896 280.556 60.416C280.536 60.3425 280.502 60.2741 280.457 60.2149C280.412 60.1557 280.356 60.1069 280.292 60.0715C280.228 60.036 280.158 60.0146 280.087 60.0085L277.057 59.6965C276.744 59.6656 276.453 59.5153 276.242 59.2751C276.03 59.0348 275.913 58.7217 275.912 58.3965C275.898 53.9315 275.885 49.4595 275.871 44.9805C275.871 44.1485 276.131 43.4136 276.651 42.7757C278.658 40.3421 281.556 38.2725 284.383 40.9765C284.521 41.1054 284.692 41.1905 284.876 41.2214C285.06 41.2523 285.249 41.2277 285.42 41.1506C285.59 41.0735 285.735 40.9472 285.837 40.7871C285.939 40.627 285.994 40.4399 285.994 40.2485V36.7125C285.994 36.3104 285.805 36.0677 285.427 35.9845C284.177 35.6795 282.988 35.5963 281.86 35.7349C281.502 35.7835 281.188 35.9325 280.918 36.1821L276.945 39.9261C276.856 40.0106 276.745 40.0667 276.625 40.0876C276.505 40.1084 276.382 40.0932 276.27 40.0436C276.159 39.9941 276.064 39.9124 275.996 39.8085C275.929 39.7046 275.893 39.5829 275.891 39.4581L275.881 36.8893C275.882 36.7017 275.839 36.5167 275.755 36.3498C275.671 36.1829 275.549 36.039 275.4 35.9301C275.25 35.8211 275.076 35.7503 274.894 35.7236C274.712 35.6969 274.526 35.7151 274.351 35.7765C272.487 36.4491 270.639 36.9899 268.808 37.3989C268.491 37.4683 268.227 37.6312 268.018 37.8877C267.714 38.276 267.67 38.7024 267.886 39.1669C267.95 39.3066 268.05 39.4249 268.176 39.5078C268.301 39.5907 268.447 39.6348 268.595 39.6349L270.916 39.5933C271.281 39.5864 271.463 39.7701 271.463 40.1445L271.433 58.8229C271.433 59.3776 271.166 59.6757 270.632 59.7173Z" stroke="#828384" stroke-width="3"/>
<path d="M61.5402 66.4976C61.4706 66.9116 61.3149 67.3046 61.0839 67.6494C60.8529 67.9942 60.5522 68.2825 60.2026 68.4944C49.1573 75.1781 37.7134 82.0074 25.8709 88.9824C25.5939 89.1418 25.479 89.381 25.5263 89.7C25.5419 89.8162 25.5806 89.9279 25.6402 90.0282C25.6998 90.1285 25.7789 90.2154 25.8728 90.2835C25.9667 90.3517 26.0733 90.3996 26.1862 90.4244C26.2992 90.4493 26.416 90.4505 26.5295 90.428C38.8787 87.8973 50.8597 85.5157 62.4725 83.2832C64.4079 82.9192 65.6645 84.6248 64.945 86.5072C64.5599 87.5056 64.31 88.5005 64.1951 89.492C64.1805 89.6182 64.1926 89.7463 64.2306 89.8673C64.2686 89.9884 64.3315 90.0996 64.4152 90.1934C64.4989 90.2872 64.6013 90.3613 64.7155 90.4108C64.8297 90.4602 64.9529 90.4838 65.0767 90.48C65.5361 90.473 65.9448 90.2962 66.3029 89.9496C73.0246 83.4114 79.7059 76.9218 86.3466 70.4808C88.907 67.9986 88.6908 65.8077 85.6981 63.908L51.7109 42.3176C51.478 42.1708 51.2111 42.0908 50.9379 42.0857C50.6648 42.0806 50.3952 42.1507 50.1574 42.2887C49.9195 42.4267 49.722 42.6275 49.5853 42.8704C49.4486 43.1132 49.3778 43.3891 49.3802 43.6696L49.5119 54.756C49.5185 55.2089 49.6351 55.6526 49.851 56.0468C50.0669 56.441 50.3754 56.7731 50.7482 57.0128C53.7747 58.961 56.916 60.9474 60.1722 62.972C61.4389 63.752 61.7733 65.0728 61.5402 66.4976Z" stroke="#FFE982" stroke-width="3"/>
<path d="M136.557 48.5364C136.559 48.2837 136.513 48.0331 136.42 47.7988C136.328 47.5646 136.192 47.3512 136.019 47.171C135.847 46.9908 135.641 46.8472 135.415 46.7485C135.188 46.6498 134.945 46.5978 134.698 46.5956L130.139 46.5548C129.893 46.5526 129.648 46.6001 129.42 46.6948C129.192 46.7894 128.984 46.9293 128.808 47.1064C128.633 47.2835 128.493 47.4943 128.397 47.7269C128.3 47.9595 128.25 48.2093 128.248 48.4619L128.208 53.1209C128.206 53.3736 128.252 53.6242 128.345 53.8585C128.437 54.0927 128.573 54.306 128.746 54.4863C128.918 54.6665 129.124 54.81 129.35 54.9088C129.577 55.0075 129.82 55.0594 130.066 55.0616L134.626 55.1025C134.872 55.1047 135.117 55.0572 135.345 54.9625C135.573 54.8679 135.781 54.728 135.956 54.5509C136.132 54.3738 136.272 54.1629 136.368 53.9304C136.464 53.6978 136.515 53.448 136.517 53.1954L136.557 48.5364Z" stroke="#F7AB9E" stroke-width="3"/>
<path d="M294.879 48.2294C294.879 48.0108 294.838 47.7943 294.757 47.5921C294.677 47.39 294.558 47.2061 294.408 47.051C294.258 46.896 294.079 46.7728 293.883 46.6884C293.687 46.6041 293.476 46.5603 293.263 46.5595L288.5 46.5425C288.07 46.541 287.657 46.7148 287.352 47.0258C287.047 47.3367 286.875 47.7594 286.873 48.2007L286.856 53.4007C286.855 53.6192 286.896 53.8357 286.977 54.0379C287.058 54.2401 287.176 54.4239 287.326 54.579C287.476 54.7341 287.655 54.8573 287.851 54.9416C288.048 55.0259 288.258 55.0697 288.471 55.0705L293.234 55.0875C293.664 55.0891 294.077 54.9152 294.382 54.6043C294.687 54.2933 294.859 53.8707 294.861 53.4294L294.879 48.2294Z" stroke="#B3DCA2" stroke-width="3"/>
<path d="M219.398 53.7591C221.945 59.3682 226.063 60.6196 231.751 57.5135C231.901 57.4321 232.027 57.3105 232.114 57.162C232.202 57.0136 232.248 56.8438 232.247 56.6711V39.7919C232.247 39.1055 231.926 38.6791 231.285 38.5127C225.779 37.1191 221.992 38.5994 219.925 42.9535C218.067 46.857 217.892 50.4588 219.398 53.7591Z" stroke="#828384" stroke-width="3"/>
<path d="M106.665 45.5956L117.569 45.4708C117.712 45.4681 117.849 45.4077 117.949 45.3027C118.05 45.1977 118.106 45.0564 118.106 44.9092V44.4308C118.098 43.6024 117.935 42.7838 117.628 42.0217C117.32 41.2596 116.874 40.569 116.314 39.9895C115.754 39.4099 115.091 38.9527 114.364 38.6441C113.637 38.3355 112.86 38.1815 112.077 38.1908H111.996C110.417 38.2096 108.91 38.8904 107.806 40.0838C106.702 41.2772 106.091 42.8856 106.108 44.5556V45.034C106.108 45.1087 106.123 45.1826 106.151 45.2514C106.179 45.3202 106.22 45.3826 106.272 45.4349C106.324 45.4872 106.385 45.5283 106.453 45.5559C106.521 45.5835 106.593 45.597 106.665 45.5956Z" stroke="#828384" stroke-width="3"/>
<path d="M164.424 45.6062L175.165 45.4606C175.243 45.4592 175.319 45.4423 175.39 45.4107C175.46 45.3791 175.524 45.3335 175.578 45.2766C175.632 45.2196 175.674 45.1523 175.702 45.0786C175.73 45.0049 175.744 44.9262 175.743 44.847V44.7014C175.731 43.8355 175.573 42.9803 175.279 42.1845C174.985 41.3887 174.56 40.6679 174.028 40.0634C173.497 39.4588 172.869 38.9823 172.181 38.661C171.493 38.3398 170.758 38.18 170.018 38.191H169.369C168.629 38.2017 167.899 38.3829 167.22 38.7243C166.541 39.0657 165.926 39.5605 165.412 40.1806C164.897 40.8006 164.492 41.5337 164.22 42.3379C163.948 43.1421 163.814 44.0018 163.826 44.8678V45.0134C163.828 45.0926 163.844 45.1707 163.875 45.2434C163.906 45.3161 163.95 45.3818 164.005 45.4369C164.061 45.4919 164.127 45.5352 164.198 45.5642C164.27 45.5933 164.347 45.6075 164.424 45.6062Z" stroke="#828384" stroke-width="3"/>
<path d="M248.236 45.6039L259.079 45.4479C259.233 45.4452 259.38 45.3805 259.488 45.2676C259.596 45.1548 259.657 45.0029 259.657 44.8447L259.647 44.3143C259.636 43.5018 259.471 42.6993 259.16 41.9527C258.849 41.2061 258.399 40.5301 257.835 39.9632C257.272 39.3963 256.605 38.9496 255.875 38.6488C255.144 38.3479 254.363 38.1986 253.577 38.2095H253.536C252.75 38.2203 251.973 38.3911 251.25 38.7121C250.528 39.0331 249.873 39.4981 249.325 40.0804C248.776 40.6628 248.344 41.3511 248.053 42.1061C247.762 42.8612 247.618 43.6681 247.628 44.4807L247.639 45.0111C247.64 45.0904 247.656 45.1685 247.687 45.2412C247.718 45.3139 247.762 45.3796 247.818 45.4346C247.873 45.4897 247.939 45.533 248.011 45.562C248.083 45.5911 248.159 45.6053 248.236 45.6039Z" stroke="#828384" stroke-width="3"/>
<path d="M0 0H304V104H0V0ZM47.2315 40.8408C48.5623 38.8787 50.1803 38.4939 52.0853 39.6864C62.1241 45.9888 72.352 52.5027 82.7691 59.228C83.1541 59.4776 83.5223 59.4568 83.8736 59.1656C83.9478 59.1027 84.0094 59.0256 84.0547 58.9386C84.1 58.8517 84.1282 58.7566 84.1376 58.659C84.147 58.5613 84.1375 58.463 84.1096 58.3697C84.0817 58.2764 84.0359 58.1899 83.9749 58.1152C75.9561 48.0549 67.6704 37.6133 59.1179 26.7904C57.4763 24.7208 58.8139 22.6512 61.1243 22.5264C62.0971 22.4779 62.982 22.2317 63.7792 21.788C63.965 21.6857 64.1168 21.5295 64.2159 21.3387C64.3149 21.148 64.3568 20.9311 64.3363 20.715C64.3157 20.4989 64.2337 20.2932 64.1005 20.1234C63.9672 19.9536 63.7885 19.8273 63.5867 19.76L35.8213 10.8056C35.3279 10.6461 34.8046 10.6089 34.2944 10.6972C33.7842 10.7854 33.3017 10.9965 32.8864 11.3131C32.471 11.6297 32.1348 12.0429 31.9051 12.5187C31.6755 12.9945 31.5591 13.5195 31.5653 14.0504C31.7748 30.7667 32.0281 46.9491 32.3253 62.5976C32.3388 63.2355 32.6226 63.6896 33.1765 63.96C33.4116 64.0727 33.6695 64.1258 33.9287 64.1149C34.1879 64.1041 34.4408 64.0295 34.6661 63.8976L46.2688 56.9608C46.816 56.6349 47.093 56.1496 47.0997 55.5048C47.1605 51.1368 47.0828 46.7064 46.8667 42.2136C46.8396 41.6936 46.9612 41.236 47.2315 40.8408ZM20.1147 45.3544L15.7776 59.8104C15.6673 60.18 15.4588 60.5107 15.1755 60.7654C14.8922 61.0201 14.5454 61.1888 14.174 61.2526C13.8025 61.3163 13.4211 61.2725 13.0725 61.1261C12.7239 60.9798 12.422 60.7367 12.2005 60.424C11.7276 59.7584 11.194 59.2107 10.5995 58.7808C8.5728 57.2971 7.87022 57.7928 8.49173 60.268L10.6704 68.9624L15.3621 88.1608C15.4837 88.6392 15.7877 88.8784 16.2741 88.8784C17.2537 88.8784 18.2839 88.9096 19.3648 88.972C20.3714 89.0275 21.4894 88.6912 22.7189 87.9632C33.1225 81.8064 43.5564 75.5941 54.0208 69.3264C55.2773 68.5637 56.5812 67.7733 57.9323 66.9552C58.8375 66.4075 58.9186 65.6552 58.1755 64.6984C58.0616 64.5539 57.9277 64.4341 57.7803 64.3448L50.0789 59.5504C49.5861 59.2421 49.0209 59.0764 48.4429 59.0709C47.865 59.0654 47.2959 59.2203 46.7957 59.5192L34.8384 66.6536C34.3432 66.9496 33.7811 67.1073 33.208 67.1112C32.635 67.1151 32.0709 66.965 31.5719 66.6758C31.0729 66.3866 30.6563 65.9684 30.3636 65.4628C30.0709 64.9571 29.9123 64.3817 29.9035 63.7936L29.64 46.1968C29.5522 37.6133 29.3191 28.7179 28.9408 19.5104C28.9273 19.1429 28.7179 18.9592 28.3125 18.9592C28.1915 18.9599 28.0741 18.9997 27.9775 19.0727C27.8809 19.1457 27.8101 19.248 27.7755 19.3648L20.1147 45.3544ZM232.124 60.3096L232.256 61.3392C232.317 61.8176 232.58 62.0568 233.046 62.0568L238.883 62.1088C239.187 62.1088 239.437 61.9909 239.633 61.7552C239.863 61.4709 239.964 61.1312 239.937 60.736C239.925 60.5089 239.834 60.294 239.679 60.1313C239.524 59.9687 239.317 59.8694 239.096 59.852L237.495 59.748C237.222 59.727 236.966 59.6005 236.78 59.3941C236.594 59.1876 236.491 58.9165 236.492 58.6352L236.502 23.4832C236.502 23.3062 236.462 23.1316 236.386 22.973C236.309 22.8144 236.198 22.6763 236.062 22.5694C235.925 22.4626 235.767 22.3899 235.599 22.3572C235.431 22.3245 235.258 22.3325 235.093 22.3808L228.953 24.1592C228.392 24.3187 228.128 24.6965 228.162 25.2928L228.182 25.584C228.209 26.0208 228.436 26.2392 228.861 26.2392L231.516 26.2496C232.016 26.2496 232.263 26.5027 232.256 27.0088L232.246 35.3288C232.246 35.7101 232.063 35.8869 231.699 35.8592C230.8 35.8107 229.898 35.7552 228.993 35.6928C221.886 35.2491 217.218 38.1091 214.989 44.2728C213.57 48.2248 213.678 52.26 215.313 56.3784C217.593 62.14 223.886 64.064 229.216 61.1936C229.939 60.8053 230.655 60.3859 231.364 59.9352C231.803 59.6579 232.057 59.7827 232.124 60.3096ZM148.98 39.4992L154.989 39.5096C155.638 39.5096 156.023 39.1837 156.145 38.532L156.256 37.908C156.378 37.2701 156.121 36.9512 155.486 36.9512L148.99 36.92C148.504 36.92 148.261 36.6704 148.261 36.1712V31.9696C148.254 31.5744 148.065 31.3317 147.693 31.2416C146.741 31.0059 146.082 31.3491 145.717 32.2712C145.271 33.4083 144.772 34.5488 144.218 35.6928C144.055 36.0395 143.806 36.3064 143.468 36.4936C142.914 36.7987 142.316 37.0275 141.674 37.18C141.235 37.284 140.911 37.5301 140.701 37.9184C140.512 38.2651 140.505 38.6083 140.681 38.948C140.863 39.3085 141.151 39.4923 141.542 39.4992L143.194 39.5304C143.402 39.5359 143.599 39.6251 143.744 39.7789C143.888 39.9327 143.967 40.1386 143.964 40.352C143.903 46.0651 143.883 51.7677 143.903 57.46C143.934 64.0432 151.666 62.4208 155.526 61.2144C156.161 61.0133 156.388 60.5835 156.205 59.9248L156.124 59.6648C156.096 59.5644 156.049 59.4708 155.985 59.3895C155.922 59.3081 155.843 59.2407 155.755 59.1913C155.666 59.1418 155.568 59.1113 155.468 59.1015C155.368 59.0917 155.267 59.1029 155.172 59.1344C152.689 59.9352 149.122 59.6752 148.423 56.6592C148.382 56.5067 148.332 55.1373 148.271 52.5512C148.176 48.6547 148.22 44.4947 148.403 40.0712C148.416 39.6899 148.609 39.4992 148.98 39.4992ZM106.37 47.84L121.823 47.8192C121.993 47.8194 122.158 47.7516 122.282 47.6298C122.406 47.508 122.481 47.3414 122.492 47.164C122.728 43.1843 121.671 40.0885 119.32 37.8768C115.206 33.9976 108.113 35.412 104.546 39.364C98.7493 45.7808 99.8133 57.9176 108.417 61.6928C112.612 63.5336 117.82 62.1712 121.701 59.9144C122.553 59.4152 122.816 58.6941 122.492 57.7512L122.37 57.3872C122.334 57.2847 122.277 57.1917 122.202 57.1152C122.126 57.0387 122.036 56.9807 121.936 56.9456C121.836 56.9106 121.731 56.8993 121.627 56.9128C121.523 56.9262 121.424 56.964 121.337 57.0232C116.391 60.32 110.2 60.8816 106.927 54.86C105.887 52.9464 105.447 50.8491 105.61 48.568C105.643 48.0827 105.897 47.84 106.37 47.84ZM163.967 47.8504L179.35 47.8192C179.611 47.8164 179.859 47.7086 180.042 47.5194C180.224 47.3302 180.325 47.0752 180.323 46.8104C180.292 40.7472 177.293 35.5888 170.747 35.6512C160.188 35.7448 155.395 48.6928 160.684 57.0544C165.133 64.0848 172.834 63.5232 179.289 59.9768C180.019 59.5816 180.367 58.9611 180.333 58.1152C180.319 57.9072 180.275 57.7061 180.201 57.512C179.917 56.8325 179.471 56.6904 178.863 57.0856C173.452 60.6008 166.744 60.6944 164.109 53.7368C163.501 52.1421 163.207 50.4296 163.228 48.5992C163.23 48.3997 163.31 48.2092 163.448 48.0691C163.586 47.9289 163.773 47.8504 163.967 47.8504ZM192.158 37.6376C192.354 36.7709 192.118 36.2128 191.449 35.9632C190.814 35.7275 190.128 35.7656 189.392 36.0776C187.953 36.6947 186.551 37.1003 185.187 37.2944C184.346 37.4192 183.809 38.2928 184.153 39.1248C184.308 39.4853 184.575 39.6587 184.954 39.6448L187.234 39.5824C187.296 39.5796 187.359 39.5899 187.418 39.6127C187.477 39.6354 187.531 39.6702 187.576 39.7149C187.622 39.7597 187.658 39.8133 187.683 39.8728C187.707 39.9322 187.72 39.9962 187.72 40.0608V58.7704C187.719 58.9861 187.641 59.194 187.501 59.3549C187.361 59.5158 187.169 59.6186 186.96 59.644L184.832 59.8936C184.231 59.9699 183.944 60.32 183.971 60.944L183.991 61.2664C184.018 61.828 184.305 62.1088 184.852 62.1088L194.57 62.0672C195.138 62.0603 195.458 61.7725 195.533 61.204C195.594 60.7811 195.472 60.3963 195.168 60.0496C195.051 59.9139 194.902 59.8126 194.734 59.7559C194.567 59.6992 194.388 59.6893 194.215 59.7272C192.743 60.0323 192.017 59.4395 192.037 57.9488C192.111 52.8944 192.125 47.5939 192.077 42.0472C192.071 41.1667 192.469 40.5704 193.273 40.2584C196.749 38.8856 202.981 37.9912 203.102 43.6176C203.204 48.1797 203.217 53.2515 203.143 58.8328C203.136 59.3667 202.873 59.6579 202.353 59.7064L200.589 59.8728C200.137 59.9144 199.89 60.1675 199.85 60.632L199.809 61.0896C199.755 61.7483 200.049 62.0776 200.691 62.0776L210.297 62.088C210.966 62.088 211.294 61.7448 211.28 61.0584L211.27 60.5072C211.263 60.3437 211.2 60.1883 211.092 60.0697C210.984 59.9511 210.838 59.8775 210.682 59.8624L208.443 59.6752C208.22 59.6575 208.011 59.5555 207.856 59.3888C207.701 59.222 207.611 59.002 207.602 58.7704C207.48 54.8323 207.48 50.7173 207.602 46.4256C207.774 40.3208 206.416 34.6008 198.948 35.8384C196.82 36.1816 194.874 37.44 192.908 38.2928C192.813 38.3321 192.709 38.3439 192.607 38.3272C192.506 38.3104 192.411 38.2656 192.333 38.1977C192.255 38.1299 192.198 38.0416 192.167 37.9428C192.136 37.8439 192.133 37.7383 192.158 37.6376ZM248.196 47.84L263.598 47.8088C263.687 47.8091 263.773 47.7751 263.839 47.7134C263.905 47.6518 263.945 47.567 263.953 47.476C264.379 42.9693 263.109 39.5824 260.143 37.3152C256.566 34.5696 250.922 35.3704 247.588 37.9808C242.653 41.8288 241.335 49.4312 243.484 54.8184C247.081 63.8664 255.968 64.0432 263.305 59.8728C263.818 59.5816 264.061 59.1344 264.034 58.5312L263.994 57.5224C263.96 56.7875 263.636 56.6072 263.021 56.9816C255.299 61.6824 248.155 59.7272 246.919 49.3272C246.797 48.3357 247.223 47.84 248.196 47.84ZM270.631 59.7168L268.665 59.852C268.219 59.8867 267.925 60.1224 267.783 60.5592C267.743 60.7048 267.719 60.8539 267.713 61.0064C267.713 61.2933 267.825 61.5684 268.024 61.7712C268.224 61.974 268.494 62.088 268.777 62.088L279.447 62.0776C280.075 62.0776 280.43 61.7587 280.511 61.1208L280.572 60.6424C280.58 60.5662 280.575 60.489 280.555 60.4155C280.535 60.342 280.501 60.2736 280.456 60.2144C280.41 60.1552 280.354 60.1064 280.291 60.071C280.227 60.0355 280.157 60.0141 280.085 60.008L277.055 59.696C276.743 59.665 276.452 59.5148 276.24 59.2746C276.029 59.0343 275.911 58.7212 275.91 58.396C275.897 53.9309 275.883 49.4589 275.87 44.98C275.87 44.148 276.13 43.4131 276.65 42.7752C278.657 40.3416 281.555 38.272 284.382 40.976C284.52 41.1049 284.691 41.19 284.875 41.2209C285.059 41.2518 285.248 41.2272 285.418 41.1501C285.589 41.073 285.734 40.9467 285.836 40.7866C285.938 40.6264 285.993 40.4393 285.993 40.248V36.712C285.993 36.3099 285.804 36.0672 285.426 35.984C284.176 35.6789 282.987 35.5957 281.859 35.7344C281.501 35.7829 281.186 35.932 280.916 36.1816L276.944 39.9256C276.855 40.0101 276.743 40.0662 276.623 40.087C276.504 40.1079 276.38 40.0926 276.269 40.0431C276.157 39.9936 276.062 39.9119 275.995 39.808C275.928 39.704 275.891 39.5823 275.89 39.4576L275.88 36.8888C275.881 36.7012 275.838 36.5162 275.754 36.3493C275.67 36.1824 275.548 36.0385 275.398 35.9295C275.249 35.8206 275.075 35.7498 274.893 35.7231C274.71 35.6964 274.524 35.7145 274.35 35.776C272.485 36.4485 270.638 36.9893 268.807 37.3984C268.489 37.4677 268.226 37.6307 268.017 37.8872C267.713 38.2755 267.669 38.7019 267.885 39.1664C267.948 39.3061 268.049 39.4244 268.174 39.5073C268.3 39.5902 268.446 39.6343 268.594 39.6344L270.915 39.5928C271.279 39.5859 271.462 39.7696 271.462 40.144L271.431 58.8224C271.431 59.3771 271.165 59.6752 270.631 59.7168ZM61.5397 66.4976C61.4701 66.9116 61.3144 67.3046 61.0834 67.6494C60.8524 67.9942 60.5517 68.2825 60.2021 68.4944C49.1568 75.1781 37.7129 82.0075 25.8704 88.9824C25.5934 89.1419 25.4786 89.3811 25.5259 89.7C25.5414 89.8162 25.5802 89.9279 25.6397 90.0282C25.6993 90.1286 25.7784 90.2155 25.8723 90.2836C25.9662 90.3517 26.0728 90.3997 26.1858 90.4245C26.2987 90.4493 26.4155 90.4505 26.5291 90.428C38.8782 87.8973 50.8592 85.5157 62.472 83.2832C64.4075 82.9192 65.664 84.6248 64.9445 86.5072C64.5595 87.5056 64.3095 88.5005 64.1947 89.492C64.18 89.6183 64.1921 89.7463 64.2301 89.8674C64.2681 89.9884 64.3311 90.0996 64.4148 90.1934C64.4984 90.2872 64.6009 90.3614 64.715 90.4108C64.8292 90.4603 64.9524 90.4839 65.0763 90.48C65.5356 90.4731 65.9444 90.2963 66.3024 89.9496C73.0242 83.4115 79.7054 76.9219 86.3461 70.4808C88.9065 67.9987 88.6903 65.8077 85.6976 63.908L51.7104 42.3176C51.4776 42.1709 51.2107 42.0908 50.9375 42.0858C50.6643 42.0807 50.3948 42.1508 50.1569 42.2888C49.919 42.4267 49.7215 42.6276 49.5848 42.8704C49.4482 43.1132 49.3773 43.3892 49.3797 43.6696L49.5115 54.756C49.518 55.2089 49.6346 55.6527 49.8505 56.0469C50.0665 56.4411 50.3749 56.7731 50.7477 57.0128C53.7742 58.9611 56.9156 60.9475 60.1717 62.972C61.4384 63.752 61.7728 65.0728 61.5397 66.4976ZM136.556 48.5325C136.558 48.2799 136.512 48.0293 136.42 47.795C136.328 47.5607 136.191 47.3474 136.019 47.1672C135.846 46.987 135.641 46.8434 135.414 46.7447C135.187 46.6459 134.944 46.594 134.698 46.5918L130.138 46.5509C129.892 46.5487 129.648 46.5963 129.42 46.6909C129.191 46.7856 128.983 46.9255 128.808 47.1025C128.632 47.2796 128.492 47.4905 128.396 47.7231C128.3 47.9557 128.249 48.2054 128.247 48.4581L128.208 53.1171C128.205 53.3697 128.252 53.6203 128.344 53.8546C128.436 54.0889 128.572 54.3022 128.745 54.4824C128.918 54.6626 129.123 54.8062 129.35 54.9049C129.576 55.0037 129.82 55.0556 130.066 55.0578L134.626 55.0987C134.872 55.1009 135.116 55.0533 135.344 54.9587C135.572 54.864 135.78 54.7241 135.956 54.5471C136.132 54.37 136.271 54.1591 136.368 53.9265C136.464 53.6939 136.514 53.4442 136.517 53.1915L136.556 48.5325ZM294.879 48.2287C294.879 48.0102 294.838 47.7937 294.757 47.5915C294.677 47.3893 294.558 47.2055 294.408 47.0504C294.258 46.8954 294.079 46.7721 293.883 46.6878C293.687 46.6035 293.476 46.5597 293.263 46.5589L288.5 46.5419C288.07 46.5404 287.657 46.7142 287.352 47.0252C287.047 47.3361 286.875 47.7587 286.873 48.2L286.856 53.4C286.855 53.6186 286.896 53.8351 286.977 54.0373C287.058 54.2395 287.177 54.4233 287.327 54.5784C287.477 54.7334 287.655 54.8566 287.851 54.941C288.048 55.0253 288.258 55.0691 288.471 55.0699L293.234 55.0869C293.664 55.0884 294.077 54.9146 294.382 54.6036C294.687 54.2927 294.859 53.8701 294.861 53.4287L294.879 48.2287Z" fill="white"/>
<path d="M47.2306 40.8427C46.9604 41.2379 46.8388 41.6955 46.8658 42.2155C47.082 46.7083 47.1596 51.1387 47.0988 55.5067C47.0921 56.1515 46.8151 56.6368 46.2679 56.9627L34.6652 63.8995C34.4399 64.0314 34.1871 64.106 33.9279 64.1168C33.6686 64.1277 33.4107 64.0745 33.1757 63.9619C32.6217 63.6915 32.338 63.2373 32.3244 62.5995C32.0272 46.9509 31.7739 30.7685 31.5644 14.0523C31.5582 13.5213 31.6746 12.9964 31.9043 12.5206C32.1339 12.0448 32.4702 11.6316 32.8855 11.315C33.3008 10.9983 33.7833 10.7872 34.2935 10.699C34.8037 10.6108 35.327 10.648 35.8204 10.8075L63.5858 19.7619C63.7877 19.8291 63.9663 19.9555 64.0996 20.1253C64.2329 20.2951 64.3148 20.5008 64.3354 20.7169C64.3559 20.933 64.314 21.1499 64.215 21.3406C64.1159 21.5314 63.9641 21.6876 63.7783 21.7899C62.9812 22.2336 62.0962 22.4797 61.1234 22.5283C58.813 22.6531 57.4754 24.7227 59.117 26.7923C67.6695 37.6152 75.9552 48.0568 83.974 58.1171C84.035 58.1918 84.0808 58.2782 84.1087 58.3716C84.1366 58.4649 84.1462 58.5632 84.1367 58.6609C84.1273 58.7585 84.0991 58.8535 84.0538 58.9405C84.0085 59.0274 83.947 59.1046 83.8727 59.1675C83.5214 59.4587 83.1532 59.4795 82.7682 59.2299C72.3511 52.5045 62.1232 45.9907 52.0844 39.6883C50.1794 38.4957 48.5614 38.8805 47.2306 40.8427Z" fill="#66B945"/>
<path d="M29.6398 46.1971L20.1145 45.3547L27.7753 19.3651C27.8099 19.2483 27.8807 19.1459 27.9774 19.073C28.074 19 28.1914 18.9602 28.3124 18.9595C28.7177 18.9595 28.9271 19.1432 28.9406 19.5107C29.3189 28.7181 29.552 37.6136 29.6398 46.1971Z" fill="#E9383B"/>
<path d="M231.363 59.9351C230.654 60.3858 229.938 60.8053 229.215 61.1935C223.885 64.0639 217.592 62.1399 215.312 56.3783C213.677 52.2599 213.569 48.2247 214.988 44.2727C217.217 38.109 221.885 35.249 228.992 35.6927C229.897 35.7551 230.799 35.8106 231.698 35.8591C232.063 35.8869 232.245 35.7101 232.245 35.3287L232.255 27.0087C232.262 26.5026 232.015 26.2495 231.515 26.2495L228.86 26.2391C228.435 26.2391 228.209 26.0207 228.182 25.5839L228.161 25.2927C228.127 24.6965 228.391 24.3186 228.952 24.1591L235.092 22.3807C235.257 22.3325 235.43 22.3244 235.598 22.3571C235.766 22.3899 235.925 22.4625 236.061 22.5694C236.198 22.6762 236.308 22.8144 236.385 22.9729C236.461 23.1315 236.501 23.3061 236.501 23.4831L236.491 58.6351C236.49 58.9164 236.593 59.1875 236.779 59.394C236.965 59.6004 237.221 59.7269 237.494 59.7479L239.095 59.8519C239.316 59.8693 239.523 59.9686 239.678 60.1313C239.833 60.294 239.925 60.5089 239.936 60.7359C239.963 61.1311 239.862 61.4709 239.632 61.7551C239.436 61.9909 239.186 62.1087 238.882 62.1087L233.046 62.0567C232.579 62.0567 232.316 61.8175 232.255 61.3391L232.123 60.3095C232.056 59.7826 231.803 59.6578 231.363 59.9351ZM219.396 53.7575C221.943 59.3666 226.06 60.6181 231.748 57.5119C231.899 57.4305 232.024 57.309 232.112 57.1605C232.199 57.012 232.245 56.8422 232.245 56.6695V39.7903C232.245 39.1039 231.924 38.6775 231.282 38.5111C225.777 37.1175 221.99 38.5978 219.923 42.9519C218.065 46.8554 217.889 50.4573 219.396 53.7575Z" fill="#050708"/>
<path d="M148.405 40.0725C148.222 44.496 148.179 48.656 148.273 52.5525C148.334 55.1386 148.385 56.508 148.425 56.6605C149.124 59.6765 152.691 59.9365 155.174 59.1357C155.27 59.1042 155.37 59.093 155.47 59.1028C155.571 59.1126 155.668 59.1431 155.757 59.1926C155.846 59.242 155.924 59.3094 155.988 59.3908C156.051 59.4721 156.098 59.5657 156.126 59.6661L156.208 59.9261C156.39 60.5848 156.164 61.0146 155.529 61.2157C151.668 62.4221 143.936 64.0445 143.906 57.4613C143.885 51.769 143.906 46.0664 143.966 40.3533C143.969 40.1399 143.89 39.934 143.746 39.7802C143.602 39.6264 143.404 39.5371 143.196 39.5317L141.545 39.5005C141.153 39.4936 140.866 39.3098 140.683 38.9493C140.508 38.6096 140.514 38.2664 140.704 37.9197C140.913 37.5314 141.237 37.2853 141.676 37.1813C142.318 37.0288 142.916 36.8 143.47 36.4949C143.808 36.3077 144.058 36.0408 144.22 35.6941C144.774 34.5501 145.274 33.4096 145.72 32.2725C146.084 31.3504 146.743 31.0072 147.696 31.2429C148.067 31.333 148.256 31.5757 148.263 31.9709V36.1725C148.263 36.6717 148.506 36.9213 148.993 36.9213L155.488 36.9525C156.123 36.9525 156.38 37.2714 156.258 37.9093L156.147 38.5333C156.025 39.185 155.64 39.5109 154.992 39.5109L148.982 39.5005C148.611 39.5005 148.418 39.6912 148.405 40.0725Z" fill="#050708"/>
<path d="M105.61 48.5689C105.448 50.85 105.887 52.9473 106.928 54.8609C110.201 60.8825 116.392 60.3209 121.337 57.0241C121.424 56.9649 121.524 56.9271 121.627 56.9137C121.731 56.9003 121.837 56.9115 121.937 56.9466C122.036 56.9817 122.127 57.0396 122.202 57.1161C122.277 57.1926 122.335 57.2857 122.371 57.3881L122.492 57.7521C122.817 58.6951 122.553 59.4161 121.702 59.9153C117.821 62.1721 112.612 63.5345 108.417 61.6937C99.8139 57.9185 98.7499 45.7817 104.546 39.3649C108.113 35.4129 115.206 33.9985 119.321 37.8777C121.672 40.0895 122.729 43.1852 122.492 47.1649C122.482 47.3423 122.407 47.509 122.283 47.6308C122.158 47.7525 121.994 47.8203 121.824 47.8201L106.37 47.8409C105.897 47.8409 105.644 48.0836 105.61 48.5689ZM106.664 45.5945L117.568 45.4697C117.711 45.467 117.847 45.4066 117.948 45.3016C118.048 45.1966 118.105 45.0553 118.105 44.9081V44.4297C118.096 43.6013 117.934 42.7827 117.626 42.0206C117.319 41.2585 116.872 40.5679 116.312 39.9884C115.752 39.4088 115.09 38.9516 114.363 38.643C113.636 38.3344 112.858 38.1804 112.075 38.1897H111.994C110.415 38.2085 108.908 38.8893 107.805 40.0827C106.701 41.2761 106.09 42.8845 106.107 44.5545V45.0329C106.107 45.1076 106.121 45.1815 106.149 45.2503C106.177 45.3191 106.219 45.3815 106.271 45.4338C106.322 45.4861 106.384 45.5272 106.452 45.5548C106.519 45.5824 106.591 45.5959 106.664 45.5945Z" fill="#050708"/>
<path d="M163.228 48.5999C163.208 50.4303 163.502 52.1429 164.11 53.7375C166.744 60.6951 173.453 60.6015 178.864 57.0863C179.472 56.6911 179.918 56.8333 180.201 57.5127C180.276 57.7069 180.32 57.9079 180.333 58.1159C180.367 58.9618 180.019 59.5823 179.289 59.9775C172.834 63.5239 165.133 64.0855 160.685 57.0551C155.395 48.6935 160.188 35.7455 170.747 35.6519C177.293 35.5895 180.293 40.7479 180.323 46.8111C180.326 47.0759 180.225 47.3309 180.042 47.5201C179.86 47.7093 179.611 47.8172 179.35 47.8199L163.968 47.8511C163.773 47.8511 163.587 47.9297 163.448 48.0698C163.31 48.2099 163.231 48.4004 163.228 48.5999ZM164.424 45.6047L175.165 45.4591C175.242 45.4578 175.318 45.4408 175.389 45.4093C175.46 45.3777 175.524 45.3321 175.578 45.2751C175.631 45.2181 175.674 45.1509 175.702 45.0772C175.73 45.0035 175.744 44.9247 175.743 44.8455V44.6999C175.731 43.8341 175.573 42.9788 175.279 42.1831C174.985 41.3873 174.56 40.6665 174.028 40.062C173.496 39.4574 172.868 38.9809 172.18 38.6596C171.492 38.3383 170.757 38.1786 170.017 38.1895H169.369C168.629 38.2003 167.898 38.3815 167.219 38.7229C166.54 39.0643 165.926 39.5591 165.411 40.1791C164.896 40.7992 164.492 41.5322 164.22 42.3365C163.948 43.1407 163.814 44.0004 163.826 44.8663V45.0119C163.827 45.0911 163.844 45.1693 163.874 45.242C163.905 45.3147 163.95 45.3804 164.005 45.4354C164.061 45.4905 164.126 45.5338 164.198 45.5628C164.27 45.5919 164.347 45.6061 164.424 45.6047Z" fill="#050708"/>
<path d="M192.908 38.2939C194.874 37.4411 196.82 36.1827 198.948 35.8395C206.416 34.6019 207.774 40.3219 207.601 46.4267C207.48 50.7184 207.48 54.8333 207.601 58.7715C207.61 59.0031 207.701 59.2231 207.856 59.3899C208.011 59.5566 208.22 59.6585 208.442 59.6763L210.682 59.8635C210.838 59.8786 210.984 59.9522 211.092 60.0708C211.2 60.1894 211.263 60.3448 211.27 60.5083L211.28 61.0595C211.293 61.7459 210.966 62.0891 210.297 62.0891L200.69 62.0787C200.049 62.0787 199.755 61.7494 199.809 61.0907L199.849 60.6331C199.89 60.1686 200.137 59.9155 200.589 59.8739L202.352 59.7075C202.873 59.659 203.136 59.3678 203.143 58.8339C203.217 53.2526 203.204 48.1808 203.102 43.6187C202.981 37.9923 196.749 38.8867 193.273 40.2595C192.469 40.5715 192.07 41.1678 192.077 42.0483C192.124 47.595 192.111 52.8955 192.037 57.9499C192.016 59.4406 192.743 60.0334 194.215 59.7283C194.388 59.6904 194.567 59.7003 194.734 59.757C194.902 59.8137 195.051 59.915 195.168 60.0507C195.472 60.3974 195.593 60.7822 195.533 61.2051C195.458 61.7736 195.137 62.0614 194.57 62.0683L184.852 62.1099C184.305 62.1099 184.018 61.8291 183.991 61.2675L183.97 60.9451C183.943 60.3211 184.231 59.971 184.832 59.8947L186.96 59.6451C187.169 59.6197 187.361 59.5169 187.501 59.356C187.641 59.1951 187.719 58.9872 187.72 58.7715V40.0619C187.72 39.9973 187.707 39.9333 187.683 39.8739C187.658 39.8144 187.622 39.7607 187.576 39.716C187.531 39.6713 187.477 39.6365 187.418 39.6138C187.359 39.591 187.296 39.5807 187.233 39.5835L184.953 39.6459C184.575 39.6597 184.308 39.4864 184.153 39.1259C183.808 38.2939 184.345 37.4203 185.186 37.2955C186.551 37.1014 187.953 36.6957 189.392 36.0787C190.128 35.7667 190.814 35.7286 191.449 35.9643C192.118 36.2139 192.354 36.772 192.158 37.6387C192.133 37.7394 192.136 37.845 192.167 37.9439C192.198 38.0427 192.255 38.131 192.333 38.1988C192.411 38.2667 192.505 38.3115 192.607 38.3283C192.708 38.345 192.813 38.3331 192.908 38.2939Z" fill="#050708"/>
<path d="M248.195 47.8387C247.222 47.8387 246.796 48.3344 246.918 49.3259C248.154 59.7259 255.298 61.6811 263.02 56.9803C263.635 56.6059 263.959 56.7861 263.993 57.5211L264.033 58.5299C264.06 59.1331 263.817 59.5803 263.304 59.8715C255.967 64.0419 247.08 63.8651 243.483 54.8171C241.335 49.4299 242.652 41.8275 247.587 37.9795C250.921 35.3691 256.565 34.5683 260.142 37.3139C263.108 39.5811 264.378 42.968 263.952 47.4747C263.945 47.5657 263.904 47.6505 263.838 47.7121C263.772 47.7738 263.687 47.8078 263.597 47.8075L248.195 47.8387ZM248.235 45.6027L259.078 45.4467C259.232 45.4439 259.379 45.3792 259.487 45.2664C259.595 45.1535 259.656 45.0017 259.656 44.8435L259.645 44.3131C259.635 43.5005 259.469 42.698 259.159 41.9514C258.848 41.2048 258.398 40.5288 257.834 39.9619C257.27 39.395 256.604 38.9484 255.874 38.6475C255.143 38.3466 254.362 38.1974 253.576 38.2083H253.535C252.749 38.219 251.972 38.3898 251.249 38.7108C250.527 39.0318 249.872 39.4968 249.324 40.0792C248.775 40.6615 248.343 41.3499 248.052 42.1049C247.761 42.8599 247.617 43.6668 247.627 44.4795L247.637 45.0099C247.639 45.0891 247.655 45.1673 247.686 45.2399C247.717 45.3126 247.761 45.3783 247.817 45.4334C247.872 45.4884 247.938 45.5317 248.01 45.5608C248.081 45.5898 248.158 45.604 248.235 45.6027Z" fill="#050708"/>
<path d="M271.43 58.8224L271.461 40.144C271.461 39.7696 271.278 39.5859 270.913 39.5928L268.593 39.6344C268.444 39.6343 268.299 39.5902 268.173 39.5073C268.048 39.4244 267.947 39.3062 267.884 39.1664C267.667 38.7019 267.711 38.2755 268.015 37.8872C268.225 37.6307 268.488 37.4678 268.806 37.3984C270.636 36.9894 272.484 36.4486 274.349 35.776C274.523 35.7146 274.709 35.6964 274.892 35.7231C275.074 35.7499 275.247 35.8206 275.397 35.9296C275.547 36.0385 275.669 36.1824 275.753 36.3493C275.836 36.5162 275.88 36.7012 275.879 36.8888L275.889 39.4576C275.89 39.5824 275.926 39.7041 275.994 39.808C276.061 39.9119 276.156 39.9936 276.268 40.0431C276.379 40.0927 276.502 40.1079 276.622 40.0871C276.742 40.0662 276.853 40.0101 276.943 39.9256L280.915 36.1816C281.185 35.932 281.499 35.783 281.857 35.7344C282.986 35.5958 284.175 35.679 285.424 35.984C285.803 36.0672 285.992 36.3099 285.992 36.712V40.248C285.991 40.4394 285.937 40.6265 285.835 40.7866C285.733 40.9467 285.588 41.073 285.417 41.1501C285.246 41.2272 285.058 41.2518 284.874 41.2209C284.69 41.19 284.518 41.1049 284.381 40.976C281.553 38.272 278.655 40.3416 276.649 42.7752C276.129 43.4131 275.869 44.148 275.869 44.98C275.882 49.459 275.896 53.931 275.909 58.396C275.91 58.7212 276.028 59.0343 276.239 59.2746C276.451 59.5149 276.741 59.6651 277.054 59.696L280.084 60.008C280.156 60.0141 280.226 60.0355 280.289 60.071C280.353 60.1065 280.409 60.1552 280.455 60.2144C280.5 60.2736 280.534 60.342 280.553 60.4155C280.573 60.4891 280.579 60.5662 280.571 60.6424L280.51 61.1208C280.429 61.7587 280.074 62.0776 279.446 62.0776L268.775 62.088C268.493 62.088 268.222 61.9741 268.023 61.7712C267.823 61.5684 267.711 61.2933 267.711 61.0064C267.718 60.8539 267.742 60.7048 267.782 60.5592C267.924 60.1224 268.218 59.8867 268.664 59.852L270.63 59.7168C271.163 59.6752 271.43 59.3771 271.43 58.8224Z" fill="#050708"/>
<path d="M219.398 53.7586C217.892 50.4583 218.068 46.8565 219.925 42.953C221.992 38.5989 225.779 37.1186 231.285 38.5122C231.927 38.6786 232.247 39.105 232.247 39.7914V56.6706C232.248 56.8433 232.202 57.0131 232.114 57.1616C232.027 57.31 231.901 57.4316 231.751 57.513C226.063 60.6191 221.945 59.3677 219.398 53.7586Z" fill="white"/>
<path d="M106.663 45.5927C106.59 45.5941 106.518 45.5806 106.451 45.553C106.383 45.5254 106.322 45.4842 106.27 45.4319C106.218 45.3796 106.177 45.3173 106.148 45.2484C106.12 45.1796 106.106 45.1057 106.106 45.0311V44.5527C106.089 42.8827 106.7 41.2743 107.804 40.0809C108.908 38.8875 110.414 38.2066 111.993 38.1879H112.074C112.857 38.1785 113.635 38.3325 114.362 38.6412C115.089 38.9498 115.751 39.407 116.311 39.9865C116.871 40.5661 117.318 41.2567 117.625 42.0188C117.933 42.7809 118.095 43.5995 118.104 44.4279V44.9063C118.104 45.0535 118.047 45.1948 117.947 45.2998C117.847 45.4048 117.71 45.4652 117.567 45.4679L106.663 45.5927Z" fill="white"/>
<path d="M164.424 45.6032C164.347 45.6046 164.27 45.5904 164.199 45.5613C164.127 45.5323 164.061 45.489 164.006 45.4339C163.95 45.3789 163.906 45.3131 163.875 45.2405C163.844 45.1678 163.828 45.0896 163.826 45.0104V44.8648C163.814 43.9989 163.948 43.1392 164.22 42.335C164.492 41.5307 164.897 40.7977 165.412 40.1776C165.927 39.5576 166.541 39.0628 167.22 38.7214C167.899 38.38 168.629 38.1988 169.369 38.188H170.018C170.758 38.1771 171.493 38.3368 172.181 38.6581C172.869 38.9794 173.497 39.4559 174.029 40.0605C174.56 40.665 174.985 41.3858 175.279 42.1816C175.574 42.9773 175.731 43.8326 175.743 44.6984V44.844C175.745 44.9232 175.731 45.002 175.702 45.0757C175.674 45.1494 175.632 45.2166 175.578 45.2736C175.525 45.3306 175.461 45.3762 175.39 45.4077C175.319 45.4393 175.243 45.4563 175.166 45.4576L164.424 45.6032Z" fill="white"/>
<path d="M248.237 45.6035C248.159 45.6048 248.083 45.5906 248.011 45.5615C247.939 45.5325 247.874 45.4892 247.818 45.4342C247.763 45.3791 247.718 45.3134 247.687 45.2407C247.657 45.168 247.64 45.0899 247.639 45.0107L247.629 44.4803C247.618 43.6676 247.762 42.8607 248.053 42.1057C248.344 41.3506 248.776 40.6623 249.325 40.0799C249.874 39.4976 250.528 39.0326 251.25 38.7116C251.973 38.3906 252.75 38.2198 253.536 38.2091H253.577C254.363 38.1981 255.144 38.3474 255.875 38.6483C256.605 38.9492 257.272 39.3958 257.835 39.9627C258.399 40.5296 258.849 41.2056 259.16 41.9522C259.471 42.6988 259.636 43.5013 259.647 44.3139L259.657 44.8443C259.657 45.0024 259.596 45.1543 259.488 45.2671C259.38 45.38 259.233 45.4447 259.079 45.4475L248.237 45.6035Z" fill="white"/>
<path d="M61.5403 66.4976C61.7734 65.0728 61.439 63.752 60.1723 62.972C56.9161 60.9474 53.7748 58.961 50.7483 57.0128C50.3755 56.7731 50.0671 56.441 49.8511 56.0468C49.6352 55.6526 49.5186 55.2089 49.5121 54.756L49.3803 43.6696C49.3779 43.3891 49.4488 43.1132 49.5854 42.8704C49.7221 42.6275 49.9196 42.4267 50.1575 42.2887C50.3954 42.1507 50.6649 42.0806 50.9381 42.0857C51.2113 42.0908 51.4781 42.1708 51.711 42.3176L85.6982 63.908C88.6909 65.8077 88.9071 67.9986 86.3467 70.4808C79.706 76.9218 73.0248 83.4114 66.303 89.9496C65.9449 90.2962 65.5362 90.473 65.0769 90.48C64.953 90.4838 64.8298 90.4602 64.7156 90.4108C64.6015 90.3613 64.499 90.2872 64.4154 90.1934C64.3317 90.0996 64.2687 89.9884 64.2307 89.8673C64.1927 89.7463 64.1806 89.6182 64.1953 89.492C64.3101 88.5005 64.5601 87.5056 64.9451 86.5072C65.6646 84.6248 64.4081 82.9192 62.4726 83.2832C50.8598 85.5157 38.8788 87.8973 26.5297 90.428C26.4161 90.4505 26.2993 90.4493 26.1864 90.4244C26.0734 90.3996 25.9668 90.3517 25.8729 90.2835C25.779 90.2154 25.6999 90.1285 25.6403 90.0282C25.5807 89.9279 25.542 89.8162 25.5265 89.7C25.4792 89.381 25.594 89.1418 25.871 88.9824C37.7135 82.0074 49.1574 75.1781 60.2027 68.4944C60.5523 68.2825 60.853 67.9942 61.084 67.6494C61.315 67.3046 61.4707 66.9116 61.5403 66.4976Z" fill="#FFD204"/>
<path d="M20.1153 45.354L29.6406 46.1964L29.9041 63.7932C29.9129 64.3813 30.0716 64.9567 30.3643 65.4624C30.657 65.968 31.0735 66.3862 31.5725 66.6754C32.0715 66.9646 32.6356 67.1147 33.2087 67.1108C33.7817 67.1069 34.3438 66.9492 34.839 66.6532L46.7964 59.5188C47.2965 59.2199 47.8656 59.065 48.4436 59.0705C49.0215 59.076 49.5868 59.2417 50.0796 59.55L57.7809 64.3444C57.9283 64.4337 58.0622 64.5535 58.1761 64.698C58.9192 65.6548 58.8381 66.4071 57.9329 66.9548C56.5818 67.7729 55.278 68.5633 54.0214 69.326C48.1981 68.8961 44.1245 68.8892 41.8006 69.3052C38.7741 69.846 36.1124 70.1719 33.8156 70.2828C33.0387 70.3244 32.1604 70.1025 31.1809 69.6172C30.404 69.2289 29.5325 69.0313 28.5665 69.0244C22.6419 68.9967 16.6767 68.9759 10.671 68.962L8.49236 60.2676C7.87085 57.7924 8.57342 57.2967 10.6001 58.7804C11.1946 59.2103 11.7283 59.758 12.2012 60.4236C12.4226 60.7363 12.7245 60.9794 13.0731 61.1258C13.4217 61.2721 13.8031 61.3159 14.1746 61.2522C14.5461 61.1884 14.8929 61.0197 15.1761 60.765C15.4594 60.5103 15.6679 60.1796 15.7782 59.81L20.1153 45.354Z" fill="#EE563C"/>
<path d="M134.698 46.5908L130.138 46.55C129.102 46.5407 128.256 47.3946 128.247 48.4571L128.207 53.1162C128.198 54.1787 129.03 55.0476 130.065 55.0569L134.625 55.0977C135.661 55.107 136.507 54.2531 136.516 53.1906L136.556 48.5315C136.565 47.469 135.733 46.6001 134.698 46.5908Z" fill="#EE563C"/>
<path d="M293.264 46.559L288.501 46.5419C287.606 46.5387 286.877 47.2811 286.874 48.2001L286.856 53.4001C286.853 54.3191 287.577 55.0667 288.472 55.0699L293.235 55.087C294.13 55.0902 294.858 54.3478 294.862 53.4288L294.879 48.2288C294.882 47.3098 294.159 46.5622 293.264 46.559Z" fill="#66B945"/>
<path d="M54.0198 69.3274C43.5555 75.5951 33.1215 81.8074 22.718 87.9642C21.4885 88.6922 20.3704 89.0285 19.3638 88.973C18.2829 88.9106 17.2527 88.8794 16.2732 88.8794C15.7868 88.8794 15.4828 88.6402 15.3612 88.1618L10.6694 68.9634C16.6751 68.9772 22.6403 68.9981 28.5649 69.0258C29.5309 69.0327 30.4024 69.2303 31.1793 69.6186C32.1589 70.1039 33.0371 70.3258 33.814 70.2842C36.1109 70.1732 38.7725 69.8474 41.799 69.3066C44.1229 68.8906 48.1966 68.8975 54.0198 69.3274Z" fill="#F06A3D"/>
</g>
<defs>
<clipPath id="clip0_2420_23783">
<rect width="304" height="104" fill="white"/>
</clipPath>
</defs>
</svg>
