<svg width="240" height="131" viewBox="0 0 240 131" fill="none" xmlns="http://www.w3.org/2000/svg">
<g clip-path="url(#clip0_2420_23498)">
<path d="M70.1243 -0.000488281H71.5294C73.1294 0.804616 73.9294 1.95087 73.9294 3.43826C73.9021 16.5314 73.8884 29.802 73.8884 43.25C73.8884 45.1672 72.9448 46.293 71.0576 46.6273C70.5926 46.7092 70.1482 46.6546 69.7243 46.4636C68.3157 45.8427 67.608 44.7647 67.6012 43.2295C67.5807 30.4297 67.5567 18.0086 67.5294 5.96615C67.5294 3.25404 67.1807 1.24811 70.1243 -0.000488281Z" fill="#76B832"/>
<path d="M115.652 25.1659C118.626 17.8279 97.9905 18.8104 102.36 6.87711C103.16 4.68013 104.859 3.19273 107.457 2.41492C111.915 1.07081 115.724 1.98508 118.883 5.15773C119.124 5.39872 119.291 5.70038 119.365 6.02765C119.645 7.21484 119.508 8.00289 118.955 8.39179C117.895 9.14232 116.862 9.11161 115.857 8.29969C112.842 5.8639 110.131 5.5057 107.724 7.22508C106.267 8.26898 106.083 10.7048 107.56 11.8305C108.801 12.7619 110.206 13.7034 111.673 14.2459C115.765 15.7708 121.108 18.3805 120.678 23.6819C120.356 27.7075 118.432 30.2456 114.903 31.2963C109.946 32.7837 105.385 31.4089 101.221 27.1719C101.037 26.9839 100.898 26.7558 100.816 26.5055C100.734 26.2552 100.711 25.9894 100.749 25.7288C100.886 24.8623 101.273 24.3062 101.908 24.0606C102.92 23.6785 103.806 23.8696 104.565 24.6337C107.098 27.1616 113.744 29.8635 115.652 25.1659Z" fill="#064A85"/>
<path d="M57.0258 2.89893H56.9027C55.1864 2.89893 53.795 4.2873 53.795 5.99994V40.6945C53.795 42.4071 55.1864 43.7955 56.9027 43.7955H57.0258C58.7421 43.7955 60.1335 42.4071 60.1335 40.6945V5.99994C60.1335 4.2873 58.7421 2.89893 57.0258 2.89893Z" fill="#28A768"/>
<path d="M210.996 14.5439C211.01 17.8326 211.02 21.1553 211.027 24.5122C211.037 28.3296 214.719 27.4085 217.047 27.7667C217.407 27.8222 217.739 27.9942 217.993 28.2565C218.246 28.5188 218.408 28.8571 218.452 29.22C218.589 30.414 218.032 31.1782 216.78 31.5125C213.847 32.2971 211.17 31.8298 208.75 30.1104C207.122 28.9573 206.322 26.9719 206.35 24.154C206.377 20.8244 206.387 17.5631 206.38 14.3699C206.38 14.2841 206.361 14.1994 206.325 14.1215C206.289 14.0436 206.236 13.9742 206.171 13.9181C206.106 13.8619 206.03 13.8202 205.948 13.7957C205.865 13.7713 205.778 13.7647 205.693 13.7763C204.606 13.9196 203.396 13.7354 202.832 12.6915C202.51 12.0706 202.5 11.4634 202.801 10.8698C203.304 9.8668 204.616 9.59047 205.663 9.75422C206.148 9.82928 206.387 9.62118 206.38 9.12993C206.38 8.16107 206.37 7.18881 206.35 6.21313C206.298 4.2993 207.919 3.23493 209.775 3.88993C210.107 4.0044 210.395 4.21757 210.602 4.501C210.809 4.78444 210.925 5.12465 210.934 5.47625L211.037 9.20157C211.044 9.52224 211.211 9.68599 211.539 9.69282L216.073 9.79516C216.286 9.79866 216.495 9.85134 216.684 9.94904C216.873 10.0467 217.036 10.1868 217.16 10.3581C217.515 10.8493 217.663 11.3474 217.601 11.8523C217.444 13.1486 216.712 13.8002 215.406 13.807L211.704 13.8275C211.225 13.8275 210.989 14.0663 210.996 14.5439Z" fill="#064A85"/>
<path d="M43.2513 5.72217H43.1077C41.3914 5.72217 40 7.11054 40 8.82318V38.0116C40 39.7243 41.3914 41.1126 43.1077 41.1126H43.2513C44.9676 41.1126 46.359 39.7243 46.359 38.0116V8.82318C46.359 7.11054 44.9676 5.72217 43.2513 5.72217Z" fill="#048A9E"/>
<path d="M143.827 12.4133C146.897 9.37031 150.278 8.51062 153.971 9.83427C156.767 10.8441 158.299 12.9865 158.565 16.2615C158.88 20.0618 158.941 24.3944 158.75 29.2591C158.737 29.5292 158.667 29.7941 158.545 30.0369C157.3 32.5546 155.936 32.5785 154.453 30.1086C154.251 29.7742 154.148 29.3912 154.155 29.0033C154.21 25.4008 154.189 21.8665 154.094 18.4004C153.909 11.5946 145.129 12.0449 144.965 18.6358C144.883 22.1155 144.866 25.5474 144.914 28.9316C144.921 29.2348 144.858 29.539 144.729 29.822C143.465 32.633 142.1 32.6603 140.637 29.9039C140.429 29.5077 140.323 29.0679 140.33 28.6246C140.371 25.1449 140.343 21.7573 140.247 18.4618C140.053 11.5946 131.14 11.9323 131.068 18.8917C131.034 22.5897 131.02 26.1001 131.027 29.4229C131.027 30.6578 130.439 31.4663 129.263 31.8484C128.586 32.0736 127.868 31.8348 127.109 31.132C126.905 30.9454 126.743 30.719 126.632 30.4671C126.521 30.2151 126.463 29.9432 126.463 29.6685C126.422 23.9372 126.415 17.9808 126.442 11.7993C126.453 9.13833 129.868 8.207 130.812 10.9191C130.941 11.2875 131.16 11.349 131.468 11.1033C134.637 8.51403 140.668 8.34005 143.088 12.3212C143.294 12.6624 143.54 12.6931 143.827 12.4133Z" fill="#064A85"/>
<path d="M177.456 29.7533C174.7 32.0048 171.425 32.5097 167.63 31.2679C163.651 29.9579 162.522 24.7896 165.117 21.7807C167.415 19.13 172.717 19.1914 176.04 19.5189C177.428 19.6622 177.982 19.0481 177.702 17.6767L177.517 16.7863C177.182 15.1897 176.221 14.1868 174.635 13.7774C172.317 13.177 170.239 13.7399 168.399 15.4661C167.538 16.2712 166.587 16.394 165.548 15.8345C165.377 15.739 165.247 15.6094 165.158 15.4456C164.461 14.1015 164.779 12.9075 166.112 11.8636C169.531 9.19581 173.268 8.55445 177.322 9.93951C180.495 11.0175 182.146 13.6716 182.276 17.9018C182.399 21.982 182.403 26.0723 182.286 30.1729C182.277 30.4849 182.176 30.7873 181.995 31.0421C181.815 31.297 181.563 31.493 181.271 31.6057C179.473 32.3084 178.321 31.7285 177.815 29.8658C177.804 29.8301 177.785 29.7975 177.759 29.7709C177.733 29.7442 177.701 29.7245 177.665 29.7133C177.63 29.7022 177.592 29.7 177.556 29.707C177.519 29.7139 177.485 29.7298 177.456 29.7533ZM170.122 27.9622C173.254 29.0198 175.668 28.0612 177.363 25.0864C178.3 23.4352 177.818 22.6404 175.917 22.7018C174.345 22.7495 172.799 22.8144 171.281 22.8962C168.133 23.0702 167.138 26.949 170.122 27.9622Z" fill="#064A85"/>
<path d="M193.844 11.7784C195.314 10.3525 197.15 9.59852 199.352 9.51665C199.818 9.4987 200.276 9.6372 200.653 9.90996C201.031 10.1827 201.306 10.574 201.434 11.0211C201.865 12.5358 200.88 13.8253 199.372 14.0402C195.824 14.5417 193.26 16.3634 193.342 20.2627C193.403 23.3058 193.41 26.417 193.362 29.5965C193.356 30.0092 193.219 30.413 192.972 30.753C192.302 31.6877 191.622 32.0834 190.931 31.9402C189.536 31.64 188.832 30.7769 188.819 29.3509C188.764 23.7083 188.767 17.8679 188.829 11.8296C188.86 8.7286 193.034 8.25782 193.28 11.5635C193.321 12.0343 193.509 12.1059 193.844 11.7784Z" fill="#064A85"/>
<path d="M26.461 38.246L33.979 50.9468C35.0662 52.7822 34.7209 54.2935 32.9431 55.4807C32.738 55.6103 32.5192 55.7161 32.2867 55.7979C30.6798 56.3438 29.4457 55.89 28.5841 54.4368L20.5841 40.8864C20.3653 40.5112 20.0405 40.3611 19.6098 40.4361C14.5636 41.3095 10.0508 40.1359 6.0713 36.9155C1.46959 33.1902 -0.458613 28.2436 0.286686 22.0757C0.888395 17.0813 3.54481 13.1035 8.25592 10.1424C8.57045 9.9377 8.91233 9.86947 9.28156 9.9377C13.2405 10.6234 12.7585 14.7274 10.1636 16.5593C9.04908 17.344 8.16019 18.3265 7.49694 19.5068C4.58412 24.7059 6.60463 30.6725 11.7739 33.3642C19.1175 37.1918 28.0713 30.9284 26.1944 22.4236C25.5175 19.3533 23.8457 17.4804 21.5687 15.5666C21.1733 15.2351 20.8642 14.8134 20.6677 14.3376C20.4712 13.8617 20.3933 13.3458 20.4405 12.834C20.6457 10.562 22.9431 9.07801 24.9534 10.4801C34.461 17.1427 35.2713 29.3011 26.6457 37.069C26.2628 37.4102 26.2012 37.8025 26.461 38.246Z" fill="#064A85"/>
<path d="M190.812 61.1414V49.8734C190.812 49.6778 190.854 49.4858 190.935 49.3105C191.94 47.1954 193.218 46.8099 194.771 48.154C194.983 48.3367 195.153 48.5638 195.27 48.8199C195.387 49.076 195.447 49.355 195.447 49.638V79.113C195.447 79.415 195.384 79.7136 195.262 79.9902C195.141 80.2667 194.963 80.5151 194.74 80.7198C194.518 80.9245 194.255 81.0811 193.969 81.1798C193.683 81.2784 193.38 81.3169 193.078 81.2929C191.629 81.1769 190.924 80.4128 190.965 79.0004C190.986 78.4614 190.805 78.3829 190.422 78.765C188.624 80.5458 186.524 81.4123 184.124 81.3646C177.759 81.2281 174.118 77.977 173.201 71.6112C172.412 66.0949 175.786 60.0054 181.642 59.0843C185.15 58.5248 188.008 59.2958 190.217 61.3973C190.613 61.7726 190.812 61.6873 190.812 61.1414ZM184.131 77.2575C184.999 77.2832 185.864 77.1269 186.677 76.7975C187.49 76.4681 188.234 75.972 188.868 75.3375C189.501 74.7031 190.011 73.9428 190.369 73.0999C190.727 72.2571 190.925 71.3483 190.952 70.4253C190.98 69.5024 190.836 68.5835 190.529 67.721C190.222 66.8585 189.758 66.0693 189.163 65.3985C188.569 64.7277 187.855 64.1884 187.063 63.8115C186.272 63.4346 185.417 63.2273 184.549 63.2016C183.68 63.1759 182.815 63.3322 182.002 63.6616C181.19 63.9911 180.445 64.4872 179.812 65.1216C179.178 65.756 178.668 66.5163 178.311 67.3592C177.953 68.202 177.755 69.1108 177.727 70.0338C177.7 70.9567 177.844 71.8756 178.151 72.7382C178.458 73.6007 178.922 74.3898 179.516 75.0606C180.111 75.7314 180.824 76.2707 181.616 76.6476C182.408 77.0246 183.262 77.2318 184.131 77.2575Z" fill="#064A85"/>
<path d="M113.62 56.7901V79.0805C113.62 80.3086 113.026 81.0728 111.836 81.373C111.631 81.4276 111.426 81.4447 111.22 81.4242C109.73 81.2741 108.984 80.4519 108.984 78.9577V56.5547C108.984 56.2067 108.81 56.0327 108.461 56.0327L101.395 56.0225C100.376 56.0225 99.6375 55.5653 99.1794 54.6511C99.0631 54.4191 99.0187 54.1735 99.046 53.9142C99.2033 52.5974 99.9486 51.939 101.282 51.939H121.333C122.769 51.939 123.525 52.6554 123.6 54.0882C123.634 54.6818 123.231 55.2617 122.39 55.828C122.202 55.9549 121.984 56.0226 121.764 56.0225L114.369 56.0429C113.87 56.0429 113.62 56.292 113.62 56.7901Z" fill="#064A85"/>
<path d="M127.57 72.3759C129.406 77.841 135.498 78.7417 139.642 75.6509C140.36 75.1187 141.081 75.1153 141.806 75.6406C141.997 75.7771 142.151 75.9409 142.268 76.1319C142.91 77.1758 142.753 78.0798 141.796 78.844C139.191 80.9182 136.185 81.713 132.78 81.2286C116.821 78.9668 121.385 55.3152 136.914 59.3373C141.16 60.4426 143.601 64.3931 143.826 68.538C143.936 70.578 142.924 71.6049 140.791 71.6185C136.75 71.6458 132.524 71.6492 128.114 71.6288C127.587 71.6219 127.406 71.871 127.57 72.3759ZM127.991 68.1286L139.129 67.9853C139.167 67.9853 139.204 67.9702 139.231 67.9434C139.258 67.9165 139.273 67.8801 139.273 67.8421V67.7602C139.255 66.4091 138.649 65.1209 137.587 64.1786C136.526 63.2363 135.096 62.7171 133.611 62.7351H133.385C132.65 62.7439 131.923 62.8846 131.246 63.1492C130.569 63.4138 129.956 63.797 129.442 64.277C128.928 64.757 128.522 65.3243 128.248 65.9466C127.975 66.5688 127.838 67.2338 127.847 67.9035V67.9853C127.847 68.0233 127.862 68.0598 127.889 68.0866C127.916 68.1135 127.953 68.1286 127.991 68.1286Z" fill="#064A85"/>
<path d="M154.091 60.8118C159.671 56.8409 167.404 58.9287 167.835 66.6659C168.061 70.5686 168.085 74.7681 167.907 79.2644C167.852 80.704 167.103 81.4034 165.661 81.3624L165.281 81.3522C164.078 81.3181 163.466 80.7006 163.445 79.4998C163.377 75.9177 163.356 72.1992 163.384 68.3443C163.425 60.7913 153.476 61.2314 153.722 68.6104C153.852 72.4585 153.838 76.1224 153.681 79.6021C153.626 80.7688 153.018 81.359 151.856 81.3727H151.538C149.979 81.3863 149.199 80.6153 149.199 79.0597V61.1188C149.199 60.7052 149.321 60.3007 149.549 59.9551C149.776 59.6096 150.101 59.3381 150.481 59.1743C151.917 58.5671 152.956 59.0651 153.599 60.6685C153.702 60.9278 153.866 60.9755 154.091 60.8118Z" fill="#064A85"/>
<path d="M205.639 72.4907C207.68 77.8843 213.516 78.7132 217.742 75.6429C218.494 75.0903 219.229 75.1073 219.947 75.6941C220.104 75.8237 220.231 75.9738 220.326 76.1444C220.935 77.2361 220.743 78.1606 219.752 78.9179C214.07 83.288 204.983 81.7426 201.947 75.121C197.937 66.3808 205.096 56.781 214.839 59.3191C218.675 60.3152 220.996 63.1126 221.803 67.7113C222.268 70.3381 221.167 71.6515 218.501 71.6515C214.357 71.6447 210.265 71.6413 206.224 71.6413C205.615 71.6413 205.42 71.9244 205.639 72.4907ZM206.008 68.1207L217.208 67.9979C217.225 67.9979 217.241 67.9947 217.255 67.9885C217.27 67.9823 217.284 67.9733 217.295 67.9619C217.307 67.9505 217.316 67.9369 217.322 67.922C217.328 67.9071 217.331 67.8912 217.331 67.875L217.321 67.8034C217.306 66.4444 216.7 65.1474 215.637 64.1974C214.573 63.2475 213.139 62.7223 211.649 62.7374H211.444C209.954 62.7547 208.532 63.311 207.49 64.284C206.447 65.257 205.87 66.5671 205.885 67.9262V67.9979C205.885 68.0304 205.898 68.0617 205.921 68.0847C205.944 68.1077 205.976 68.1207 206.008 68.1207Z" fill="#064A85"/>
<path d="M240 60.4048V61.8274C239.227 62.7758 238.051 63.4512 236.471 63.8538C235.035 64.2222 234.047 64.6316 233.507 65.0819C232.454 65.9484 231.907 67.1458 231.866 68.6742C231.784 72.0652 231.764 75.6165 231.805 79.3282C231.825 80.6928 231.152 81.375 229.784 81.375H229.507C227.969 81.3819 227.2 80.6177 227.2 79.0825V61.1519C227.199 60.7497 227.316 60.3558 227.536 60.0179C227.757 59.68 228.071 59.4126 228.441 59.2483C230.171 58.4705 231.275 59.1255 231.753 61.2133C231.835 61.5613 232.01 61.6159 232.277 61.3771C235.162 58.7775 237.736 58.4535 240 60.4048Z" fill="#064A85"/>
<path d="M121.62 131.001H119.517C117.09 130.619 115.063 129.639 113.435 128.063C113.203 127.838 113.07 127.886 113.035 128.207C112.899 129.483 112.461 130.414 111.723 131.001H109.784C109.422 120.357 109.319 109.655 109.476 98.8954C109.483 98.4656 109.589 98.0869 109.794 97.7594C110.164 97.1794 110.776 96.9577 111.63 97.0942C111.959 97.143 112.259 97.309 112.477 97.5622C112.695 97.8155 112.817 98.1395 112.82 98.4758L112.83 111.504C112.83 112.009 112.998 112.074 113.333 111.699C115.788 108.969 119.087 108.018 123.23 108.843C129.035 110 132.082 116.642 131.076 122.056C130.167 126.921 127.015 129.902 121.62 131.001ZM120.468 127.865C121.462 127.834 122.439 127.595 123.344 127.161C124.249 126.728 125.065 126.109 125.744 125.339C126.423 124.57 126.952 123.665 127.302 122.676C127.651 121.687 127.814 120.634 127.78 119.577C127.747 118.52 127.518 117.479 127.108 116.515C126.697 115.55 126.111 114.68 125.385 113.954C124.659 113.229 123.806 112.662 122.876 112.286C121.945 111.91 120.955 111.733 119.961 111.764C118.968 111.795 117.991 112.034 117.085 112.468C116.18 112.901 115.365 113.52 114.686 114.29C114.007 115.059 113.478 115.964 113.128 116.953C112.779 117.942 112.616 118.995 112.649 120.052C112.683 121.109 112.911 122.15 113.322 123.114C113.733 124.079 114.318 124.949 115.045 125.675C115.771 126.4 116.623 126.967 117.554 127.343C118.485 127.719 119.475 127.896 120.468 127.865Z" fill="#064A85"/>
<path d="M138.893 103.315C140.207 103.315 141.272 102.252 141.272 100.94C141.272 99.629 140.207 98.5659 138.893 98.5659C137.578 98.5659 136.513 99.629 136.513 100.94C136.513 102.252 137.578 103.315 138.893 103.315Z" fill="#064A85"/>
<path d="M139.959 131H138.236C137.703 130.447 137.21 129.885 137.2 129.066C137.166 123.144 137.173 116.948 137.22 110.48C137.227 109.341 137.723 108.703 138.708 108.566C138.93 108.535 139.156 108.55 139.372 108.61C139.588 108.671 139.788 108.776 139.961 108.919C140.134 109.061 140.275 109.238 140.375 109.439C140.476 109.639 140.533 109.858 140.544 110.081C140.872 117.184 140.677 124.157 139.959 131Z" fill="#064A85"/>
<path d="M150.985 127.418H161.806C162.134 127.418 162.45 127.539 162.696 127.758C162.941 127.977 163.099 128.278 163.139 128.605C163.153 128.714 163.156 128.827 163.149 128.943C163.128 129.36 162.947 129.753 162.644 130.041C162.34 130.329 161.937 130.489 161.518 130.488H147.139C146.836 130.489 146.54 130.405 146.283 130.246C146.026 130.086 145.819 129.858 145.686 129.586C145.554 129.315 145.5 129.012 145.532 128.712C145.564 128.411 145.68 128.126 145.867 127.889L157.949 112.455C157.978 112.419 157.997 112.375 158.002 112.329C158.007 112.283 157.999 112.236 157.978 112.194C157.958 112.152 157.926 112.117 157.886 112.093C157.847 112.068 157.801 112.056 157.754 112.056L147.693 112.066C147.405 112.067 147.125 111.965 146.906 111.777C146.686 111.59 146.539 111.329 146.493 111.043L146.431 110.644C146.4 110.44 146.414 110.232 146.471 110.034C146.527 109.836 146.626 109.653 146.761 109.496C146.895 109.34 147.062 109.214 147.249 109.128C147.436 109.042 147.64 108.997 147.847 108.996H161.313C161.619 108.996 161.918 109.083 162.177 109.244C162.436 109.406 162.644 109.637 162.778 109.912C162.911 110.186 162.965 110.492 162.933 110.795C162.901 111.098 162.784 111.386 162.595 111.626L150.667 126.753C150.312 127.196 150.418 127.418 150.985 127.418Z" fill="#064A85"/>
<path d="M96.1228 124.53C98.7907 124.53 100.954 122.372 100.954 119.71C100.954 117.048 98.7907 114.89 96.1228 114.89C93.4548 114.89 91.292 117.048 91.292 119.71C91.292 122.372 93.4548 124.53 96.1228 124.53Z" fill="#76B832"/>
</g>
<defs>
<clipPath id="clip0_2420_23498">
<rect width="240" height="131" fill="white"/>
</clipPath>
</defs>
</svg>
