<svg width="234" height="234" viewBox="0 0 234 234" fill="none" xmlns="http://www.w3.org/2000/svg">
<g clip-path="url(#clip0_2420_23429)">
<path d="M161.631 54.4881C161.557 54.5241 161.495 54.5801 161.452 54.6497C161.409 54.7193 161.386 54.7997 161.386 54.8817L161.408 101.841C161.407 101.915 161.426 101.988 161.462 102.053C161.497 102.118 161.549 102.173 161.612 102.212C161.675 102.252 161.747 102.275 161.821 102.278C161.895 102.282 161.968 102.267 162.035 102.235L200.06 84.0572C200.134 84.0212 200.196 83.9652 200.239 83.8956C200.282 83.826 200.305 83.7456 200.305 83.6637L200.369 36.6722C200.369 36.5981 200.35 36.5251 200.314 36.4601C200.279 36.3952 200.227 36.3404 200.164 36.301C200.101 36.2616 200.029 36.2389 199.955 36.235C199.881 36.2311 199.808 36.2461 199.741 36.2787L161.631 54.4881Z" stroke="#FDED99" stroke-width="2.45455"/>
<path d="M149.465 89.9727C149.534 89.9406 149.593 89.8896 149.634 89.8256C149.676 89.7616 149.698 89.6872 149.699 89.611L149.71 42.5451C149.711 42.4767 149.694 42.4092 149.662 42.3489C149.63 42.2886 149.583 42.2375 149.526 42.2003C149.468 42.1631 149.402 42.141 149.334 42.1362C149.266 42.1315 149.198 42.144 149.135 42.1728L36.1667 95.2802C36.0975 95.3123 36.0389 95.3633 35.9975 95.4273C35.9561 95.4913 35.9336 95.5656 35.9327 95.6418V142.697C35.9317 142.766 35.9481 142.833 35.9803 142.893C36.0126 142.954 36.0596 143.005 36.117 143.042C36.1744 143.079 36.2402 143.101 36.3085 143.106C36.3767 143.111 36.445 143.098 36.507 143.069L149.465 89.9727Z" stroke="#8BD0ED" stroke-width="2.45455"/>
<path d="M83.6433 165.402C83.7781 166.381 83.7249 167.455 83.4838 168.625C83.4602 168.737 83.4622 168.854 83.4897 168.966C83.5172 169.077 83.5694 169.182 83.6427 169.271C83.716 169.361 83.8084 169.433 83.9133 169.483C84.0183 169.533 84.1331 169.56 84.2496 169.561L86.1748 169.572C86.4939 169.572 86.6534 169.412 86.6534 169.093L86.6641 164.275C86.6641 163.885 86.852 163.647 87.2278 163.562C87.8872 163.406 88.3801 163.64 88.7062 164.264C89.543 165.867 90.3549 167.43 91.142 168.955C91.3689 169.387 91.727 169.6 92.2162 169.593L94.4392 169.529C94.9852 169.522 95.1235 169.284 94.8541 168.816L91.025 162.158C90.8406 161.846 90.8441 161.538 91.0356 161.233L94.5562 155.681C94.8966 155.135 94.7477 154.869 94.1095 154.883L92.1843 154.904C91.4965 154.911 91.0001 155.227 90.6952 155.851C90.0996 157.077 89.4721 158.251 88.8126 159.371C87.3731 161.832 86.657 161.637 86.6641 158.786V155.798C86.6711 155.266 86.4052 154.986 85.8663 154.957L84.2602 154.883C84.1607 154.878 84.0614 154.894 83.9687 154.931C83.8761 154.967 83.7922 155.023 83.7228 155.095C83.6534 155.166 83.6 155.252 83.5661 155.345C83.5322 155.439 83.5187 155.539 83.5263 155.638C83.6185 156.808 83.6398 157.896 83.5901 158.903C83.4625 161.541 82.7357 161.718 81.4097 159.435C80.7077 158.237 79.988 156.946 79.2505 155.564C79.0023 155.088 78.6123 154.858 78.0805 154.872L75.8681 154.915C75.3505 154.922 75.2335 155.142 75.5171 155.574L79.1548 161.222C79.3604 161.541 79.3675 161.867 79.1761 162.201L75.23 168.923C74.9747 169.355 75.0988 169.568 75.6022 169.561L78.038 169.55C78.4563 169.55 78.7648 169.366 78.9633 168.997L81.1225 164.945C82.4343 162.484 83.2746 162.637 83.6433 165.402Z" stroke="#808080" stroke-width="2.45455"/>
<path d="M105.344 161.576C108.769 158.895 105.961 155.151 102.462 154.747C99.6113 154.407 97.5337 155.385 96.229 157.683C95.839 158.37 96.0375 158.768 96.8246 158.874L97.6755 158.98C97.9987 159.025 98.3278 158.978 98.6263 158.847C98.9248 158.715 99.1811 158.504 99.3667 158.236C100.062 157.215 101.104 156.91 102.494 157.321C102.791 157.407 103.058 157.575 103.265 157.804C103.472 158.033 103.61 158.315 103.664 158.619C104.047 160.757 102.058 161.012 100.515 160.895C99.9836 160.852 99.7177 161.1 99.7177 161.639V162.724C99.7177 163.072 99.8914 163.249 100.239 163.256L102.239 163.299C102.607 163.306 102.965 163.423 103.267 163.634C103.569 163.846 103.801 164.142 103.933 164.484C104.066 164.827 104.093 165.201 104.011 165.558C103.928 165.916 103.741 166.24 103.472 166.49C102.551 167.362 101.434 167.55 100.122 167.053C99.7957 166.933 99.544 166.724 99.3667 166.426C98.764 165.405 97.7748 165.089 96.3991 165.479C96.0304 165.585 95.8851 165.827 95.9631 166.202C97.3351 172.371 110.067 169.957 106.451 163.362C106.323 163.136 106.149 162.944 105.929 162.788C105.809 162.703 105.674 162.639 105.525 162.597C104.816 162.377 104.756 162.036 105.344 161.576Z" stroke="#808080" stroke-width="2.45455"/>
<path d="M141.381 160.894L138.829 155.373C138.687 155.068 138.449 154.916 138.116 154.916L135.957 154.905C135.524 154.905 135.404 155.097 135.595 155.48L140.307 165.063C140.47 165.396 140.459 165.73 140.275 166.063C139.8 166.9 139.045 167.353 138.01 167.424C137.598 167.453 137.432 167.669 137.51 168.073L137.733 169.19C137.804 169.544 138.02 169.732 138.382 169.754C140.325 169.874 141.69 169.037 142.477 167.243C144.065 163.627 145.728 159.724 147.465 155.533C147.65 155.093 147.504 154.877 147.029 154.884L144.998 154.927C144.615 154.934 144.352 155.118 144.211 155.48L142.19 160.862C141.949 161.514 141.679 161.525 141.381 160.894Z" stroke="#808080" stroke-width="2.45455"/>
<path d="M167.056 155.535C167.056 155.449 167.039 155.363 167.006 155.283C166.973 155.203 166.925 155.13 166.864 155.069C166.803 155.007 166.73 154.958 166.65 154.925C166.57 154.892 166.485 154.875 166.398 154.875L164.717 154.872C164.631 154.871 164.545 154.888 164.465 154.921C164.385 154.954 164.312 155.003 164.251 155.064C164.189 155.125 164.141 155.198 164.107 155.278C164.074 155.358 164.057 155.443 164.057 155.53L164.033 168.953C164.033 169.04 164.05 169.125 164.083 169.205C164.116 169.285 164.165 169.358 164.226 169.42C164.287 169.481 164.359 169.53 164.439 169.563C164.519 169.596 164.605 169.613 164.692 169.614L166.372 169.617C166.459 169.617 166.545 169.6 166.625 169.567C166.705 169.534 166.778 169.485 166.839 169.424C166.9 169.363 166.949 169.29 166.982 169.211C167.015 169.131 167.033 169.045 167.033 168.958L167.056 155.535Z" stroke="#808080" stroke-width="2.45455"/>
<path d="M179.128 161.595C181.819 158.628 179.808 155.065 176.192 154.98C174.313 154.93 172.43 154.898 170.544 154.884C170.09 154.884 169.863 155.111 169.863 155.565V168.828C169.863 169.332 170.111 169.587 170.608 169.594C172.437 169.629 174.394 169.594 176.479 169.488C179.734 169.307 181.616 166.563 180.255 163.499C180.102 163.165 179.859 162.878 179.553 162.67L179.234 162.457C178.865 162.209 178.83 161.922 179.128 161.595Z" stroke="#808080" stroke-width="2.45455"/>
<path d="M191.777 157.702L191.766 168.913C191.766 169.289 191.95 169.484 192.319 169.498L194.372 169.594C194.705 169.608 194.872 169.448 194.872 169.115L194.883 155.288C194.883 155.189 194.843 155.094 194.774 155.025C194.704 154.955 194.609 154.916 194.51 154.916L185.331 154.926C185.241 154.926 185.154 154.962 185.09 155.026C185.027 155.09 184.991 155.176 184.991 155.267C184.955 158.167 184.803 161.187 184.533 164.329C184.427 165.655 183.817 166.552 182.704 167.02C182.371 167.162 182.147 167.406 182.034 167.754C181.885 168.179 181.92 168.626 182.14 169.094C182.296 169.434 182.562 169.597 182.938 169.583C188.49 169.338 187.852 161.712 187.894 157.777C187.894 157.521 188.022 157.394 188.277 157.394H191.468C191.681 157.394 191.784 157.497 191.777 157.702Z" stroke="#808080" stroke-width="2.45455"/>
<path d="M48.4282 166.499L48.4495 155.267C48.4495 155.176 48.4136 155.09 48.3498 155.026C48.286 154.962 48.1994 154.926 48.1091 154.926L39.1107 154.916C39.0307 154.915 38.9539 154.947 38.8963 155.002C38.8388 155.058 38.805 155.133 38.8023 155.213C38.7314 158.312 38.4655 161.326 38.0046 164.254C37.7706 165.758 37.0296 166.736 35.7816 167.19C35.4837 167.296 35.3348 167.509 35.3348 167.828L35.4093 172.583C35.4118 172.718 35.4649 172.848 35.5578 172.944C35.6508 173.041 35.7764 173.098 35.9092 173.104L37.7174 173.189C37.7954 173.193 37.8736 173.182 37.947 173.155C38.0204 173.128 38.0875 173.086 38.1443 173.032C38.2011 172.979 38.2463 172.914 38.2771 172.842C38.3079 172.77 38.3238 172.693 38.3237 172.614V170.189C38.3237 169.771 38.5328 169.562 38.9512 169.562L46.5243 169.572C46.9285 169.572 47.1235 169.771 47.1093 170.168L47.0667 172.54C47.0597 172.887 47.2298 173.068 47.5773 173.082L49.3855 173.168C49.4567 173.17 49.5278 173.159 49.5947 173.135C49.6616 173.11 49.723 173.072 49.7754 173.024C49.8278 172.975 49.8701 172.917 49.8999 172.852C49.9297 172.788 49.9465 172.718 49.9492 172.646L50.1513 167.839C50.1655 167.427 49.9811 167.154 49.5982 167.02C49.4847 166.977 49.3677 166.984 49.2472 167.041C48.7012 167.275 48.4282 167.094 48.4282 166.499Z" stroke="#808080" stroke-width="2.45455"/>
<path d="M54.7446 163.736C54.7432 163.668 54.7554 163.601 54.7805 163.539C54.8057 163.476 54.8432 163.419 54.8909 163.372C54.9386 163.324 54.9955 163.286 55.0581 163.261C55.1207 163.236 55.1877 163.224 55.2552 163.225L60.0522 163.247C60.1811 163.247 60.3052 163.197 60.3983 163.108C60.4915 163.019 60.5466 162.897 60.5521 162.768L60.6159 161.353C60.6188 161.285 60.6077 161.217 60.5832 161.153C60.5587 161.089 60.5214 161.031 60.4736 160.982C60.4257 160.933 60.3683 160.895 60.305 160.869C60.2417 160.843 60.1737 160.831 60.1053 160.832L55.2658 160.875C55.1993 160.876 55.1331 160.864 55.0712 160.84C55.0093 160.815 54.953 160.779 54.9054 160.732C54.8579 160.686 54.8201 160.63 54.7943 160.569C54.7685 160.507 54.7552 160.441 54.7553 160.375V157.886C54.7553 157.753 54.8079 157.626 54.9017 157.532C54.9954 157.439 55.1226 157.386 55.2552 157.386L61.0307 157.407C61.1633 157.407 61.2905 157.355 61.3842 157.261C61.478 157.167 61.5306 157.04 61.5306 156.907L61.52 155.44C61.52 155.307 61.4673 155.18 61.3736 155.086C61.2798 154.992 61.1527 154.94 61.0201 154.94L52.2132 154.908C52.1475 154.908 52.0825 154.921 52.0219 154.946C51.9612 154.971 51.9061 155.008 51.8597 155.054C51.8133 155.101 51.7764 155.156 51.7513 155.216C51.7262 155.277 51.7133 155.342 51.7133 155.408L51.7345 169.075C51.7345 169.208 51.7872 169.335 51.881 169.429C51.9747 169.523 52.1019 169.575 52.2344 169.575H61.0307C61.1615 169.575 61.287 169.524 61.3805 169.433C61.4739 169.341 61.5278 169.217 61.5306 169.086L61.5838 167.554C61.5853 167.487 61.573 167.42 61.5479 167.357C61.5228 167.295 61.4852 167.238 61.4375 167.19C61.3898 167.142 61.3329 167.105 61.2703 167.08C61.2077 167.055 61.1407 167.042 61.0733 167.044L55.2764 167.14C55.1457 167.14 55.0201 167.088 54.9267 166.997C54.8332 166.905 54.7793 166.781 54.7765 166.65L54.7446 163.736Z" stroke="#808080" stroke-width="2.45455"/>
<path d="M66.9261 164.329C68.5109 164.424 70.585 164.541 71.9996 163.786C76.4775 161.382 74.68 155.139 69.6065 154.979C67.6813 154.926 65.7242 154.83 63.8203 154.99C63.4657 155.018 63.2885 155.21 63.2885 155.564V168.934C63.2885 169.096 63.3532 169.251 63.4685 169.367C63.5839 169.482 63.7408 169.548 63.9054 169.551L65.8412 169.572C66.1532 169.572 66.3092 169.416 66.3092 169.104V164.903C66.3092 164.499 66.5148 164.307 66.9261 164.329Z" stroke="#808080" stroke-width="2.45455"/>
<path d="M112.13 166.796C112.157 166.713 112.21 166.64 112.281 166.589C112.351 166.537 112.436 166.509 112.524 166.509L117.151 166.52C117.238 166.52 117.323 166.548 117.394 166.599C117.465 166.651 117.517 166.723 117.544 166.807L118.331 169.211C118.357 169.29 118.406 169.361 118.473 169.412C118.539 169.463 118.62 169.493 118.704 169.498L121.107 169.593C121.176 169.596 121.245 169.582 121.306 169.552C121.368 169.522 121.422 169.477 121.462 169.421C121.502 169.365 121.527 169.3 121.536 169.232C121.545 169.163 121.536 169.094 121.512 169.03L116.353 155.202C116.323 155.125 116.271 155.058 116.202 155.011C116.134 154.963 116.053 154.937 115.97 154.937L113.673 154.947C113.59 154.948 113.509 154.974 113.44 155.021C113.372 155.069 113.32 155.135 113.29 155.213L108.152 169.051C108.13 169.115 108.123 169.183 108.133 169.25C108.143 169.316 108.169 169.38 108.209 169.434C108.248 169.489 108.301 169.533 108.361 169.562C108.422 169.592 108.489 169.606 108.557 169.604L110.918 169.53C111.004 169.527 111.086 169.498 111.155 169.447C111.223 169.395 111.274 169.324 111.301 169.242L112.13 166.796Z" stroke="#808080" stroke-width="2.45455"/>
<path d="M126.074 160.288V155.406C126.074 155.108 125.925 154.956 125.627 154.949L123.702 154.906C123.291 154.892 123.085 155.09 123.085 155.502L123.096 168.829C123.096 169.361 123.362 169.616 123.893 169.595L125.468 169.521C125.63 169.515 125.784 169.446 125.898 169.329C126.011 169.212 126.074 169.056 126.074 168.893L126.063 165.745C126.049 162.703 126.911 162.433 128.648 164.936C129.428 166.05 130.148 167.209 130.807 168.414C130.992 168.754 131.262 169.04 131.59 169.243C131.918 169.447 132.294 169.561 132.679 169.574L134.221 169.627C134.937 169.655 135.101 169.368 134.711 168.765L130.499 162.298C130.3 162.001 130.296 161.706 130.488 161.416L134.317 155.523C134.586 155.105 134.473 154.896 133.977 154.896L131.849 154.906C131.31 154.906 130.896 155.137 130.605 155.597L127.446 160.671C127.36 160.809 127.232 160.915 127.08 160.975C126.929 161.034 126.762 161.042 126.607 160.999C126.451 160.956 126.315 160.863 126.219 160.734C126.122 160.606 126.071 160.449 126.074 160.288Z" stroke="#808080" stroke-width="2.45455"/>
<path d="M152.356 157.904C152.356 157.769 152.41 157.639 152.506 157.543C152.602 157.448 152.732 157.394 152.867 157.394L157.696 157.383C157.831 157.383 157.961 157.437 158.057 157.533C158.153 157.628 158.206 157.758 158.206 157.894L158.196 169.073C158.196 169.14 158.209 169.208 158.236 169.27C158.262 169.333 158.301 169.39 158.349 169.437C158.398 169.485 158.455 169.522 158.518 169.547C158.582 169.572 158.649 169.584 158.717 169.583L160.674 169.551C160.808 169.548 160.935 169.493 161.028 169.398C161.122 169.302 161.174 169.174 161.174 169.041L161.195 155.426C161.195 155.291 161.141 155.161 161.046 155.065C160.95 154.969 160.82 154.916 160.685 154.916H149.804C149.668 154.916 149.538 154.969 149.443 155.065C149.347 155.161 149.293 155.291 149.293 155.426L149.272 169.019C149.272 169.153 149.324 169.281 149.418 169.377C149.511 169.472 149.638 169.527 149.772 169.53L151.835 169.583C151.903 169.584 151.971 169.572 152.034 169.547C152.097 169.522 152.155 169.485 152.203 169.437C152.252 169.39 152.29 169.333 152.317 169.27C152.343 169.208 152.356 169.14 152.356 169.073V157.904Z" stroke="#808080" stroke-width="2.45455"/>
<path d="M200.698 155.405C200.698 155.275 200.646 155.151 200.554 155.059C200.463 154.967 200.338 154.916 200.208 154.916H198.102C197.973 154.916 197.848 154.967 197.756 155.059C197.665 155.151 197.613 155.275 197.613 155.405V169.062C197.613 169.192 197.665 169.316 197.756 169.408C197.848 169.5 197.973 169.551 198.102 169.551H200.208C200.338 169.551 200.463 169.5 200.554 169.408C200.646 169.316 200.698 169.192 200.698 169.062V155.405Z" stroke="#808080" stroke-width="2.45455"/>
<path d="M99.2479 176.699C98.5884 176.763 98.0814 176.479 97.7269 175.848C97.581 175.596 97.3509 175.404 97.078 175.307C96.805 175.209 96.5071 175.212 96.2378 175.316L95.9931 175.412C95.9039 175.446 95.8229 175.499 95.7553 175.566C95.6878 175.634 95.6352 175.715 95.6011 175.804C95.567 175.894 95.5521 175.989 95.5573 176.085C95.5625 176.18 95.5878 176.273 95.6315 176.358C96.9398 178.858 101.811 179.283 102.407 176.061C102.471 175.699 102.329 175.469 101.981 175.369C101.131 175.114 100.499 175.373 100.088 176.146C100.007 176.299 99.8878 176.43 99.7411 176.526C99.5944 176.623 99.4249 176.682 99.2479 176.699Z" stroke="#808080" stroke-width="2.45455"/>
<path d="M47.6397 184.686C47.6319 183.194 47.0316 181.766 45.9709 180.717C44.9102 179.667 43.476 179.082 41.9837 179.089L41.0477 179.094C39.5555 179.102 38.1274 179.702 37.0778 180.763C36.0281 181.824 35.4428 183.258 35.4506 184.75L35.4694 188.324C35.4772 189.816 36.0775 191.244 37.1382 192.294C38.1989 193.344 39.6331 193.929 41.1254 193.921L42.0614 193.916C43.5536 193.908 44.9816 193.308 46.0313 192.247C47.0809 191.187 47.6662 189.753 47.6584 188.26L47.6397 184.686Z" stroke="#808080" stroke-width="2.45455"/>
<path d="M52.9368 187.91C52.9368 187.814 52.9749 187.722 53.0427 187.655C53.1106 187.587 53.2025 187.549 53.2985 187.549L58.4358 187.527C58.5317 187.527 58.6237 187.565 58.6915 187.633C58.7594 187.701 58.7975 187.793 58.7975 187.889L58.7868 193.462C58.7868 193.557 58.8234 193.647 58.889 193.715C58.9545 193.782 59.0438 193.821 59.1378 193.824L61.5204 193.856C61.5687 193.857 61.6169 193.849 61.662 193.832C61.7071 193.814 61.7483 193.788 61.783 193.754C61.8177 193.72 61.8453 193.68 61.8641 193.635C61.883 193.591 61.8927 193.543 61.8926 193.494L61.8714 179.571C61.8714 179.475 61.8333 179.383 61.7654 179.316C61.6976 179.248 61.6056 179.21 61.5097 179.21L59.1591 179.22C59.0632 179.22 58.9712 179.258 58.9034 179.326C58.8356 179.394 58.7975 179.486 58.7975 179.582V184.73C58.7975 184.826 58.7594 184.918 58.6915 184.986C58.6237 185.054 58.5317 185.092 58.4358 185.092H53.2878C53.1919 185.092 53.0999 185.054 53.0321 184.986C52.9643 184.918 52.9262 184.826 52.9262 184.73L52.9581 179.55C52.9581 179.454 52.92 179.362 52.8522 179.294C52.7843 179.227 52.6924 179.188 52.5965 179.188L50.3096 179.21C50.2137 179.21 50.1217 179.248 50.0539 179.316C49.9861 179.383 49.948 179.475 49.948 179.571V193.484C49.948 193.58 49.9861 193.672 50.0539 193.739C50.1217 193.807 50.2137 193.845 50.3096 193.845L52.5858 193.824C52.6817 193.824 52.7737 193.786 52.8415 193.718C52.9094 193.65 52.9475 193.558 52.9475 193.462L52.9368 187.91Z" stroke="#808080" stroke-width="2.45455"/>
<path d="M72.9134 181.623C73.2963 181.623 73.4877 181.814 73.4877 182.197L73.4665 193.599C73.4665 193.741 73.5374 193.812 73.6792 193.812L76.3064 193.833C76.4694 193.833 76.551 193.752 76.551 193.589L76.5616 179.474C76.5616 179.404 76.5347 179.336 76.4869 179.286C76.439 179.236 76.3741 179.208 76.3064 179.208H66.9995C66.9167 179.208 66.8371 179.241 66.7776 179.298C66.718 179.356 66.6832 179.434 66.6805 179.517C66.6379 182.736 66.4784 185.838 66.2018 188.824C66.0813 190.114 65.4679 190.926 64.3617 191.259C64.1064 191.337 63.9327 191.497 63.8405 191.738C63.6491 192.234 63.5959 192.756 63.681 193.302C63.7071 193.472 63.7942 193.627 63.9257 193.737C64.0571 193.847 64.2237 193.904 64.3936 193.897C70.2543 193.695 69.4778 186.165 69.6055 182.133C69.6196 181.793 69.7969 181.623 70.1373 181.623H72.9134Z" stroke="#808080" stroke-width="2.45455"/>
<path d="M82.1981 191.135C82.2268 191.054 82.2802 190.983 82.3507 190.934C82.4212 190.884 82.5054 190.858 82.5916 190.858L87.3035 190.827C87.3929 190.825 87.4804 190.851 87.5533 190.903C87.6261 190.955 87.6803 191.029 87.7077 191.114L88.4735 193.518C88.5005 193.601 88.553 193.673 88.6237 193.725C88.6944 193.777 88.7796 193.805 88.8671 193.805L91.2177 193.858C91.2865 193.861 91.3548 193.846 91.4167 193.816C91.4785 193.786 91.5319 193.741 91.572 193.685C91.6121 193.629 91.6376 193.564 91.6464 193.496C91.6551 193.428 91.6467 193.358 91.6219 193.294L86.4633 179.467C86.4322 179.386 86.3765 179.317 86.304 179.269C86.2314 179.221 86.1458 179.197 86.0591 179.201L83.7829 179.244C83.6998 179.244 83.6188 179.27 83.5506 179.318C83.4823 179.365 83.4298 179.432 83.4 179.509L78.2626 193.326C78.2401 193.39 78.2334 193.458 78.2432 193.525C78.253 193.591 78.2789 193.655 78.3187 193.709C78.3586 193.764 78.4111 193.808 78.4717 193.837C78.5324 193.867 78.5993 193.881 78.6668 193.879L81.0068 193.805C81.0925 193.802 81.1753 193.773 81.2439 193.722C81.3124 193.671 81.3634 193.599 81.3897 193.518L82.1981 191.135Z" stroke="#808080" stroke-width="2.45455"/>
<path d="M101.876 185.145L101.887 193.335C101.887 193.467 101.94 193.595 102.036 193.688C102.132 193.782 102.262 193.835 102.397 193.835L104.493 193.813C104.62 193.813 104.741 193.762 104.831 193.67C104.921 193.578 104.971 193.454 104.971 193.324L104.992 179.848C104.992 179.673 104.923 179.505 104.799 179.382C104.676 179.258 104.508 179.188 104.333 179.188L102.578 179.199C102.366 179.202 102.16 179.259 101.977 179.363C101.795 179.467 101.643 179.616 101.536 179.795L96.6748 187.889C96.2636 188.577 96.0579 188.52 96.0579 187.719L96.0473 179.656C96.0473 179.373 95.909 179.231 95.6325 179.231L93.4839 179.188C93.2003 179.188 93.0585 179.327 93.0585 179.603L93.0691 193.037C93.0691 193.562 93.3315 193.824 93.8562 193.824L95.4304 193.835C95.87 193.835 96.1997 193.65 96.4196 193.282L101.387 185.007C101.713 184.468 101.876 184.514 101.876 185.145Z" stroke="#808080" stroke-width="2.45455"/>
<path d="M116.448 184.719C116.448 184.767 116.438 184.814 116.42 184.858C116.402 184.902 116.375 184.942 116.342 184.975C116.308 185.009 116.268 185.035 116.224 185.053C116.181 185.072 116.134 185.081 116.086 185.081L110.938 185.092C110.842 185.092 110.75 185.054 110.682 184.986C110.615 184.918 110.576 184.826 110.576 184.73L110.608 179.582C110.608 179.486 110.57 179.394 110.502 179.326C110.435 179.258 110.343 179.22 110.247 179.22L107.885 179.21C107.79 179.21 107.698 179.248 107.63 179.316C107.562 179.383 107.524 179.475 107.524 179.571V193.494C107.524 193.59 107.562 193.682 107.63 193.75C107.698 193.818 107.79 193.856 107.885 193.856L110.247 193.824C110.343 193.824 110.435 193.786 110.502 193.718C110.57 193.65 110.608 193.558 110.608 193.462L110.576 187.91C110.576 187.814 110.615 187.722 110.682 187.655C110.75 187.587 110.842 187.549 110.938 187.549L116.086 187.527C116.182 187.527 116.274 187.565 116.342 187.633C116.41 187.701 116.448 187.793 116.448 187.889L116.458 193.473C116.458 193.522 116.468 193.569 116.487 193.614C116.506 193.659 116.533 193.699 116.568 193.733C116.603 193.766 116.644 193.793 116.689 193.81C116.734 193.828 116.782 193.836 116.831 193.835L119.064 193.803C119.158 193.8 119.248 193.761 119.313 193.693C119.379 193.626 119.415 193.535 119.415 193.441L119.426 179.582C119.426 179.486 119.388 179.394 119.32 179.326C119.252 179.258 119.16 179.22 119.064 179.22L116.809 179.188C116.713 179.188 116.621 179.227 116.554 179.294C116.486 179.362 116.448 179.454 116.448 179.55V184.719Z" stroke="#808080" stroke-width="2.45455"/>
<path d="M172.84 157.872V160.51C172.84 160.644 172.892 160.772 172.985 160.868C173.079 160.963 173.206 161.018 173.34 161.021L175.148 161.031C175.436 161.033 175.721 160.993 175.987 160.913C176.254 160.833 176.496 160.715 176.701 160.566C176.905 160.417 177.068 160.239 177.179 160.043C177.29 159.848 177.348 159.638 177.349 159.425V159C177.352 158.571 177.124 158.159 176.715 157.854C176.306 157.549 175.75 157.376 175.169 157.373L173.361 157.362C173.293 157.361 173.225 157.373 173.162 157.398C173.099 157.423 173.041 157.46 172.993 157.508C172.944 157.555 172.906 157.612 172.88 157.675C172.853 157.737 172.84 157.805 172.84 157.872Z" stroke="#808080" stroke-width="2.45455"/>
<path d="M172.84 163.723L172.819 166.531C172.819 166.673 172.875 166.809 172.974 166.911C173.074 167.012 173.209 167.07 173.351 167.073L175.723 167.094C175.974 167.097 176.224 167.053 176.457 166.964C176.691 166.876 176.903 166.744 177.083 166.577C177.263 166.41 177.406 166.211 177.505 165.991C177.604 165.772 177.656 165.536 177.659 165.297V165.042C177.664 164.559 177.468 164.095 177.113 163.749C176.758 163.404 176.273 163.207 175.765 163.202L173.393 163.18C173.321 163.179 173.25 163.192 173.183 163.218C173.116 163.245 173.054 163.285 173.003 163.335C172.951 163.386 172.911 163.446 172.883 163.513C172.855 163.579 172.84 163.651 172.84 163.723Z" stroke="#808080" stroke-width="2.45455"/>
<path d="M41.6762 158.013C41.6656 160.63 41.4209 164.523 40.2722 166.469C40.0027 166.916 40.1304 167.139 40.6551 167.139L44.7395 167.108C44.9285 167.108 45.1097 167.032 45.2434 166.899C45.377 166.765 45.4521 166.584 45.4521 166.395L45.4627 158.205C45.4627 157.68 45.1968 157.414 44.665 157.407L42.325 157.386C41.8996 157.379 41.6833 157.588 41.6762 158.013Z" stroke="#808080" stroke-width="2.45455"/>
<path d="M66.3194 157.735V161.607C66.3194 161.697 66.3553 161.784 66.4191 161.848C66.4829 161.912 66.5695 161.947 66.6598 161.947H69.0104C69.6562 161.947 70.2755 161.726 70.7323 161.333C71.189 160.94 71.4458 160.408 71.4461 159.852V159.49C71.4463 159.215 71.3834 158.943 71.2611 158.688C71.1388 158.434 70.9594 158.203 70.7332 158.008C70.507 157.814 70.2384 157.659 69.9428 157.554C69.6472 157.449 69.3304 157.395 69.0104 157.395H66.6598C66.6151 157.395 66.5708 157.404 66.5295 157.421C66.4882 157.438 66.4507 157.463 66.4191 157.495C66.3875 157.526 66.3624 157.564 66.3453 157.605C66.3282 157.646 66.3194 157.691 66.3194 157.735Z" stroke="#808080" stroke-width="2.45455"/>
<path d="M114.945 159.161C114.839 158.849 114.732 158.849 114.626 159.161L113.286 163.299C113.115 163.816 113.303 164.075 113.849 164.075L116.009 164.065C116.441 164.065 116.586 163.863 116.445 163.458L114.945 159.161Z" stroke="#808080" stroke-width="2.45455"/>
<path d="M41.5467 191.655C42.4184 191.655 43.2543 191.114 43.8707 190.15C44.4871 189.187 44.8333 187.88 44.8333 186.518C44.8333 185.155 44.4871 183.849 43.8707 182.885C43.2543 181.922 42.4184 181.38 41.5467 181.38C40.675 181.38 39.8391 181.922 39.2227 182.885C38.6063 183.849 38.2601 185.155 38.2601 186.518C38.2601 187.88 38.6063 189.187 39.2227 190.15C39.8391 191.114 40.675 191.655 41.5467 191.655Z" stroke="#808080" stroke-width="2.45455"/>
<path d="M85.1992 183.731C85.0219 183.213 84.8446 183.217 84.6674 183.741L83.4016 187.549C83.2244 188.081 83.4158 188.347 83.976 188.347L85.9863 188.326C86.5039 188.319 86.6776 188.07 86.5074 187.581L85.1992 183.731Z" stroke="#808080" stroke-width="2.45455"/>
<path d="M0 0H234V234H0V0ZM161.63 54.4901C161.557 54.5261 161.495 54.5821 161.451 54.6517C161.408 54.7213 161.385 54.8017 161.386 54.8836L161.407 101.843C161.407 101.917 161.425 101.99 161.461 102.055C161.497 102.12 161.548 102.175 161.611 102.214C161.674 102.254 161.746 102.276 161.82 102.28C161.894 102.284 161.968 102.269 162.034 102.237L200.059 84.0592C200.133 84.0232 200.195 83.9672 200.238 83.8976C200.282 83.828 200.304 83.7476 200.304 83.6656L200.368 36.6742C200.368 36.6 200.35 36.527 200.314 36.4621C200.278 36.3971 200.226 36.3424 200.163 36.303C200.101 36.2636 200.029 36.2409 199.955 36.237C199.881 36.2331 199.807 36.2481 199.74 36.2806L161.63 54.4901ZM149.462 89.973C149.531 89.9409 149.59 89.8899 149.631 89.826C149.673 89.762 149.695 89.6876 149.696 89.6114L149.707 42.5455C149.708 42.4771 149.691 42.4096 149.659 42.3493C149.627 42.2889 149.58 42.2378 149.523 42.2006C149.465 42.1634 149.399 42.1414 149.331 42.1366C149.263 42.1318 149.194 42.1444 149.132 42.1732L36.1636 95.2806C36.0945 95.3126 36.0359 95.3636 35.9944 95.4276C35.953 95.4916 35.9306 95.566 35.9296 95.6422V142.697C35.9287 142.766 35.9451 142.833 35.9773 142.894C36.0096 142.954 36.0566 143.005 36.1139 143.042C36.1713 143.08 36.2372 143.102 36.3054 143.106C36.3737 143.111 36.442 143.099 36.504 143.07L149.462 89.973ZM83.6444 165.406C83.7791 166.385 83.7259 167.459 83.4848 168.629C83.4612 168.741 83.4633 168.858 83.4907 168.969C83.5182 169.081 83.5705 169.186 83.6437 169.275C83.717 169.365 83.8094 169.437 83.9144 169.487C84.0193 169.537 84.1342 169.564 84.2506 169.565L86.1758 169.576C86.4949 169.576 86.6545 169.416 86.6545 169.097L86.6651 164.279C86.6651 163.889 86.853 163.651 87.2288 163.566C87.8883 163.41 88.3811 163.644 88.7073 164.268C89.544 165.871 90.3559 167.434 91.143 168.959C91.3699 169.391 91.728 169.604 92.2173 169.597L94.4403 169.533C94.9863 169.526 95.1245 169.288 94.8551 168.82L91.026 162.162C90.8416 161.85 90.8452 161.542 91.0366 161.237L94.5573 155.684C94.8976 155.138 94.7487 154.873 94.1106 154.887L92.1854 154.908C91.4976 154.915 91.0012 155.231 90.6963 155.855C90.1006 157.081 89.4731 158.255 88.8136 159.375C87.3742 161.836 86.658 161.641 86.6651 158.79V155.801C86.6722 155.27 86.4063 154.99 85.8674 154.961L84.2613 154.887C84.1618 154.882 84.0624 154.898 83.9698 154.935C83.8771 154.971 83.7933 155.027 83.7239 155.099C83.6544 155.17 83.601 155.255 83.5671 155.349C83.5333 155.443 83.5197 155.543 83.5274 155.642C83.6195 156.812 83.6408 157.9 83.5912 158.907C83.4635 161.545 82.7367 161.722 81.4107 159.439C80.7087 158.241 79.989 156.95 79.2515 155.567C79.0034 155.092 78.6134 154.862 78.0816 154.876L75.8692 154.919C75.3516 154.926 75.2346 155.146 75.5182 155.578L79.1558 161.226C79.3615 161.545 79.3686 161.871 79.1771 162.205L75.231 168.927C74.9757 169.359 75.0998 169.572 75.6033 169.565L78.039 169.554C78.4574 169.554 78.7658 169.37 78.9644 169.001L81.1235 164.949C82.4354 162.488 83.2756 162.641 83.6444 165.406ZM105.343 161.577C108.767 158.897 105.959 155.153 102.46 154.748C99.6096 154.408 97.5319 155.387 96.2272 157.684C95.8372 158.372 96.0357 158.769 96.8228 158.875L97.6737 158.982C97.9969 159.026 98.326 158.98 98.6245 158.848C98.923 158.717 99.1793 158.505 99.3649 158.237C100.06 157.216 101.102 156.911 102.492 157.322C102.789 157.409 103.057 157.576 103.263 157.805C103.47 158.035 103.608 158.317 103.662 158.62C104.045 160.758 102.056 161.013 100.514 160.896C99.9818 160.854 99.7159 161.102 99.7159 161.641V162.726C99.7159 163.073 99.8896 163.25 100.237 163.258L102.237 163.3C102.605 163.308 102.963 163.425 103.265 163.636C103.567 163.847 103.799 164.143 103.931 164.486C104.064 164.829 104.091 165.203 104.009 165.56C103.927 165.917 103.739 166.241 103.471 166.491C102.549 167.363 101.432 167.551 100.12 167.055C99.7939 166.934 99.5422 166.725 99.3649 166.427C98.7622 165.406 97.773 165.091 96.3974 165.481C96.0286 165.587 95.8833 165.828 95.9613 166.204C97.3334 172.373 110.065 169.958 106.449 163.364C106.321 163.137 106.147 162.946 105.928 162.79C105.807 162.704 105.672 162.641 105.523 162.598C104.814 162.378 104.754 162.038 105.343 161.577ZM141.379 160.896L138.826 155.376C138.684 155.071 138.446 154.919 138.113 154.919L135.954 154.908C135.521 154.908 135.401 155.099 135.592 155.482L140.304 165.066C140.467 165.399 140.457 165.732 140.272 166.066C139.797 166.902 139.042 167.356 138.007 167.427C137.596 167.455 137.429 167.672 137.507 168.076L137.73 169.193C137.801 169.547 138.017 169.735 138.379 169.756C140.322 169.877 141.687 169.04 142.474 167.246C144.062 163.63 145.725 159.726 147.463 155.536C147.647 155.096 147.502 154.88 147.026 154.887L144.995 154.929C144.612 154.936 144.35 155.121 144.208 155.482L142.187 160.864C141.946 161.517 141.676 161.527 141.379 160.896ZM167.056 155.538C167.056 155.452 167.039 155.366 167.006 155.286C166.973 155.206 166.925 155.133 166.863 155.072C166.802 155.01 166.73 154.962 166.65 154.928C166.57 154.895 166.484 154.878 166.398 154.878L164.717 154.875C164.63 154.874 164.545 154.891 164.465 154.924C164.384 154.957 164.312 155.006 164.25 155.067C164.189 155.128 164.14 155.201 164.107 155.281C164.074 155.361 164.057 155.446 164.056 155.533L164.033 168.956C164.033 169.043 164.05 169.128 164.083 169.208C164.116 169.289 164.164 169.361 164.225 169.423C164.286 169.484 164.359 169.533 164.439 169.566C164.519 169.599 164.605 169.616 164.691 169.617L166.372 169.62C166.458 169.62 166.544 169.603 166.624 169.57C166.704 169.537 166.777 169.488 166.838 169.427C166.9 169.366 166.948 169.294 166.982 169.214C167.015 169.134 167.032 169.048 167.032 168.961L167.056 155.538ZM179.127 161.598C181.818 158.631 179.808 155.068 176.191 154.982C174.312 154.933 172.43 154.901 170.543 154.887C170.09 154.887 169.863 155.114 169.863 155.567V168.831C169.863 169.334 170.111 169.59 170.607 169.597C172.437 169.632 174.394 169.597 176.479 169.49C179.733 169.31 181.616 166.565 180.254 163.502C180.101 163.168 179.859 162.881 179.552 162.673L179.233 162.46C178.865 162.212 178.829 161.924 179.127 161.598ZM191.774 157.705L191.763 168.916C191.763 169.292 191.947 169.487 192.316 169.501L194.369 169.597C194.702 169.611 194.869 169.451 194.869 169.118L194.879 155.291C194.879 155.192 194.84 155.098 194.77 155.028C194.701 154.958 194.606 154.919 194.507 154.919L185.328 154.929C185.238 154.929 185.151 154.965 185.087 155.029C185.024 155.093 184.988 155.179 184.988 155.27C184.952 158.17 184.8 161.191 184.53 164.332C184.424 165.658 183.814 166.555 182.701 167.023C182.368 167.165 182.144 167.409 182.031 167.757C181.882 168.182 181.917 168.629 182.137 169.097C182.293 169.437 182.559 169.6 182.935 169.586C188.487 169.342 187.849 161.715 187.891 157.78C187.891 157.525 188.019 157.397 188.274 157.397H191.465C191.678 157.397 191.781 157.5 191.774 157.705ZM48.4274 166.502L48.4486 155.27C48.4486 155.179 48.4128 155.093 48.3489 155.029C48.2851 154.965 48.1985 154.929 48.1083 154.929L39.1099 154.919C39.0299 154.919 38.953 154.95 38.8955 155.005C38.8379 155.061 38.8042 155.137 38.8015 155.216C38.7305 158.315 38.4646 161.329 38.0037 164.257C37.7697 165.761 37.0287 166.739 35.7807 167.193C35.4829 167.299 35.334 167.512 35.334 167.831L35.4085 172.586C35.4109 172.721 35.4641 172.851 35.557 172.948C35.6499 173.044 35.7756 173.101 35.9084 173.107L37.7165 173.192C37.7946 173.196 37.8727 173.185 37.9462 173.158C38.0196 173.131 38.0867 173.089 38.1435 173.035C38.2002 172.982 38.2454 172.917 38.2763 172.845C38.3071 172.773 38.3229 172.696 38.3228 172.618V170.192C38.3228 169.774 38.532 169.565 38.9504 169.565L46.5235 169.576C46.9276 169.576 47.1226 169.774 47.1085 170.171L47.0659 172.543C47.0588 172.891 47.229 173.071 47.5765 173.086L49.3846 173.171C49.4559 173.173 49.527 173.162 49.5939 173.138C49.6608 173.113 49.7222 173.075 49.7746 173.027C49.8269 172.979 49.8692 172.92 49.899 172.856C49.9289 172.791 49.9456 172.721 49.9484 172.649L50.1505 167.842C50.1646 167.431 49.9803 167.158 49.5974 167.023C49.4839 166.98 49.3669 166.987 49.2464 167.044C48.7004 167.278 48.4274 167.097 48.4274 166.502ZM54.7454 163.736C54.7439 163.669 54.7561 163.602 54.7813 163.539C54.8064 163.477 54.844 163.42 54.8917 163.372C54.9394 163.324 54.9962 163.287 55.0588 163.262C55.1214 163.236 55.1885 163.224 55.2559 163.226L60.0529 163.247C60.1819 163.247 60.3059 163.197 60.3991 163.108C60.4923 163.019 60.5473 162.897 60.5528 162.768L60.6166 161.354C60.6196 161.285 60.6084 161.217 60.584 161.153C60.5595 161.089 60.5222 161.031 60.4743 160.982C60.4264 160.934 60.3691 160.895 60.3057 160.869C60.2424 160.843 60.1745 160.831 60.1061 160.832L55.2665 160.875C55.2 160.876 55.1339 160.865 55.072 160.84C55.0101 160.816 54.9537 160.779 54.9062 160.732C54.8586 160.686 54.8208 160.63 54.795 160.569C54.7693 160.508 54.756 160.442 54.756 160.375V157.886C54.756 157.754 54.8087 157.626 54.9024 157.533C54.9962 157.439 55.1233 157.386 55.2559 157.386L61.0315 157.408C61.164 157.408 61.2912 157.355 61.3849 157.261C61.4787 157.167 61.5314 157.04 61.5314 156.908L61.5207 155.44C61.5207 155.307 61.4681 155.18 61.3743 155.086C61.2806 154.993 61.1534 154.94 61.0208 154.94L52.2139 154.908C52.1483 154.908 52.0833 154.921 52.0226 154.946C51.962 154.971 51.9068 155.008 51.8604 155.054C51.814 155.101 51.7772 155.156 51.7521 155.217C51.7269 155.277 51.714 155.342 51.714 155.408L51.7353 169.076C51.7353 169.208 51.7879 169.335 51.8817 169.429C51.9754 169.523 52.1026 169.576 52.2352 169.576H61.0315C61.1622 169.576 61.2878 169.524 61.3812 169.433C61.4747 169.341 61.5286 169.217 61.5314 169.086L61.5845 167.555C61.586 167.487 61.5738 167.42 61.5486 167.358C61.5235 167.295 61.4859 167.238 61.4382 167.19C61.3905 167.143 61.3337 167.105 61.2711 167.08C61.2085 167.055 61.1414 167.043 61.074 167.044L55.2772 167.14C55.1464 167.14 55.0209 167.089 54.9274 166.997C54.834 166.906 54.7801 166.781 54.7773 166.651L54.7454 163.736ZM66.924 164.332C68.5088 164.428 70.5829 164.545 71.9976 163.789C76.4755 161.386 74.6779 155.142 69.6044 154.982C67.6792 154.929 65.7221 154.834 63.8182 154.993C63.4636 155.021 63.2864 155.213 63.2864 155.567V168.937C63.2864 169.099 63.3511 169.254 63.4665 169.37C63.5819 169.485 63.7387 169.551 63.9033 169.554L65.8391 169.576C66.1511 169.576 66.3071 169.42 66.3071 169.108V164.906C66.3071 164.502 66.5127 164.311 66.924 164.332ZM112.129 166.799C112.155 166.716 112.208 166.644 112.279 166.592C112.349 166.54 112.435 166.513 112.522 166.512L117.149 166.523C117.236 166.523 117.322 166.551 117.392 166.603C117.463 166.654 117.516 166.727 117.542 166.81L118.33 169.214C118.355 169.294 118.405 169.364 118.471 169.415C118.538 169.467 118.618 169.497 118.702 169.501L121.106 169.597C121.174 169.6 121.243 169.585 121.305 169.555C121.366 169.525 121.42 169.48 121.46 169.424C121.5 169.368 121.526 169.303 121.534 169.235C121.543 169.167 121.535 169.097 121.51 169.033L116.351 155.206C116.321 155.128 116.269 155.061 116.201 155.014C116.132 154.967 116.051 154.941 115.968 154.94L113.671 154.951C113.588 154.951 113.507 154.977 113.438 155.025C113.37 155.072 113.318 155.139 113.288 155.216L108.151 169.054C108.128 169.118 108.121 169.186 108.131 169.253C108.141 169.32 108.167 169.383 108.207 169.438C108.246 169.492 108.299 169.536 108.36 169.566C108.42 169.595 108.487 169.61 108.555 169.607L110.916 169.533C111.002 169.531 111.084 169.502 111.153 169.45C111.222 169.399 111.273 169.327 111.299 169.246L112.129 166.799ZM126.073 160.29V155.408C126.073 155.11 125.924 154.958 125.626 154.951L123.701 154.908C123.29 154.894 123.084 155.092 123.084 155.504L123.095 168.831C123.095 169.363 123.361 169.618 123.892 169.597L125.467 169.522C125.629 169.517 125.783 169.448 125.897 169.331C126.01 169.214 126.073 169.058 126.073 168.895L126.062 165.746C126.048 162.704 126.91 162.435 128.647 164.938C129.427 166.051 130.147 167.211 130.806 168.416C130.991 168.756 131.261 169.042 131.589 169.245C131.917 169.449 132.293 169.563 132.678 169.576L134.22 169.629C134.936 169.657 135.1 169.37 134.71 168.767L130.498 162.3C130.299 162.002 130.295 161.708 130.487 161.417L134.316 155.525C134.585 155.107 134.472 154.897 133.976 154.897L131.848 154.908C131.309 154.908 130.895 155.138 130.604 155.599L127.445 160.673C127.359 160.811 127.231 160.917 127.079 160.977C126.928 161.036 126.761 161.044 126.606 161.001C126.45 160.957 126.314 160.864 126.218 160.736C126.121 160.608 126.07 160.451 126.073 160.29ZM152.355 157.907C152.355 157.772 152.409 157.642 152.505 157.546C152.601 157.451 152.73 157.397 152.866 157.397L157.695 157.386C157.83 157.386 157.96 157.44 158.056 157.536C158.151 157.632 158.205 157.761 158.205 157.897L158.195 169.076C158.195 169.144 158.208 169.211 158.234 169.274C158.261 169.336 158.299 169.393 158.348 169.44C158.396 169.488 158.454 169.525 158.517 169.55C158.58 169.575 158.648 169.588 158.716 169.586L160.673 169.554C160.806 169.551 160.934 169.496 161.027 169.401C161.121 169.306 161.173 169.177 161.173 169.044L161.194 155.429C161.194 155.294 161.14 155.164 161.045 155.068C160.949 154.972 160.819 154.919 160.684 154.919H149.803C149.667 154.919 149.537 154.972 149.442 155.068C149.346 155.164 149.292 155.294 149.292 155.429L149.271 169.022C149.271 169.156 149.323 169.284 149.416 169.38C149.51 169.475 149.637 169.53 149.771 169.533L151.834 169.586C151.902 169.588 151.97 169.575 152.033 169.55C152.096 169.525 152.153 169.488 152.202 169.44C152.251 169.393 152.289 169.336 152.315 169.274C152.342 169.211 152.355 169.144 152.355 169.076V157.907ZM200.698 155.408C200.698 155.278 200.646 155.154 200.554 155.062C200.462 154.97 200.338 154.919 200.208 154.919H198.102C197.973 154.919 197.848 154.97 197.756 155.062C197.665 155.154 197.613 155.278 197.613 155.408V169.065C197.613 169.195 197.665 169.319 197.756 169.411C197.848 169.503 197.973 169.554 198.102 169.554H200.208C200.338 169.554 200.462 169.503 200.554 169.411C200.646 169.319 200.698 169.195 200.698 169.065V155.408ZM99.2479 176.702C98.5885 176.766 98.0815 176.482 97.7269 175.851C97.581 175.599 97.351 175.407 97.078 175.31C96.8051 175.212 96.5072 175.216 96.2378 175.319L95.9932 175.415C95.9039 175.449 95.8229 175.502 95.7553 175.569C95.6878 175.637 95.6352 175.718 95.6011 175.808C95.567 175.897 95.5521 175.992 95.5573 176.088C95.5626 176.183 95.5879 176.277 95.6316 176.362C96.9398 178.861 101.811 179.287 102.407 176.064C102.471 175.702 102.329 175.472 101.981 175.372C101.131 175.117 100.499 175.376 100.088 176.149C100.007 176.302 99.8878 176.433 99.7411 176.529C99.5945 176.626 99.425 176.685 99.2479 176.702ZM47.6414 184.69C47.6336 183.198 47.0333 181.77 45.9726 180.72C44.9119 179.67 43.4777 179.085 41.9855 179.093L41.0494 179.098C39.5572 179.105 38.1292 179.706 37.0795 180.766C36.0299 181.827 35.4446 183.261 35.4524 184.754L35.4711 188.327C35.4789 189.82 36.0792 191.248 37.1399 192.297C38.2006 193.347 39.6349 193.932 41.1271 193.925L42.0631 193.92C43.5553 193.912 44.9834 193.312 46.033 192.251C47.0827 191.19 47.668 189.756 47.6602 188.264L47.6414 184.69ZM52.9372 187.913C52.9372 187.817 52.9753 187.725 53.0431 187.657C53.1109 187.589 53.2029 187.551 53.2988 187.551L58.4362 187.53C58.5321 187.53 58.6241 187.568 58.6919 187.636C58.7597 187.703 58.7978 187.795 58.7978 187.891L58.7872 193.465C58.7871 193.559 58.8238 193.649 58.8893 193.717C58.9549 193.784 59.0441 193.824 59.1382 193.826L61.5207 193.858C61.5691 193.86 61.6173 193.852 61.6624 193.834C61.7075 193.816 61.7486 193.79 61.7833 193.756C61.8181 193.723 61.8457 193.682 61.8645 193.638C61.8833 193.593 61.893 193.545 61.893 193.497L61.8717 179.574C61.8717 179.478 61.8336 179.386 61.7658 179.318C61.698 179.25 61.606 179.212 61.5101 179.212L59.1595 179.223C59.0635 179.223 58.9716 179.261 58.9037 179.329C58.8359 179.396 58.7978 179.488 58.7978 179.584V184.732C58.7978 184.828 58.7597 184.92 58.6919 184.988C58.6241 185.056 58.5321 185.094 58.4362 185.094H53.2882C53.1923 185.094 53.1003 185.056 53.0325 184.988C52.9646 184.92 52.9265 184.828 52.9265 184.732L52.9585 179.552C52.9585 179.457 52.9204 179.365 52.8525 179.297C52.7847 179.229 52.6927 179.191 52.5968 179.191L50.31 179.212C50.2141 179.212 50.1221 179.25 50.0543 179.318C49.9865 179.386 49.9484 179.478 49.9484 179.574V193.486C49.9484 193.582 49.9865 193.674 50.0543 193.742C50.1221 193.81 50.2141 193.848 50.31 193.848L52.5862 193.826C52.6821 193.826 52.7741 193.788 52.8419 193.721C52.9097 193.653 52.9478 193.561 52.9478 193.465L52.9372 187.913ZM72.9123 181.627C73.2952 181.627 73.4866 181.818 73.4866 182.201L73.4654 193.603C73.4654 193.745 73.5363 193.816 73.6781 193.816L76.3053 193.837C76.4684 193.837 76.5499 193.756 76.5499 193.592L76.5606 179.478C76.5606 179.407 76.5337 179.34 76.4858 179.29C76.4379 179.24 76.373 179.212 76.3053 179.212H66.9985C66.9156 179.212 66.8361 179.244 66.7765 179.302C66.717 179.359 66.6821 179.438 66.6794 179.521C66.6368 182.74 66.4773 185.842 66.2007 188.827C66.0802 190.118 65.4668 190.93 64.3606 191.263C64.1054 191.341 63.9316 191.501 63.8395 191.742C63.648 192.238 63.5948 192.759 63.6799 193.305C63.706 193.476 63.7931 193.631 63.9246 193.741C64.056 193.851 64.2226 193.908 64.3925 193.901C70.2532 193.699 69.4767 186.168 69.6044 182.137C69.6186 181.797 69.7958 181.627 70.1362 181.627H72.9123ZM82.1978 191.135C82.2266 191.054 82.2799 190.984 82.3504 190.934C82.421 190.885 82.5052 190.858 82.5914 190.859L87.3033 190.827C87.3926 190.825 87.4802 190.852 87.553 190.904C87.6258 190.955 87.68 191.029 87.7075 191.114L88.4733 193.518C88.5002 193.601 88.5528 193.674 88.6235 193.725C88.6941 193.777 88.7793 193.805 88.8668 193.805L91.2175 193.858C91.2862 193.861 91.3546 193.847 91.4164 193.817C91.4783 193.787 91.5316 193.742 91.5717 193.686C91.6118 193.63 91.6374 193.565 91.6461 193.496C91.6548 193.428 91.6464 193.359 91.6216 193.295L86.463 179.467C86.4319 179.386 86.3762 179.317 86.3037 179.269C86.2312 179.222 86.1455 179.198 86.0588 179.201L83.7826 179.244C83.6995 179.245 83.6186 179.271 83.5503 179.318C83.482 179.365 83.4296 179.432 83.3997 179.51L78.2624 193.327C78.2398 193.39 78.2332 193.458 78.2429 193.525C78.2527 193.592 78.2786 193.655 78.3185 193.71C78.3583 193.764 78.4108 193.808 78.4715 193.838C78.5321 193.867 78.5991 193.882 78.6665 193.88L81.0066 193.805C81.0922 193.803 81.175 193.774 81.2436 193.722C81.3122 193.671 81.3631 193.6 81.3895 193.518L82.1978 191.135ZM101.875 185.147L101.886 193.337C101.886 193.47 101.94 193.597 102.035 193.691C102.131 193.784 102.261 193.837 102.396 193.837L104.492 193.816C104.619 193.816 104.74 193.764 104.83 193.673C104.92 193.581 104.97 193.456 104.97 193.327L104.992 179.85C104.992 179.675 104.922 179.508 104.798 179.384C104.675 179.26 104.507 179.191 104.332 179.191L102.577 179.201C102.365 179.205 102.159 179.261 101.976 179.365C101.794 179.47 101.642 179.618 101.535 179.797L96.6739 187.891C96.2626 188.579 96.057 188.522 96.057 187.721L96.0464 179.659C96.0464 179.375 95.9081 179.233 95.6316 179.233L93.483 179.191C93.1994 179.191 93.0575 179.329 93.0575 179.606L93.0682 193.039C93.0682 193.564 93.3306 193.826 93.8553 193.826L95.4295 193.837C95.8691 193.837 96.1988 193.653 96.4186 193.284L101.386 185.009C101.712 184.47 101.875 184.516 101.875 185.147ZM116.447 184.722C116.447 184.769 116.438 184.816 116.419 184.86C116.401 184.904 116.375 184.944 116.341 184.977C116.307 185.011 116.268 185.038 116.224 185.056C116.18 185.074 116.133 185.083 116.085 185.083L110.937 185.094C110.841 185.094 110.749 185.056 110.682 184.988C110.614 184.92 110.576 184.828 110.576 184.732L110.608 179.584C110.608 179.488 110.569 179.396 110.502 179.329C110.434 179.261 110.342 179.223 110.246 179.223L107.885 179.212C107.789 179.212 107.697 179.25 107.629 179.318C107.561 179.386 107.523 179.478 107.523 179.574V193.497C107.523 193.593 107.561 193.685 107.629 193.752C107.697 193.82 107.789 193.858 107.885 193.858L110.246 193.826C110.342 193.826 110.434 193.788 110.502 193.721C110.569 193.653 110.608 193.561 110.608 193.465L110.576 187.913C110.576 187.817 110.614 187.725 110.682 187.657C110.749 187.589 110.841 187.551 110.937 187.551L116.085 187.53C116.181 187.53 116.273 187.568 116.341 187.636C116.409 187.703 116.447 187.795 116.447 187.891L116.458 193.475C116.458 193.524 116.467 193.572 116.486 193.616C116.505 193.661 116.532 193.701 116.567 193.735C116.602 193.769 116.643 193.795 116.688 193.813C116.733 193.83 116.781 193.839 116.83 193.837L119.063 193.805C119.158 193.802 119.247 193.763 119.312 193.696C119.378 193.628 119.414 193.538 119.414 193.444L119.425 179.584C119.425 179.488 119.387 179.396 119.319 179.329C119.251 179.261 119.159 179.223 119.063 179.223L116.809 179.191C116.713 179.191 116.621 179.229 116.553 179.297C116.485 179.365 116.447 179.457 116.447 179.552V184.722Z" fill="white"/>
<path d="M161.628 54.491L199.738 36.2816C199.805 36.249 199.878 36.234 199.953 36.2379C200.027 36.2418 200.098 36.2646 200.161 36.3039C200.224 36.3433 200.276 36.3981 200.311 36.463C200.347 36.528 200.366 36.601 200.366 36.6751L200.302 83.6666C200.302 83.7486 200.279 83.8289 200.236 83.8985C200.193 83.9681 200.131 84.0242 200.057 84.0601L162.032 102.238C161.966 102.27 161.892 102.285 161.818 102.281C161.744 102.277 161.672 102.255 161.609 102.215C161.546 102.176 161.494 102.121 161.459 102.056C161.423 101.991 161.404 101.918 161.405 101.844L161.383 54.8846C161.383 54.8026 161.406 54.7222 161.449 54.6526C161.492 54.583 161.554 54.527 161.628 54.491Z" fill="#FBDB33"/>
<path d="M149.462 89.9727L36.504 143.069C36.442 143.098 36.3737 143.111 36.3055 143.106C36.2372 143.101 36.1714 143.079 36.114 143.042C36.0566 143.005 36.0096 142.954 35.9773 142.893C35.9451 142.833 35.9287 142.766 35.9297 142.697V95.6418C35.9306 95.5656 35.9531 95.4912 35.9945 95.4273C36.0359 95.3633 36.0945 95.3123 36.1637 95.2802L149.132 42.1728C149.195 42.144 149.263 42.1315 149.331 42.1362C149.399 42.141 149.465 42.1631 149.523 42.2003C149.58 42.2375 149.627 42.2886 149.659 42.3489C149.691 42.4092 149.708 42.4767 149.707 42.5451L149.696 89.611C149.695 89.6872 149.673 89.7616 149.631 89.8256C149.59 89.8896 149.531 89.9406 149.462 89.9727Z" fill="#3C9FDF"/>
<path d="M83.6434 165.405C83.2747 162.64 82.4344 162.487 81.1226 164.948L78.9634 169C78.7648 169.369 78.4564 169.553 78.038 169.553L75.6023 169.564C75.0988 169.571 74.9748 169.358 75.23 168.926L79.1761 162.204C79.3676 161.87 79.3605 161.544 79.1548 161.225L75.5172 155.577C75.2336 155.145 75.3506 154.925 75.8682 154.918L78.0806 154.875C78.6124 154.861 79.0024 155.091 79.2506 155.566C79.988 156.949 80.7078 158.24 81.4098 159.438C82.7358 161.721 83.4626 161.544 83.5902 158.906C83.6398 157.899 83.6186 156.811 83.5264 155.641C83.5187 155.542 83.5323 155.442 83.5662 155.348C83.6 155.255 83.6535 155.169 83.7229 155.098C83.7923 155.026 83.8761 154.97 83.9688 154.934C84.0614 154.897 84.1608 154.881 84.2603 154.886L85.8664 154.96C86.4053 154.989 86.6712 155.269 86.6641 155.8V158.789C86.657 161.64 87.3732 161.835 88.8127 159.374C89.4721 158.254 90.0997 157.08 90.6953 155.854C91.0002 155.23 91.4966 154.914 92.1844 154.907L94.1096 154.886C94.7478 154.872 94.8967 155.137 94.5563 155.683L91.0357 161.236C90.8442 161.541 90.8407 161.849 91.025 162.161L94.8541 168.819C95.1236 169.287 94.9853 169.525 94.4393 169.532L92.2163 169.596C91.727 169.603 91.3689 169.39 91.142 168.958C90.3549 167.433 89.543 165.87 88.7063 164.267C88.3801 163.643 87.8873 163.409 87.2278 163.565C86.852 163.65 86.6641 163.888 86.6641 164.278L86.6535 169.096C86.6535 169.415 86.4939 169.575 86.1748 169.575L84.2497 169.564C84.1332 169.563 84.0184 169.536 83.9134 169.486C83.8085 169.436 83.716 169.364 83.6428 169.274C83.5695 169.185 83.5172 169.08 83.4898 168.968C83.4623 168.857 83.4603 168.74 83.4838 168.628C83.7249 167.458 83.7781 166.384 83.6434 165.405Z" fill="black"/>
<path d="M105.524 162.597C105.673 162.639 105.807 162.703 105.928 162.788C106.148 162.944 106.321 163.136 106.449 163.362C110.065 169.957 97.3337 172.371 95.9616 166.202C95.8836 165.827 96.029 165.585 96.3977 165.479C97.7733 165.089 98.7625 165.405 99.3652 166.426C99.5425 166.724 99.7942 166.933 100.12 167.053C101.432 167.55 102.549 167.362 103.471 166.49C103.74 166.24 103.927 165.916 104.009 165.558C104.091 165.201 104.064 164.827 103.932 164.484C103.799 164.142 103.567 163.846 103.265 163.634C102.963 163.423 102.605 163.306 102.237 163.299L100.237 163.256C99.89 163.249 99.7162 163.072 99.7162 162.724V161.639C99.7162 161.1 99.9821 160.852 100.514 160.895C102.056 161.012 104.045 160.757 103.662 158.619C103.609 158.315 103.47 158.033 103.264 157.804C103.057 157.575 102.79 157.407 102.492 157.321C101.102 156.91 100.06 157.215 99.3652 158.236C99.1796 158.504 98.9233 158.715 98.6248 158.847C98.3263 158.978 97.9972 159.025 97.674 158.98L96.8231 158.874C96.036 158.768 95.8375 158.37 96.2275 157.683C97.5322 155.385 99.6099 154.407 102.46 154.747C105.96 155.151 108.768 158.895 105.343 161.576C104.754 162.036 104.815 162.377 105.524 162.597Z" fill="black"/>
<path d="M142.187 160.865L144.208 155.483C144.349 155.121 144.612 154.937 144.995 154.929L147.026 154.887C147.501 154.88 147.647 155.096 147.462 155.536C145.725 159.726 144.062 163.63 142.474 167.246C141.687 169.04 140.322 169.877 138.379 169.757C138.017 169.735 137.801 169.547 137.73 169.193L137.507 168.076C137.429 167.672 137.595 167.456 138.007 167.427C139.042 167.356 139.797 166.902 140.272 166.066C140.457 165.732 140.467 165.399 140.304 165.066L135.592 155.483C135.401 155.1 135.521 154.908 135.954 154.908L138.113 154.919C138.446 154.919 138.684 155.071 138.826 155.376L141.378 160.896C141.676 161.528 141.946 161.517 142.187 160.865Z" fill="black"/>
<path d="M166.397 154.876L164.716 154.873C164.352 154.872 164.056 155.167 164.055 155.531L164.032 168.954C164.031 169.318 164.326 169.614 164.69 169.615L166.371 169.618C166.735 169.618 167.031 169.324 167.031 168.959L167.055 155.536C167.055 155.172 166.761 154.876 166.397 154.876Z" fill="black"/>
<path d="M179.233 162.46L179.552 162.673C179.858 162.881 180.101 163.168 180.254 163.502C181.615 166.565 179.732 169.31 176.478 169.49C174.393 169.597 172.436 169.632 170.606 169.597C170.11 169.59 169.862 169.334 169.862 168.831V155.567C169.862 155.114 170.089 154.887 170.543 154.887C172.429 154.901 174.311 154.933 176.191 154.982C179.807 155.068 181.817 158.631 179.126 161.598C178.828 161.924 178.864 162.212 179.233 162.46ZM172.84 157.876V160.513C172.84 160.647 172.892 160.775 172.986 160.871C173.079 160.966 173.206 161.021 173.34 161.024L175.148 161.035C175.436 161.036 175.721 160.996 175.988 160.916C176.254 160.836 176.496 160.718 176.701 160.569C176.905 160.42 177.068 160.242 177.179 160.046C177.291 159.851 177.349 159.641 177.35 159.428V159.003C177.352 158.574 177.124 158.162 176.715 157.857C176.306 157.552 175.75 157.379 175.169 157.376L173.361 157.365C173.293 157.364 173.226 157.376 173.163 157.401C173.099 157.426 173.042 157.463 172.993 157.511C172.945 157.558 172.906 157.615 172.88 157.678C172.854 157.74 172.84 157.808 172.84 157.876ZM172.84 163.726L172.819 166.534C172.819 166.676 172.874 166.812 172.974 166.913C173.073 167.015 173.209 167.073 173.351 167.076L175.723 167.097C175.974 167.1 176.224 167.056 176.457 166.967C176.69 166.878 176.903 166.747 177.083 166.58C177.263 166.413 177.406 166.214 177.505 165.994C177.603 165.775 177.656 165.539 177.658 165.3V165.044C177.664 164.562 177.467 164.097 177.112 163.752C176.757 163.407 176.273 163.21 175.765 163.204L173.393 163.183C173.321 163.182 173.249 163.195 173.182 163.221C173.115 163.248 173.054 163.288 173.003 163.338C172.951 163.389 172.91 163.449 172.882 163.515C172.854 163.582 172.84 163.653 172.84 163.726Z" fill="black"/>
<path d="M191.774 157.706C191.781 157.5 191.679 157.397 191.466 157.397H188.275C188.02 157.397 187.892 157.525 187.892 157.78C187.849 161.716 188.488 169.342 182.935 169.586C182.56 169.601 182.294 169.438 182.138 169.097C181.918 168.629 181.882 168.182 182.031 167.757C182.145 167.41 182.368 167.165 182.701 167.023C183.815 166.555 184.425 165.658 184.531 164.332C184.8 161.191 184.953 158.17 184.988 155.27C184.988 155.18 185.024 155.093 185.088 155.029C185.152 154.965 185.238 154.93 185.329 154.93L194.508 154.919C194.607 154.919 194.701 154.958 194.771 155.028C194.841 155.098 194.88 155.192 194.88 155.291L194.869 169.118C194.869 169.452 194.703 169.611 194.37 169.597L192.317 169.501C191.948 169.487 191.764 169.292 191.764 168.916L191.774 157.706Z" fill="black"/>
<path d="M49.2472 167.044C49.3677 166.988 49.4847 166.981 49.5982 167.023C49.9811 167.158 50.1655 167.431 50.1513 167.842L49.9492 172.65C49.9465 172.721 49.9297 172.791 49.8999 172.856C49.8701 172.921 49.8278 172.979 49.7754 173.027C49.723 173.076 49.6616 173.113 49.5947 173.138C49.5278 173.163 49.4567 173.174 49.3855 173.171L47.5773 173.086C47.2298 173.072 47.0597 172.891 47.0667 172.543L47.1093 170.172C47.1235 169.774 46.9285 169.576 46.5243 169.576L38.9512 169.565C38.5328 169.565 38.3237 169.774 38.3237 170.193V172.618C38.3238 172.696 38.3079 172.773 38.2771 172.845C38.2463 172.917 38.2011 172.982 38.1443 173.036C38.0875 173.089 38.0204 173.131 37.947 173.158C37.8736 173.185 37.7954 173.197 37.7174 173.192L35.9092 173.107C35.7764 173.102 35.6508 173.045 35.5578 172.948C35.4649 172.851 35.4118 172.722 35.4093 172.586L35.3348 167.831C35.3348 167.512 35.4837 167.3 35.7816 167.193C37.0296 166.74 37.7706 165.761 38.0046 164.258C38.4655 161.329 38.7314 158.315 38.8023 155.217C38.805 155.137 38.8388 155.061 38.8963 155.005C38.9539 154.95 39.0307 154.919 39.1107 154.919L48.1091 154.93C48.1994 154.93 48.286 154.965 48.3498 155.029C48.4136 155.093 48.4495 155.18 48.4495 155.27L48.4282 166.502C48.4282 167.098 48.7012 167.278 49.2472 167.044ZM41.6741 158.014C41.6635 160.631 41.4188 164.524 40.2701 166.47C40.0007 166.917 40.1283 167.14 40.653 167.14L44.7374 167.108C44.9264 167.108 45.1076 167.033 45.2413 166.899C45.3749 166.766 45.45 166.585 45.45 166.396L45.4607 158.206C45.4607 157.681 45.1947 157.415 44.6629 157.408L42.3229 157.387C41.8975 157.379 41.6812 157.589 41.6741 158.014Z" fill="black"/>
<path d="M54.7432 163.736L54.7751 166.65C54.7778 166.781 54.8317 166.905 54.9252 166.997C55.0186 167.088 55.1442 167.14 55.275 167.14L61.0718 167.044C61.1392 167.042 61.2063 167.055 61.2689 167.08C61.3315 167.105 61.3883 167.142 61.436 167.19C61.4837 167.238 61.5213 167.295 61.5464 167.357C61.5716 167.42 61.5838 167.487 61.5823 167.554L61.5292 169.086C61.5264 169.217 61.4725 169.341 61.379 169.433C61.2856 169.524 61.16 169.575 61.0292 169.575H52.233C52.1004 169.575 51.9732 169.523 51.8795 169.429C51.7857 169.335 51.7331 169.208 51.7331 169.075L51.7118 155.408C51.7118 155.342 51.7247 155.277 51.7498 155.216C51.775 155.156 51.8118 155.101 51.8582 155.054C51.9046 155.008 51.9597 154.971 52.0204 154.946C52.081 154.921 52.1461 154.908 52.2117 154.908L61.0186 154.94C61.1512 154.94 61.2783 154.992 61.3721 155.086C61.4658 155.18 61.5185 155.307 61.5185 155.44L61.5292 156.907C61.5292 157.04 61.4765 157.167 61.3827 157.261C61.289 157.355 61.1618 157.407 61.0292 157.407L55.2537 157.386C55.1211 157.386 54.994 157.439 54.9002 157.532C54.8065 157.626 54.7538 157.753 54.7538 157.886V160.375C54.7538 160.441 54.7671 160.507 54.7928 160.569C54.8186 160.63 54.8564 160.686 54.904 160.732C54.9515 160.779 55.0079 160.815 55.0698 160.84C55.1316 160.864 55.1978 160.876 55.2643 160.875L60.1039 160.832C60.1722 160.831 60.2402 160.843 60.3035 160.869C60.3669 160.895 60.4242 160.933 60.4721 160.982C60.5199 161.031 60.5573 161.089 60.5818 161.153C60.6062 161.217 60.6174 161.285 60.6144 161.353L60.5506 162.768C60.5451 162.897 60.49 163.019 60.3969 163.108C60.3037 163.197 60.1797 163.247 60.0507 163.247L55.2537 163.225C55.1863 163.224 55.1192 163.236 55.0566 163.261C54.994 163.286 54.9372 163.324 54.8895 163.372C54.8418 163.419 54.8042 163.476 54.7791 163.539C54.7539 163.601 54.7417 163.668 54.7432 163.736Z" fill="black"/>
<path d="M66.3077 164.906V169.107C66.3077 169.419 66.1517 169.575 65.8397 169.575L63.9039 169.554C63.7393 169.551 63.5825 169.485 63.4671 169.37C63.3517 169.254 63.287 169.099 63.287 168.937V155.567C63.287 155.213 63.4643 155.021 63.8188 154.993C65.7227 154.833 67.6798 154.929 69.605 154.982C74.6785 155.142 76.4761 161.385 71.9982 163.789C70.5835 164.544 68.5094 164.427 66.9246 164.332C66.5133 164.31 66.3077 164.502 66.3077 164.906ZM66.3183 157.737V161.609C66.3183 161.699 66.3542 161.785 66.418 161.849C66.4819 161.913 66.5684 161.949 66.6587 161.949H69.0093C69.6551 161.949 70.2745 161.728 70.7312 161.335C71.188 160.942 71.4447 160.409 71.4451 159.854V159.492C71.4452 159.217 71.3824 158.944 71.26 158.69C71.1377 158.436 70.9583 158.205 70.7321 158.01C70.5059 157.815 70.2374 157.661 69.9418 157.556C69.6462 157.451 69.3293 157.396 69.0093 157.397H66.6587C66.614 157.397 66.5698 157.405 66.5285 157.423C66.4872 157.44 66.4496 157.465 66.418 157.496C66.3864 157.528 66.3614 157.565 66.3443 157.607C66.3272 157.648 66.3183 157.692 66.3183 157.737Z" fill="black"/>
<path d="M112.128 166.799L111.298 169.246C111.272 169.327 111.221 169.399 111.152 169.45C111.084 169.502 111.001 169.531 110.915 169.533L108.554 169.607C108.487 169.61 108.42 169.595 108.359 169.566C108.298 169.536 108.246 169.492 108.206 169.438C108.166 169.383 108.14 169.32 108.131 169.253C108.121 169.186 108.127 169.118 108.15 169.054L113.287 155.216C113.317 155.139 113.37 155.072 113.438 155.025C113.506 154.977 113.587 154.951 113.67 154.951L115.968 154.94C116.051 154.941 116.132 154.967 116.2 155.014C116.268 155.061 116.321 155.128 116.351 155.206L121.509 169.033C121.534 169.097 121.542 169.167 121.534 169.235C121.525 169.303 121.499 169.368 121.459 169.424C121.419 169.48 121.366 169.525 121.304 169.555C121.242 169.585 121.174 169.6 121.105 169.597L118.701 169.501C118.617 169.497 118.537 169.467 118.47 169.415C118.404 169.364 118.355 169.294 118.329 169.214L117.542 166.81C117.515 166.727 117.462 166.654 117.392 166.603C117.321 166.551 117.236 166.523 117.148 166.523L112.522 166.512C112.434 166.513 112.349 166.54 112.278 166.592C112.207 166.644 112.155 166.716 112.128 166.799ZM114.947 159.163C114.84 158.851 114.734 158.851 114.628 159.163L113.287 163.3C113.117 163.818 113.305 164.077 113.851 164.077L116.01 164.066C116.443 164.066 116.588 163.864 116.446 163.46L114.947 159.163Z" fill="black"/>
<path d="M126.074 160.291C126.072 160.452 126.122 160.609 126.219 160.737C126.315 160.865 126.451 160.958 126.607 161.002C126.763 161.045 126.929 161.037 127.08 160.978C127.232 160.918 127.36 160.812 127.446 160.674L130.605 155.6C130.896 155.14 131.311 154.909 131.849 154.909L133.977 154.898C134.473 154.898 134.587 155.108 134.317 155.526L130.488 161.419C130.297 161.709 130.3 162.004 130.499 162.301L134.711 168.768C135.101 169.371 134.938 169.658 134.221 169.63L132.679 169.577C132.294 169.564 131.919 169.45 131.59 169.246C131.262 169.043 130.992 168.757 130.807 168.417C130.148 167.212 129.428 166.052 128.648 164.939C126.911 162.436 126.049 162.706 126.063 165.748L126.074 168.896C126.074 169.059 126.011 169.215 125.898 169.332C125.785 169.449 125.63 169.518 125.468 169.523L123.893 169.598C123.362 169.619 123.096 169.364 123.096 168.832L123.085 155.505C123.085 155.093 123.291 154.895 123.702 154.909L125.627 154.952C125.925 154.959 126.074 155.111 126.074 155.409V160.291Z" fill="black"/>
<path d="M152.357 157.908V169.076C152.357 169.144 152.343 169.211 152.317 169.274C152.29 169.336 152.252 169.393 152.203 169.441C152.155 169.488 152.097 169.526 152.034 169.551C151.971 169.576 151.903 169.588 151.835 169.586L149.772 169.533C149.638 169.531 149.511 169.476 149.418 169.38C149.324 169.285 149.272 169.156 149.272 169.023L149.293 155.43C149.293 155.294 149.347 155.164 149.443 155.068C149.539 154.973 149.668 154.919 149.804 154.919H160.685C160.82 154.919 160.95 154.973 161.046 155.068C161.142 155.164 161.195 155.294 161.195 155.43L161.174 169.044C161.174 169.178 161.122 169.306 161.028 169.401C160.935 169.497 160.808 169.552 160.674 169.555L158.717 169.586C158.649 169.588 158.582 169.576 158.518 169.551C158.455 169.526 158.398 169.488 158.349 169.441C158.301 169.393 158.262 169.336 158.236 169.274C158.209 169.211 158.196 169.144 158.196 169.076L158.207 157.897C158.207 157.762 158.153 157.632 158.057 157.536C157.961 157.44 157.831 157.387 157.696 157.387L152.867 157.397C152.732 157.397 152.602 157.451 152.506 157.547C152.41 157.643 152.357 157.772 152.357 157.908Z" fill="black"/>
<path d="M200.208 154.919H198.102C197.832 154.919 197.613 155.138 197.613 155.408V169.065C197.613 169.336 197.832 169.555 198.102 169.555H200.208C200.479 169.555 200.698 169.336 200.698 169.065V155.408C200.698 155.138 200.479 154.919 200.208 154.919Z" fill="black"/>
<path d="M40.2668 166.469C41.4155 164.523 41.6601 160.63 41.6708 158.013C41.6779 157.588 41.8941 157.379 42.3196 157.386L44.6596 157.407C45.1914 157.414 45.4573 157.68 45.4573 158.205L45.4467 166.395C45.4467 166.584 45.3716 166.765 45.238 166.899C45.1043 167.032 44.923 167.108 44.734 167.108L40.6497 167.139C40.125 167.139 39.9973 166.916 40.2668 166.469Z" fill="white"/>
<path d="M66.3165 157.737C66.3165 157.693 66.3253 157.648 66.3424 157.607C66.3595 157.566 66.3846 157.528 66.4162 157.497C66.4478 157.465 66.4853 157.44 66.5266 157.423C66.5679 157.406 66.6121 157.397 66.6568 157.397H69.0075C69.3274 157.397 69.6443 157.451 69.9399 157.556C70.2355 157.661 70.504 157.816 70.7302 158.01C70.9564 158.205 71.1358 158.436 71.2582 158.69C71.3805 158.945 71.4434 159.217 71.4432 159.492V159.854C71.4429 160.41 71.1861 160.942 70.7293 161.335C70.2726 161.728 69.6532 161.949 69.0075 161.949H66.6568C66.5666 161.949 66.48 161.913 66.4162 161.85C66.3523 161.786 66.3165 161.699 66.3165 161.609V157.737Z" fill="white"/>
<path d="M172.84 157.875C172.84 157.807 172.853 157.74 172.88 157.678C172.906 157.615 172.944 157.558 172.993 157.511C173.042 157.463 173.099 157.426 173.162 157.401C173.225 157.376 173.293 157.363 173.361 157.365L175.169 157.376C175.75 157.379 176.306 157.552 176.715 157.857C177.124 158.162 177.352 158.574 177.35 159.003V159.428C177.348 159.641 177.29 159.851 177.179 160.046C177.068 160.242 176.905 160.42 176.701 160.569C176.496 160.718 176.254 160.836 175.987 160.916C175.721 160.996 175.436 161.036 175.148 161.034L173.34 161.024C173.206 161.021 173.079 160.966 172.985 160.871C172.892 160.775 172.84 160.647 172.84 160.513V157.875Z" fill="white"/>
<path d="M114.948 159.163L116.448 163.46C116.59 163.864 116.444 164.067 116.012 164.067L113.852 164.077C113.306 164.077 113.119 163.818 113.289 163.301L114.629 159.163C114.735 158.851 114.842 158.851 114.948 159.163Z" fill="white"/>
<path d="M172.84 163.726C172.84 163.654 172.855 163.582 172.883 163.516C172.911 163.449 172.952 163.389 173.003 163.338C173.055 163.288 173.116 163.248 173.183 163.221C173.25 163.195 173.321 163.182 173.394 163.183L175.765 163.204C176.273 163.21 176.758 163.407 177.113 163.752C177.468 164.097 177.664 164.562 177.659 165.045V165.3C177.656 165.539 177.604 165.775 177.505 165.994C177.406 166.214 177.263 166.413 177.083 166.58C176.903 166.747 176.691 166.879 176.457 166.967C176.224 167.056 175.974 167.1 175.723 167.097L173.351 167.076C173.209 167.073 173.074 167.015 172.974 166.914C172.875 166.812 172.819 166.676 172.819 166.534L172.84 163.726Z" fill="white"/>
<path d="M100.088 176.149C100.499 175.376 101.131 175.117 101.981 175.373C102.329 175.472 102.471 175.702 102.407 176.064C101.811 179.287 96.9399 178.861 95.6316 176.362C95.5879 176.277 95.5626 176.184 95.5574 176.088C95.5521 175.993 95.567 175.897 95.6012 175.808C95.6353 175.719 95.6878 175.637 95.7554 175.57C95.8229 175.502 95.904 175.449 95.9932 175.415L96.2379 175.319C96.5072 175.216 96.8051 175.213 97.078 175.31C97.351 175.407 97.5811 175.599 97.7269 175.851C98.0815 176.482 98.5885 176.766 99.2479 176.702C99.425 176.686 99.5945 176.626 99.7412 176.53C99.8879 176.433 100.007 176.302 100.088 176.149Z" fill="black"/>
<path d="M47.6615 188.263C47.6693 189.755 47.084 191.19 46.0343 192.25C44.9847 193.311 43.5567 193.911 42.0644 193.919L41.1284 193.924C39.6362 193.932 38.2019 193.347 37.1412 192.297C36.0805 191.247 35.4802 189.819 35.4724 188.327L35.4537 184.753C35.4459 183.261 36.0312 181.827 37.0808 180.766C38.1305 179.705 39.5585 179.105 41.0508 179.097L41.9868 179.092C43.479 179.085 44.9132 179.67 45.9739 180.719C47.0346 181.769 47.6349 183.197 47.6428 184.689L47.6615 188.263ZM41.5469 191.656C42.4186 191.656 43.2546 191.115 43.8709 190.152C44.4873 189.188 44.8336 187.881 44.8336 186.519C44.8336 185.156 44.4873 183.85 43.8709 182.886C43.2546 181.923 42.4186 181.382 41.5469 181.382C40.6753 181.382 39.8393 181.923 39.2229 182.886C38.6066 183.85 38.2603 185.156 38.2603 186.519C38.2603 187.881 38.6066 189.188 39.2229 190.152C39.8393 191.115 40.6753 191.656 41.5469 191.656Z" fill="black"/>
<path d="M52.9354 187.913L52.946 193.465C52.946 193.561 52.9079 193.653 52.8401 193.721C52.7722 193.789 52.6803 193.827 52.5844 193.827L50.3082 193.848C50.2123 193.848 50.1203 193.81 50.0525 193.742C49.9846 193.675 49.9465 193.583 49.9465 193.487V179.574C49.9465 179.478 49.9846 179.386 50.0525 179.319C50.1203 179.251 50.2123 179.213 50.3082 179.213L52.595 179.191C52.6909 179.191 52.7829 179.23 52.8507 179.297C52.9185 179.365 52.9566 179.457 52.9566 179.553L52.9247 184.733C52.9247 184.829 52.9628 184.921 53.0306 184.989C53.0985 185.056 53.1904 185.095 53.2864 185.095H58.4344C58.5303 185.095 58.6222 185.056 58.6901 184.989C58.7579 184.921 58.796 184.829 58.796 184.733V179.585C58.796 179.489 58.8341 179.397 58.9019 179.329C58.9697 179.261 59.0617 179.223 59.1576 179.223L61.5083 179.213C61.6042 179.213 61.6962 179.251 61.764 179.319C61.8318 179.386 61.8699 179.478 61.8699 179.574L61.8912 193.497C61.8912 193.546 61.8815 193.594 61.8627 193.638C61.8438 193.683 61.8162 193.723 61.7815 193.757C61.7468 193.791 61.7057 193.817 61.6606 193.835C61.6154 193.852 61.5673 193.86 61.5189 193.859L59.1364 193.827C59.0423 193.824 58.953 193.785 58.8875 193.717C58.8219 193.65 58.7853 193.56 58.7854 193.465L58.796 187.892C58.796 187.796 58.7579 187.704 58.6901 187.636C58.6222 187.568 58.5303 187.53 58.4344 187.53L53.297 187.552C53.2011 187.552 53.1091 187.59 53.0413 187.658C52.9735 187.725 52.9354 187.817 52.9354 187.913Z" fill="black"/>
<path d="M69.6055 182.136C69.4779 186.168 70.2543 193.698 64.3937 193.9C64.2238 193.907 64.0572 193.85 63.9257 193.74C63.7943 193.63 63.7072 193.475 63.6811 193.305C63.596 192.759 63.6491 192.237 63.8406 191.741C63.9328 191.5 64.1065 191.34 64.3618 191.262C65.468 190.929 66.0813 190.117 66.2019 188.827C66.4784 185.841 66.638 182.739 66.6805 179.52C66.6833 179.437 66.7181 179.359 66.7777 179.301C66.8372 179.244 66.9168 179.211 66.9996 179.211H76.3064C76.3741 179.211 76.4391 179.239 76.4869 179.289C76.5348 179.339 76.5617 179.407 76.5617 179.477L76.5511 193.592C76.5511 193.755 76.4695 193.836 76.3064 193.836L73.6792 193.815C73.5374 193.815 73.4665 193.744 73.4665 193.602L73.4878 182.2C73.4878 181.817 73.2963 181.626 72.9134 181.626H70.1373C69.797 181.626 69.6197 181.796 69.6055 182.136Z" fill="black"/>
<path d="M82.2012 191.138L81.3928 193.521C81.3665 193.602 81.3155 193.673 81.247 193.725C81.1784 193.776 81.0956 193.805 81.0099 193.808L78.6699 193.882C78.6025 193.884 78.5355 193.87 78.4748 193.84C78.4142 193.811 78.3617 193.767 78.3218 193.712C78.282 193.658 78.2561 193.594 78.2463 193.528C78.2365 193.461 78.2432 193.393 78.2657 193.329L83.4031 179.512C83.4329 179.435 83.4854 179.368 83.5537 179.321C83.6219 179.273 83.7029 179.247 83.786 179.247L86.0622 179.204C86.1489 179.2 86.2346 179.224 86.3071 179.272C86.3796 179.32 86.4353 179.389 86.4664 179.47L91.625 193.297C91.6498 193.361 91.6582 193.431 91.6495 193.499C91.6408 193.567 91.6152 193.632 91.5751 193.688C91.535 193.744 91.4816 193.789 91.4198 193.819C91.358 193.849 91.2896 193.864 91.2208 193.861L88.8702 193.808C88.7827 193.807 88.6975 193.78 88.6268 193.728C88.5561 193.676 88.5036 193.604 88.4767 193.521L87.7108 191.117C87.6834 191.032 87.6292 190.958 87.5564 190.906C87.4836 190.854 87.396 190.827 87.3067 190.83L82.5947 190.861C82.5085 190.861 82.4243 190.887 82.3538 190.937C82.2833 190.986 82.2299 191.057 82.2012 191.138ZM85.2006 183.735C85.0234 183.217 84.8461 183.221 84.6688 183.746L83.4031 187.554C83.2258 188.085 83.4173 188.351 83.9775 188.351L85.9877 188.33C86.5054 188.323 86.6791 188.075 86.5089 187.585L85.2006 183.735Z" fill="black"/>
<path d="M101.387 185.009L96.4196 193.285C96.1998 193.653 95.8701 193.838 95.4304 193.838L93.8563 193.827C93.3315 193.827 93.0692 193.565 93.0692 193.04L93.0585 179.606C93.0585 179.33 93.2004 179.191 93.484 179.191L95.6325 179.234C95.9091 179.234 96.0474 179.376 96.0474 179.659L96.058 187.722C96.058 188.523 96.2636 188.58 96.6749 187.892L101.536 179.798C101.643 179.619 101.795 179.47 101.977 179.366C102.16 179.262 102.366 179.205 102.578 179.202L104.333 179.191C104.508 179.191 104.676 179.261 104.799 179.385C104.923 179.508 104.993 179.676 104.993 179.851L104.971 193.327C104.971 193.457 104.921 193.581 104.831 193.673C104.741 193.765 104.62 193.816 104.493 193.816L102.397 193.838C102.262 193.838 102.132 193.785 102.036 193.691C101.941 193.598 101.887 193.47 101.887 193.338L101.876 185.148C101.876 184.517 101.713 184.471 101.387 185.009Z" fill="black"/>
<path d="M116.448 184.722V179.553C116.448 179.457 116.486 179.365 116.554 179.297C116.622 179.23 116.714 179.191 116.809 179.191L119.064 179.223C119.16 179.223 119.252 179.261 119.32 179.329C119.388 179.397 119.426 179.489 119.426 179.585L119.415 193.444C119.415 193.538 119.379 193.629 119.313 193.696C119.248 193.764 119.158 193.803 119.064 193.806L116.831 193.838C116.782 193.839 116.734 193.831 116.689 193.813C116.644 193.796 116.603 193.769 116.568 193.736C116.533 193.702 116.506 193.662 116.487 193.617C116.468 193.572 116.458 193.524 116.458 193.476L116.448 187.892C116.448 187.796 116.41 187.704 116.342 187.636C116.274 187.568 116.182 187.53 116.086 187.53L110.938 187.552C110.842 187.552 110.75 187.59 110.682 187.658C110.615 187.725 110.577 187.817 110.577 187.913L110.608 193.465C110.608 193.561 110.57 193.653 110.502 193.721C110.435 193.789 110.343 193.827 110.247 193.827L107.886 193.859C107.79 193.859 107.698 193.821 107.63 193.753C107.562 193.685 107.524 193.593 107.524 193.497V179.574C107.524 179.478 107.562 179.386 107.63 179.319C107.698 179.251 107.79 179.213 107.886 179.213L110.247 179.223C110.343 179.223 110.435 179.261 110.502 179.329C110.57 179.397 110.608 179.489 110.608 179.585L110.577 184.733C110.577 184.829 110.615 184.921 110.682 184.989C110.75 185.056 110.842 185.095 110.938 185.095L116.086 185.084C116.134 185.084 116.181 185.075 116.225 185.056C116.268 185.038 116.308 185.012 116.342 184.978C116.375 184.944 116.402 184.905 116.42 184.861C116.438 184.817 116.448 184.77 116.448 184.722Z" fill="black"/>
<path d="M38.2599 186.518C38.2599 189.355 39.7313 191.655 41.5465 191.655C43.3617 191.655 44.8331 189.355 44.8331 186.518C44.8331 183.68 43.3617 181.38 41.5465 181.38C39.7313 181.38 38.2599 183.68 38.2599 186.518Z" fill="white"/>
<path d="M85.1962 183.731L86.5045 187.581C86.6747 188.07 86.501 188.319 85.9833 188.326L83.9731 188.347C83.4129 188.347 83.2214 188.081 83.3987 187.549L84.6644 183.741C84.8417 183.217 85.019 183.213 85.1962 183.731Z" fill="white"/>
</g>
<defs>
<clipPath id="clip0_2420_23429">
<rect width="234" height="234" fill="white"/>
</clipPath>
</defs>
</svg>
