<svg width="224" height="245" viewBox="0 0 224 245" fill="none" xmlns="http://www.w3.org/2000/svg">
<path d="M69.947 69.9068L69.96 85.4278C69.96 85.6583 69.844 85.7735 69.612 85.7735H60.9174C60.8066 85.7735 60.7004 85.7303 60.6221 85.6533C60.5438 85.5763 60.4998 85.4719 60.4998 85.363L60.5129 37.3957C60.5129 37.3384 60.5358 37.2835 60.5766 37.243C60.6173 37.2024 60.6727 37.1797 60.7303 37.1797C66.7414 37.1797 72.7756 37.1797 78.833 37.1797C83.587 37.1797 89.1066 38.6877 92.4601 42.1272C96.566 46.3272 97.5751 52.8865 95.8875 58.439C94.2825 63.7149 90.294 67.5908 84.8962 69.0945C83.4609 69.492 81.3325 69.6735 78.5112 69.639C75.7652 69.6015 73.0003 69.6001 70.2166 69.6346C70.0369 69.6375 69.947 69.7282 69.947 69.9068ZM69.9339 46.6859L69.9774 60.1587C69.9774 60.1755 69.9808 60.1922 69.9874 60.2077C69.994 60.2232 70.0037 60.2372 70.0159 60.2489C70.0281 60.2606 70.0425 60.2697 70.0583 60.2757C70.0741 60.2818 70.091 60.2846 70.1079 60.284L79.6899 60.2494C81.6942 60.2418 83.6138 59.537 85.0265 58.29C86.4392 57.043 87.2293 55.3558 87.2232 53.5994V53.1241C87.2202 52.254 87.0216 51.3931 86.6387 50.5905C86.2559 49.788 85.6962 49.0595 84.9918 48.4468C84.2874 47.8341 83.452 47.3491 82.5333 47.0195C81.6146 46.6899 80.6307 46.5222 79.6377 46.526L70.0557 46.5606C70.023 46.5617 69.992 46.5754 69.9693 46.5987C69.9466 46.6221 69.9339 46.6534 69.9339 46.6859Z" fill="black"/>
<path d="M128.954 69.0582L140.976 85.4866C140.996 85.5137 141.008 85.5458 141.011 85.5794C141.014 85.613 141.007 85.6467 140.992 85.6767C140.976 85.7068 140.953 85.732 140.924 85.7496C140.895 85.7671 140.862 85.7763 140.828 85.7761L130.172 85.7804C130.031 85.7804 129.892 85.7462 129.768 85.6806C129.643 85.6151 129.537 85.5203 129.458 85.4045L118.954 69.9051C118.827 69.7179 118.648 69.6228 118.419 69.6199H113.509C113.314 69.6199 113.217 69.7164 113.217 69.9094L113.213 85.6551C113.213 85.6704 113.21 85.6856 113.204 85.6997C113.198 85.7139 113.189 85.7268 113.178 85.7376C113.167 85.7484 113.155 85.757 113.14 85.7629C113.126 85.7687 113.111 85.7718 113.095 85.7718L104.174 85.7761C104.088 85.7761 104.005 85.7419 103.944 85.6812C103.883 85.6204 103.848 85.538 103.848 85.452L103.861 37.4847C103.861 37.2888 103.96 37.1909 104.157 37.1909C110.052 37.1736 116.073 37.1722 122.221 37.1866C123.694 37.1895 125.468 37.4055 127.544 37.8347C134.251 39.2131 138.797 43.7199 139.762 50.5557C140.046 52.5607 140.049 54.374 139.771 55.9958C138.681 62.3679 135.095 66.6586 129.015 68.8681C128.996 68.8745 128.98 68.8851 128.966 68.899C128.953 68.9129 128.943 68.9297 128.937 68.9481C128.931 68.9665 128.929 68.986 128.932 69.0051C128.935 69.0242 128.942 69.0424 128.954 69.0582ZM113.23 46.7273L113.187 60.0273C113.187 60.0885 113.211 60.1472 113.254 60.1908C113.297 60.2344 113.356 60.2595 113.417 60.2607L122.777 60.2952C123.802 60.2991 124.818 60.1296 125.766 59.7966C126.715 59.4636 127.577 58.9735 128.304 58.3544C129.031 57.7352 129.609 56.9991 130.004 56.1881C130.399 55.3771 130.604 54.5072 130.606 53.6279V53.2477C130.612 51.4731 129.796 49.7684 128.338 48.5085C126.88 47.2485 124.898 46.5363 122.83 46.5286L113.469 46.494C113.438 46.4934 113.407 46.499 113.378 46.5105C113.349 46.522 113.323 46.5391 113.3 46.5608C113.278 46.5825 113.261 46.6084 113.248 46.637C113.236 46.6656 113.23 46.6963 113.23 46.7273Z" fill="black"/>
<path d="M119.816 135.588H141.468C141.521 135.588 141.572 135.609 141.61 135.646C141.647 135.683 141.668 135.734 141.668 135.786V144.627C141.668 144.82 141.571 144.917 141.377 144.917L104.075 144.895C103.933 144.895 103.859 144.825 103.854 144.683C103.833 144.122 103.964 143.603 104.245 143.128C111.622 130.669 118.968 118.269 126.284 105.928C126.4 105.735 126.345 105.639 126.119 105.639H104.819C104.532 105.639 104.389 105.496 104.389 105.211L104.393 96.5649C104.393 96.4208 104.467 96.3488 104.615 96.3488L141.607 96.3315C141.642 96.3315 141.676 96.3448 141.701 96.3688C141.727 96.3928 141.743 96.4257 141.747 96.4612C141.834 97.2822 141.803 98.1507 141.372 98.8809C134.074 111.164 126.857 123.345 119.721 135.424C119.71 135.44 119.705 135.459 119.705 135.479C119.704 135.498 119.71 135.517 119.719 135.534C119.729 135.551 119.743 135.565 119.76 135.574C119.777 135.583 119.797 135.588 119.816 135.588Z" fill="black"/>
<path d="M172.14 138.651C181.883 138.651 189.781 130.805 189.781 121.126C189.781 111.446 181.883 103.6 172.14 103.6C162.397 103.6 154.498 111.446 154.498 121.126C154.498 130.805 162.397 138.651 172.14 138.651Z" fill="#007EFD"/>
<path d="M69.9498 187.435L69.9628 203.089C69.9628 203.265 69.8744 203.353 69.6975 203.353H60.8854C60.6244 203.353 60.4954 203.225 60.4983 202.968L60.5418 154.928C60.5418 154.909 60.5455 154.89 60.5527 154.873C60.5599 154.856 60.5705 154.84 60.5838 154.827C60.5971 154.814 60.613 154.803 60.6304 154.796C60.6478 154.789 60.6665 154.785 60.6853 154.785C66.8355 154.791 72.9248 154.795 78.9533 154.798C81.4064 154.798 83.816 155.183 86.1822 155.952C94.0722 158.51 97.5561 165.527 96.4644 173.404C95.6641 179.181 91.7147 184.609 85.8733 186.264C85.8252 186.277 85.7813 186.302 85.7451 186.337C85.7089 186.371 85.6816 186.414 85.6654 186.461C85.6492 186.509 85.6447 186.559 85.6521 186.609C85.6595 186.659 85.6787 186.706 85.7081 186.748L97.6127 203.003C97.7838 203.236 97.7243 203.353 97.4343 203.353L86.6867 203.357C86.4953 203.357 86.346 203.278 86.2387 203.12L75.565 187.391C75.4548 187.23 75.304 187.149 75.1126 187.149H70.2325C70.044 187.149 69.9498 187.244 69.9498 187.435ZM69.9541 164.183V177.725C69.9541 177.759 69.9674 177.79 69.9911 177.814C70.0147 177.837 70.0468 177.851 70.0803 177.851H79.5796C81.6087 177.851 83.5547 177.146 84.9895 175.891C86.4243 174.637 87.2304 172.936 87.2304 171.162V170.747C87.2304 168.973 86.4243 167.272 84.9895 166.017C83.5547 164.763 81.6087 164.058 79.5796 164.058H70.0803C70.0468 164.058 70.0147 164.071 69.9911 164.095C69.9674 164.118 69.9541 164.15 69.9541 164.183Z" fill="black"/>
<path d="M113.317 187.15C113.275 187.15 113.236 187.166 113.206 187.194C113.177 187.222 113.16 187.261 113.16 187.301L113.165 203.206C113.165 203.226 113.161 203.245 113.153 203.263C113.146 203.28 113.135 203.297 113.121 203.31C113.108 203.324 113.091 203.335 113.073 203.342C113.055 203.349 113.036 203.353 113.017 203.353H103.987C103.963 203.353 103.939 203.349 103.917 203.34C103.895 203.331 103.875 203.318 103.858 203.301C103.841 203.285 103.828 203.265 103.818 203.244C103.809 203.222 103.805 203.199 103.805 203.176L103.8 155.036C103.8 154.886 103.876 154.811 104.026 154.811C110.89 154.783 117.059 154.781 122.534 154.807C125.297 154.821 128.098 155.383 130.937 156.492C132.938 157.273 134.767 158.595 136.426 160.459C139.327 163.721 140.275 168.829 139.745 173.132C138.988 179.303 134.96 184.54 128.988 186.35C128.96 186.359 128.934 186.374 128.913 186.395C128.892 186.416 128.877 186.441 128.867 186.469C128.858 186.496 128.855 186.526 128.86 186.555C128.864 186.584 128.875 186.612 128.893 186.635L140.971 203.146C140.985 203.166 140.994 203.189 140.996 203.214C140.998 203.238 140.993 203.263 140.981 203.285C140.97 203.306 140.953 203.325 140.932 203.338C140.911 203.351 140.887 203.357 140.862 203.358L129.949 203.353C129.749 203.353 129.594 203.271 129.484 203.107L118.819 187.387C118.715 187.232 118.568 187.154 118.38 187.154L113.317 187.15ZM113.173 164.218L113.147 177.682C113.147 177.727 113.165 177.77 113.197 177.801C113.229 177.833 113.272 177.851 113.317 177.851L122.716 177.864C123.743 177.866 124.761 177.692 125.71 177.352C126.66 177.013 127.523 176.514 128.251 175.885C128.978 175.256 129.555 174.509 129.95 173.686C130.344 172.863 130.548 171.98 130.55 171.088V170.864C130.553 169.064 129.732 167.336 128.268 166.061C126.804 164.785 124.816 164.066 122.742 164.063L113.343 164.05C113.298 164.05 113.255 164.067 113.223 164.099C113.191 164.131 113.173 164.173 113.173 164.218Z" fill="black"/>
</svg>
