<svg width="17" height="17" viewBox="0 0 17 17" fill="none" xmlns="http://www.w3.org/2000/svg">
<path fill-rule="evenodd" clip-rule="evenodd" d="M15 15L15 10.9153L17 10.9153L17 17L10.9153 17L10.9153 15L15 15ZM2 2L9 2L9 -2.90086e-07L0 -7.43094e-07L-3.71547e-07 8.5L2 8.5L2 2Z" fill="#8BD0ED"/>
<path fill-rule="evenodd" clip-rule="evenodd" d="M2 2L2 6.08475L4.77121e-07 6.08474L9.81512e-07 -1.90735e-06L6.08475 -1.64138e-06L6.08475 2L2 2ZM15 15L8 15L8 17L17 17L17 8.5L15 8.5L15 15Z" fill="#8BD0ED"/>
</svg>
