<svg width="18" height="19" viewBox="0 0 18 19" fill="none" xmlns="http://www.w3.org/2000/svg">
<path fill-rule="evenodd" clip-rule="evenodd" d="M14.4999 15.2499L14.4999 11.8347L17.4999 11.8347L17.4999 18.2499L11.0847 18.2499L11.0847 15.2499L14.4999 15.2499ZM3 3.75L9.23327 3.75L9.23327 0.75L3.8147e-06 0.749999L3.43223e-06 9.49994L3 9.49994L3 3.75Z" fill="black"/>
<path fill-rule="evenodd" clip-rule="evenodd" d="M3 3.75L3 7.16521L4.84526e-07 7.16521L1.00336e-06 0.750002L6.41521 0.750002L6.41521 3.75L3 3.75ZM14.4999 15.2499L8.26661 15.2499L8.26661 18.2499L17.4999 18.2499L17.4999 9.49994L14.4999 9.49994L14.4999 15.2499Z" fill="black"/>
</svg>
