<svg width="12" height="13" viewBox="0 0 12 13" fill="none" xmlns="http://www.w3.org/2000/svg">
<path fill-rule="evenodd" clip-rule="evenodd" d="M6.38393 0H1.39286C1.02345 0 0.66917 0.146747 0.407958 0.407958C0.146747 0.66917 0 1.02345 0 1.39286V11.6071C0 11.9766 0.146747 12.3308 0.407958 12.592C0.66917 12.8533 1.02345 13 1.39286 13H9.75C10.1194 13 10.4737 12.8533 10.7349 12.592C10.9961 12.3308 11.1429 11.9766 11.1429 11.6071V4.75893H6.96429C6.88807 4.75893 6.8126 4.74392 6.74219 4.71475C6.67178 4.68559 6.6078 4.64284 6.55391 4.58895C6.50002 4.53505 6.45727 4.47108 6.42811 4.40066C6.39894 4.33025 6.38393 4.25478 6.38393 4.17857V0ZM10.7547 3.59821L7.54464 0.388143V3.59821H10.7547Z" fill="white"/>
</svg>
