<svg width="871" height="901" viewBox="0 0 871 901" fill="none" xmlns="http://www.w3.org/2000/svg">
<path d="M783.711 571.503V806.374H550.785V237.551H640.539V143.004H445.001V8.04324H359.889V59.8511C311.802 19.9504 259.98 0 204.459 0C140.634 0 90.5887 18.3733 54.3604 55.0804C18.1322 91.7875 0 143.517 0 210.228C0 264.559 14.941 308.285 44.8591 341.483C74.7773 374.681 121.015 401.018 183.643 420.456L270.605 447.109C340.922 468.242 376.063 505.935 376.063 560.266C376.063 600.167 365.256 631.118 343.678 653.04C322.101 675.001 291.711 686.001 252.546 686.001C185.638 686.001 131.35 644.444 89.7183 561.292V490.913H2.75609V770.534H89.7183V707.686C141.54 757.996 199.019 783.111 262.265 783.111C328.556 783.111 381.43 763.003 420.922 722.748C430.133 713.364 438.256 703.152 445.328 692.191V806.452H359.744V901H871V571.582L783.711 571.503ZM412.835 387.258C384.911 362.458 344.911 342.508 292.799 327.407L210.914 303.79C171.132 292.711 141.613 279.305 122.32 263.574C103.027 247.803 93.4173 224.856 93.4173 194.654C93.4173 163.152 103.608 139.022 123.952 122.226C144.296 105.469 173.598 97.0708 211.857 97.0708C274.45 97.0708 323.805 126.563 359.889 185.586V237.867H445.001V237.551H445.328V422.664C436.552 410.56 425.745 398.732 412.835 387.258Z" fill="#1D1D1E"/>
</svg>
