<svg width="627" height="588" viewBox="0 0 627 588" fill="none" xmlns="http://www.w3.org/2000/svg">
<path d="M564.164 372.968V526.246H396.489V155.028H461.1V93.3256H320.34V5.24908H259.07V39.0593C224.454 13.0198 187.15 0 147.182 0C101.237 0 65.2113 11.9905 39.132 35.9459C13.0527 59.9013 0 93.6601 0 137.197C0 172.654 10.7554 201.189 32.2924 222.854C53.8294 244.52 87.1138 261.708 132.198 274.393L194.799 291.787C245.417 305.579 270.713 330.177 270.713 365.634C270.713 391.674 262.934 411.873 247.401 426.179C231.868 440.511 209.992 447.69 181.798 447.69C133.634 447.69 94.5538 420.57 64.5848 366.304V320.374H1.98401V502.857H64.5848V461.842C101.889 494.674 143.267 511.065 188.794 511.065C236.515 511.065 274.577 497.942 303.006 471.671C309.636 465.547 315.484 458.883 320.575 451.73V526.298H258.966V588H627V373.019L564.164 372.968ZM297.184 252.728C277.083 236.543 248.289 223.523 210.775 213.668L151.829 198.256C123.191 191.025 101.942 182.277 88.0536 172.01C74.1655 161.718 67.2476 146.743 67.2476 127.033C67.2476 106.474 74.5832 90.7268 89.2283 79.7654C103.873 68.8299 124.967 63.3492 152.508 63.3492C197.566 63.3492 233.095 82.5958 259.07 121.115V155.234H320.34V155.028H320.575V275.834C314.257 267.935 306.478 260.215 297.184 252.728Z" fill="#9FDDF7"/>
</svg>
