<svg width="815" height="763" viewBox="0 0 815 763" fill="none" xmlns="http://www.w3.org/2000/svg">
<path d="M733.324 483.97V682.867H515.373V201.167H599.357V121.101H416.39V6.81131H336.75V50.6841C291.755 16.8947 243.265 0 191.314 0C131.592 0 84.7644 15.5592 50.8654 46.6441C16.9664 77.729 0 121.535 0 178.029C0 224.039 13.9803 261.067 41.975 289.18C69.9696 317.293 113.234 339.597 171.836 356.058L253.207 378.629C319.003 396.525 351.884 428.445 351.884 474.454C351.884 508.244 341.772 534.454 321.582 553.018C301.392 571.615 272.956 580.931 236.309 580.931C173.702 580.931 122.905 545.739 83.95 475.322V415.723H2.57889V652.516H83.95V599.295C132.44 641.899 186.224 663.168 245.403 663.168C307.432 663.168 356.906 646.139 393.859 612.049C402.478 604.103 410.079 595.455 416.696 586.173V682.934H336.614V763H815V484.037L733.324 483.97ZM386.292 327.944C360.164 306.943 322.736 290.048 273.974 277.26L197.354 257.26C160.129 247.878 132.508 236.526 114.456 223.204C96.4033 209.848 87.4111 190.416 87.4111 164.84C87.4111 138.163 96.9462 117.729 115.983 103.505C135.019 89.3149 162.437 82.2031 198.236 82.2031C256.804 82.2031 302.987 107.178 336.75 157.161V201.434H416.39V201.167H416.696V357.927C408.484 347.677 398.372 337.661 386.292 327.944Z" fill="#18181A"/>
</svg>
