<svg width="111" height="37" viewBox="0 0 111 37" fill="none" xmlns="http://www.w3.org/2000/svg">
<g clip-path="url(#clip0_2418_15043)">
<path d="M38.5821 25.5515V33.7142H29.6693V13.9453H33.1037V10.6594H25.6215V5.96899H22.3647V7.76952C20.5247 6.38281 18.5418 5.68945 16.4173 5.68945C13.975 5.68945 12.0601 6.328 10.6738 7.60372C9.28757 8.87944 8.59375 10.6772 8.59375 12.9957C8.59375 14.884 9.16546 16.4036 10.3103 17.5574C11.4551 18.7111 13.2243 19.6265 15.6208 20.302L18.9483 21.2283C21.639 21.9628 22.9836 23.2727 22.9836 25.161C22.9836 26.5477 22.5701 27.6233 21.7444 28.3852C20.9188 29.1485 19.756 29.5308 18.2573 29.5308C15.6971 29.5308 13.6198 28.0865 12.0268 25.1966V22.7507H8.69921V32.4686H12.0268V30.2844C14.0097 32.0329 16.2091 32.9057 18.6292 32.9057C21.1658 32.9057 23.189 32.2069 24.7001 30.8079C25.0526 30.4817 25.3634 30.1268 25.634 29.7459V33.7169H22.3592V37.0028H41.9222V25.5542L38.5821 25.5515ZM24.3907 19.1482C23.3222 18.2863 21.7916 17.593 19.7976 17.0682L16.6643 16.2474C15.142 15.8623 14.0125 15.3964 13.2743 14.8497C12.536 14.3016 12.1683 13.5041 12.1683 12.4545C12.1683 11.3596 12.5582 10.521 13.3367 9.93729C14.1152 9.35492 15.2364 9.06306 16.7004 9.06306C19.0954 9.06306 20.984 10.088 22.3647 12.1393V13.9563H25.6215V13.9453H25.634V20.3787C25.2982 19.9581 24.8847 19.547 24.3907 19.1482Z" fill="#4CB4E0"/>
<path d="M25.6326 3.26809H38.5807V7.13773V11.92V15.9047V19.3838H41.9194V0H25.6326V3.26809Z" fill="#4CB4E0"/>
<path d="M12.0198 3.26809H3.32757V7.13773V11.92V15.9047L3.32896 37H0.00277529L0 0L12.0198 0.00822161V3.26809Z" fill="#4CB4E0"/>
<path d="M58.3782 3.99902V3.18425H59.8512V6.79834H58.3782V5.97539C57.7536 5.04774 56.8987 4.5831 55.8152 4.5831C55.1524 4.5831 54.6454 4.71562 54.2942 4.97903C53.943 5.24243 53.7657 5.622 53.7657 6.11773C53.7657 6.59219 53.933 6.95377 54.266 7.20081C54.5991 7.4495 55.111 7.65891 55.8002 7.83397L57.2185 8.20536C58.1214 8.44259 58.814 8.75672 59.2961 9.1461C59.7799 9.53713 60.0947 9.95105 60.2422 10.3879C60.388 10.8247 60.4625 11.3139 60.4625 11.8505C60.4625 12.932 60.1212 13.7876 59.437 14.4208C58.7527 15.054 57.8381 15.3697 56.69 15.3697C55.5948 15.3697 54.599 14.9738 53.7027 14.1836V15.1734H52.1967V10.8313H53.7027V11.8833C54.4234 13.1905 55.3628 13.8449 56.5226 13.8449C57.2003 13.8449 57.7271 13.6731 58.0999 13.3263C58.4743 12.9811 58.6599 12.4951 58.6599 11.8669C58.6599 11.0129 58.0519 10.419 56.8341 10.0868L55.3281 9.66801C54.2445 9.36207 53.4426 8.94814 52.9257 8.42623C52.4071 7.90433 52.1486 7.21554 52.1486 6.36151C52.1486 5.31279 52.4618 4.49966 53.0897 3.92212C53.7176 3.34459 54.5841 3.05664 55.6892 3.05664C56.6485 3.05664 57.5449 3.37077 58.3782 3.99902Z" fill="#4CB4E0"/>
<path d="M65.3347 4.7411V13.6855H66.6486V15.1727H62.2033V13.6855H63.5089V4.7411H62.2033V3.25391H66.6486V4.7411H65.3347Z" fill="#4CB4E0"/>
<path d="M77.4422 6.37881C77.4422 7.14285 77.2235 7.78583 76.7861 8.30446C76.3487 8.8231 75.7373 9.1814 74.952 9.37609L77.0826 13.6855H78.5555V15.1727H75.8483L73.1808 9.6215H71.4909V13.6871H73.0284V15.1727H68.0314V13.6855H69.6651V4.7411H68.0314V3.25391H73.045C74.5991 3.25391 75.7207 3.50423 76.4083 4.00486C77.0975 4.50714 77.4422 5.29736 77.4422 6.37881ZM75.56 6.34608C75.56 5.79309 75.3844 5.38735 75.0315 5.12885C74.6786 4.87035 74.1202 4.7411 73.3581 4.7411H71.4925V8.12613H73.2471C74.0324 8.12613 74.614 7.99197 74.9934 7.72202C75.3711 7.4537 75.56 6.9956 75.56 6.34608Z" fill="#4CB4E0"/>
<path d="M83.0534 4.7411V13.6855H84.3673V15.1727H79.9221V13.6855H81.2276V4.7411H79.9221V3.25391H84.3673V4.7411H83.0534Z" fill="#4CB4E0"/>
<path d="M89.253 4.7411V10.8158C89.253 11.8858 89.4601 12.6695 89.8743 13.1652C90.2885 13.661 90.8949 13.908 91.6968 13.908C92.5086 13.908 93.1266 13.6626 93.5508 13.1718C93.9749 12.681 94.187 11.9005 94.187 10.8306V4.7411H92.777V3.25391H97.5023V4.7411H95.9962V10.9974C95.9962 12.4208 95.6317 13.5055 94.9027 14.2516C94.1737 14.9976 93.1051 15.3707 91.6951 15.3707C90.2752 15.3707 89.2082 15.0009 88.4958 14.2598C87.7834 13.5186 87.4272 12.3979 87.4272 10.8944V4.7411H85.9377V3.25391H90.6795V4.7411H89.253Z" fill="#4CB4E0"/>
<path d="M105.308 3.99902V3.18425H106.781V6.79834H105.308V5.97539C104.683 5.04774 103.828 4.5831 102.745 4.5831C102.082 4.5831 101.575 4.71562 101.224 4.97903C100.873 5.24243 100.695 5.622 100.695 6.11773C100.695 6.59219 100.863 6.95377 101.196 7.20081C101.529 7.4495 102.041 7.65891 102.73 7.83397L104.148 8.20536C105.051 8.44259 105.744 8.75672 106.226 9.1461C106.71 9.53713 107.024 9.95105 107.172 10.3879C107.318 10.8247 107.392 11.3139 107.392 11.8505C107.392 12.932 107.051 13.7876 106.367 14.4208C105.682 15.054 104.768 15.3697 103.62 15.3697C102.524 15.3697 101.529 14.9738 100.632 14.1836V15.1734H99.1264V10.8313H100.632V11.8833C101.353 13.1905 102.293 13.8449 103.452 13.8449C104.13 13.8449 104.657 13.6731 105.03 13.3263C105.404 12.9811 105.59 12.4951 105.59 11.8669C105.59 11.0129 104.982 10.419 103.764 10.0868L102.258 9.66801C101.174 9.36207 100.372 8.94814 99.8554 8.42623C99.3384 7.90433 99.0783 7.21554 99.0783 6.36151C99.0783 5.31279 99.3914 4.49966 100.019 3.92212C100.647 3.34459 101.514 3.05664 102.619 3.05664C103.578 3.05664 104.476 3.37077 105.308 3.99902Z" fill="#4CB4E0"/>
<path d="M55.216 24.1786V33.123H59.1808V29.4304H60.6786V34.6102H51.8361V33.123H53.3902V24.1786H51.8361V22.6914H56.7701V24.1786H55.216Z" fill="#4CB4E0"/>
<path d="M70.2088 24.1312L73.476 33.123H74.8214V34.6102H70.0646V33.123H71.6419L70.7042 30.4186H66.3236L65.3858 33.123H66.915V34.6102H62.1252V33.123H63.5832L66.8355 24.1312H65.3858V22.6914H71.6569V24.1312H70.2088ZM68.5603 24.1312H68.5039L66.7974 29.0181H70.2254L68.5603 24.1312Z" fill="#4CB4E0"/>
<path d="M77.7116 24.1786L79.9615 32.0154L82.1883 24.1786H80.7469V22.6914H86.2889V24.1786H84.8641L87.066 32.0154L89.3242 24.1786H87.8993V22.6914H92.328V24.1786H90.9346L87.8828 34.7362H86.1763L83.4525 25.2453L80.7452 34.7362H79.0553L75.9719 24.1786H74.5471V22.6914H79.1596V24.1786H77.7116Z" fill="#4CB4E0"/>
</g>
<defs>
<clipPath id="clip0_2418_15043">
<rect width="111" height="37" fill="white"/>
</clipPath>
</defs>
</svg>
